<svg width="36" height="35" viewBox="0 0 36 35" fill="none" xmlns="http://www.w3.org/2000/svg">
<g clip-path="url(#clip0_26_181)">
<path fill-rule="evenodd" clip-rule="evenodd" d="M18.0149 0C8.05312 0 0 7.88715 0 17.6446C0 25.4443 5.15991 32.0465 12.3181 34.3833C13.213 34.559 13.5409 34.0036 13.5409 33.5365C13.5409 33.1274 13.5114 31.7253 13.5114 30.2644C8.50005 31.3163 7.45649 28.1611 7.45649 28.1611C6.65114 26.1161 5.45786 25.5906 5.45786 25.5906C3.81766 24.5097 5.57734 24.5097 5.57734 24.5097C7.39675 24.6265 8.35144 26.3208 8.35144 26.3208C9.96177 29.0082 12.5567 28.2489 13.6006 27.7814C13.7496 26.6421 14.2271 25.8533 14.7341 25.4152C10.7373 25.0062 6.53203 23.4872 6.53203 16.7096C6.53203 14.7816 7.24741 13.2042 8.38094 11.9773C8.2021 11.5393 7.57559 9.72772 8.56015 7.30314C8.56015 7.30314 10.0812 6.83565 13.511 9.11431C14.9794 8.72808 16.4937 8.5316 18.0149 8.52995C19.536 8.52995 21.0866 8.73465 22.5184 9.11431C25.9485 6.83565 27.4696 7.30314 27.4696 7.30314C28.4542 9.72772 27.8273 11.5393 27.6485 11.9773C28.8119 13.2042 29.4978 14.7816 29.4978 16.7096C29.4978 23.4872 25.2925 24.9768 21.2658 25.4152C21.9222 25.9702 22.4886 27.0217 22.4886 28.687C22.4886 31.0531 22.4591 32.9521 22.4591 33.5361C22.4591 34.0036 22.7873 34.559 23.6818 34.3836C30.84 32.0462 35.9999 25.4443 35.9999 17.6446C36.0294 7.88715 27.9468 0 18.0149 0Z" fill="white"/>
</g>
<defs>
<clipPath id="clip0_26_181">
<rect width="36" height="35" fill="white"/>
</clipPath>
</defs>
</svg>
