<svg width="36" height="35" viewBox="0 0 36 35" fill="none" xmlns="http://www.w3.org/2000/svg">
<g clip-path="url(#clip0_26_172)">
<path d="M33.3352 0H2.65781C1.18828 0 0 1.12793 0 2.52246V32.4707C0 33.8652 1.18828 35 2.65781 35H33.3352C34.8047 35 36 33.8652 36 32.4775V2.52246C36 1.12793 34.8047 0 33.3352 0ZM10.6805 29.8252H5.33672V13.1182H10.6805V29.8252ZM8.00859 10.8418C6.29297 10.8418 4.90781 9.49512 4.90781 7.83398C4.90781 6.17285 6.29297 4.82617 8.00859 4.82617C9.71719 4.82617 11.1023 6.17285 11.1023 7.83398C11.1023 9.48828 9.71719 10.8418 8.00859 10.8418ZM30.6773 29.8252H25.3406V21.7041C25.3406 19.7695 25.3055 17.2744 22.5633 17.2744C19.7859 17.2744 19.3641 19.3867 19.3641 21.5674V29.8252H14.0344V13.1182H19.1531V15.4014H19.2234C19.9336 14.0889 21.6773 12.7012 24.2719 12.7012C29.6789 12.7012 30.6773 16.1602 30.6773 20.6582V29.8252Z" fill="white"/>
</g>
<defs>
<clipPath id="clip0_26_172">
<rect width="36" height="35" fill="white"/>
</clipPath>
</defs>
</svg>
