<svg width="36" height="35" viewBox="0 0 36 35" fill="none" xmlns="http://www.w3.org/2000/svg">
<path d="M0 35L2.53049 26.0123C0.968998 23.3815 0.1485 20.3992 0.15 17.341C0.1545 7.78021 8.15698 0 17.9895 0C22.761 0.00145833 27.2399 1.80833 30.6089 5.08667C33.9764 8.365 35.8304 12.7225 35.8289 17.3571C35.8244 26.9194 27.8219 34.6996 17.9895 34.6996C15.0045 34.6981 12.063 33.9704 9.45748 32.5879L0 35ZM9.89548 29.4481C12.4095 30.8992 14.8095 31.7683 17.9835 31.7698C26.1554 31.7698 32.8124 25.3035 32.8169 17.3542C32.8199 9.38875 26.1944 2.93125 17.9955 2.92833C9.81748 2.92833 3.16499 9.39458 3.16199 17.3425C3.16049 20.5873 4.13849 23.0169 5.78099 25.5588L4.28249 30.8787L9.89548 29.4481ZM26.9759 21.4798C26.8649 21.299 26.5679 21.191 26.1209 20.9738C25.6754 20.7565 23.4839 19.7079 23.0744 19.5635C22.6664 19.4192 22.3694 19.3463 22.071 19.7808C21.774 20.214 20.919 21.191 20.6595 21.4798C20.4 21.7685 20.139 21.805 19.6935 21.5877C19.248 21.3704 17.811 20.914 16.1085 19.4367C14.784 18.2875 13.8885 16.8685 13.629 16.434C13.3695 16.0008 13.602 15.766 13.824 15.5502C14.025 15.3563 14.2695 15.0442 14.493 14.7904C14.7195 14.5396 14.793 14.3588 14.943 14.0685C15.0915 13.7798 15.018 13.526 14.9055 13.3088C14.793 13.0929 13.902 10.9594 13.5315 10.0917C13.1685 9.24729 12.801 9.36104 12.528 9.34792L11.673 9.33333C11.376 9.33333 10.893 9.44125 10.485 9.87583C10.077 10.3104 8.92498 11.3575 8.92498 13.491C8.92498 15.6246 10.5225 17.6852 10.7445 17.974C10.968 18.2627 13.887 22.6406 18.3585 24.5175C19.422 24.9638 20.253 25.2306 20.8995 25.4304C21.9675 25.76 22.9394 25.7133 23.7074 25.6025C24.5639 25.4785 26.3444 24.554 26.7164 23.5419C27.0884 22.5283 27.0884 21.6606 26.9759 21.4798Z" fill="white"/>
</svg>
