<svg xmlns="http://www.w3.org/2000/svg" xmlns:xlink="http://www.w3.org/1999/xlink" viewBox="0 0 1072.25 1253.25"><defs><style>.cls-1{fill:#8bceac;}.cls-2{fill:none;stroke-miterlimit:10;stroke:url(#linear-gradient);}.cls-3{fill:#3b4da1;}.cls-4{fill:#77ccc9;}.cls-5{fill:#ffe164;}.cls-6{fill:#eeaccd;}.cls-7{fill:url(#linear-gradient-2);}.cls-8{fill:url(#linear-gradient-3);}.cls-9{fill:url(#linear-gradient-4);}.cls-10{fill:url(#linear-gradient-5);}.cls-11{fill:url(#linear-gradient-6);}.cls-12{fill:url(#linear-gradient-7);}.cls-13{fill:url(#linear-gradient-8);}.cls-14{fill:url(#linear-gradient-9);}.cls-15{fill:url(#linear-gradient-10);}.cls-16{fill:url(#linear-gradient-11);}.cls-17{fill:url(#linear-gradient-12);}.cls-18{fill:url(#linear-gradient-13);}.cls-19{fill:url(#linear-gradient-14);}.cls-20{fill:url(#linear-gradient-15);}.cls-21{fill:url(#linear-gradient-16);}.cls-22{fill:url(#linear-gradient-17);}.cls-23{fill:url(#linear-gradient-18);}.cls-24{fill:url(#linear-gradient-19);}.cls-25{fill:url(#linear-gradient-20);}.cls-26{fill:url(#linear-gradient-21);}.cls-27{fill:url(#linear-gradient-22);}.cls-28{fill:url(#linear-gradient-23);}.cls-29{fill:url(#linear-gradient-24);}.cls-30{fill:url(#linear-gradient-25);}.cls-31{fill:url(#linear-gradient-26);}.cls-32{fill:url(#linear-gradient-27);}.cls-33{fill:url(#linear-gradient-28);}.cls-34{fill:url(#linear-gradient-29);}.cls-35{fill:url(#linear-gradient-30);}.cls-36{fill:url(#linear-gradient-31);}.cls-37{fill:url(#linear-gradient-32);}.cls-38{fill:url(#linear-gradient-33);}.cls-39{fill:url(#linear-gradient-34);}.cls-40{fill:url(#linear-gradient-35);}.cls-41{fill:url(#linear-gradient-36);}.cls-42{fill:url(#linear-gradient-37);}</style><linearGradient id="linear-gradient" x1="535.68" y1="456.99" x2="537.23" y2="508.78" gradientUnits="userSpaceOnUse"><stop offset="0" stop-color="#00b05a"/><stop offset="0.58" stop-color="#00bbf2"/><stop offset="1" stop-color="#486fb6"/></linearGradient><linearGradient id="linear-gradient-2" x1="580.76" y1="171.72" x2="615.67" y2="1332.9" gradientTransform="translate(-127.2 151.14) rotate(-13.21)" xlink:href="#linear-gradient"/><linearGradient id="linear-gradient-3" x1="637.6" y1="170.01" x2="672.51" y2="1331.19" gradientTransform="translate(-127.2 151.14) rotate(-13.21)" xlink:href="#linear-gradient"/><linearGradient id="linear-gradient-4" x1="643.68" y1="169.82" x2="678.59" y2="1331.01" gradientTransform="translate(-127.2 151.14) rotate(-13.21)" xlink:href="#linear-gradient"/><linearGradient id="linear-gradient-5" x1="635.85" y1="170.06" x2="670.76" y2="1331.24" gradientTransform="translate(-127.2 151.14) rotate(-13.21)" xlink:href="#linear-gradient"/><linearGradient id="linear-gradient-6" x1="568.02" y1="172.1" x2="602.93" y2="1333.28" gradientTransform="translate(-127.2 151.14) rotate(-13.21)" xlink:href="#linear-gradient"/><linearGradient id="linear-gradient-7" x1="565.89" y1="172.16" x2="600.8" y2="1333.35" gradientTransform="translate(-127.2 151.14) rotate(-13.21)" xlink:href="#linear-gradient"/><linearGradient id="linear-gradient-8" x1="585.98" y1="171.56" x2="620.89" y2="1332.74" gradientTransform="translate(-127.2 151.14) rotate(-13.21)" xlink:href="#linear-gradient"/><linearGradient id="linear-gradient-9" x1="607.94" y1="170.9" x2="642.85" y2="1332.08" gradientTransform="translate(-127.2 151.14) rotate(-13.21)" xlink:href="#linear-gradient"/><linearGradient id="linear-gradient-10" x1="553.38" y1="172.54" x2="588.29" y2="1333.72" gradientTransform="translate(-127.2 151.14) rotate(-13.21)" xlink:href="#linear-gradient"/><linearGradient id="linear-gradient-11" x1="590.51" y1="171.42" x2="625.43" y2="1332.61" gradientTransform="translate(-127.2 151.14) rotate(-13.21)" xlink:href="#linear-gradient"/><linearGradient id="linear-gradient-12" x1="594.08" y1="171.32" x2="628.99" y2="1332.5" gradientTransform="translate(-127.2 151.14) rotate(-13.21)" xlink:href="#linear-gradient"/><linearGradient id="linear-gradient-13" x1="666.74" y1="169.13" x2="701.65" y2="1330.31" gradientTransform="translate(-127.2 151.14) rotate(-13.21)" xlink:href="#linear-gradient"/><linearGradient id="linear-gradient-14" x1="575.05" y1="171.89" x2="609.96" y2="1333.07" gradientTransform="translate(-127.2 151.14) rotate(-13.21)" xlink:href="#linear-gradient"/><linearGradient id="linear-gradient-15" x1="566.82" y1="172.14" x2="601.74" y2="1333.32" gradientTransform="translate(-127.2 151.14) rotate(-13.21)" xlink:href="#linear-gradient"/><linearGradient id="linear-gradient-16" x1="707.25" y1="167.91" x2="742.17" y2="1329.1" gradientTransform="translate(-127.2 151.14) rotate(-13.21)" xlink:href="#linear-gradient"/><linearGradient id="linear-gradient-17" x1="702.76" y1="168.05" x2="737.67" y2="1329.23" gradientTransform="translate(-127.2 151.14) rotate(-13.21)" xlink:href="#linear-gradient"/><linearGradient id="linear-gradient-18" x1="690.81" y1="168.41" x2="725.72" y2="1329.59" gradientTransform="translate(-127.2 151.14) rotate(-13.21)" xlink:href="#linear-gradient"/><linearGradient id="linear-gradient-19" x1="579.33" y1="171.76" x2="614.24" y2="1332.94" gradientTransform="matrix(1.02, -0.24, 0.23, 0.97, -149.25, 156.31)" xlink:href="#linear-gradient"/><linearGradient id="linear-gradient-20" x1="590.62" y1="171.42" x2="625.53" y2="1332.6" gradientTransform="translate(-127.2 151.14) rotate(-13.21)" xlink:href="#linear-gradient"/><linearGradient id="linear-gradient-21" x1="938.7" y1="182.15" x2="950.84" y2="1244.67" gradientTransform="translate(-168.07 153.19) rotate(-13.21)" xlink:href="#linear-gradient"/><linearGradient id="linear-gradient-22" x1="106.12" y1="104.5" x2="122.02" y2="1496.06" gradientTransform="translate(-168.07 153.19) rotate(-13.21)" xlink:href="#linear-gradient"/><linearGradient id="linear-gradient-23" x1="696.75" y1="25.99" x2="711.94" y2="1354.29" gradientTransform="translate(-168.07 153.19) rotate(-13.21)" xlink:href="#linear-gradient"/><linearGradient id="linear-gradient-24" x1="440.59" y1="196.56" x2="452.73" y2="1259.08" gradientTransform="translate(-168.07 153.19) rotate(-13.21)" xlink:href="#linear-gradient"/><linearGradient id="linear-gradient-25" x1="778.09" y1="-68.48" x2="793.47" y2="1277.36" gradientTransform="translate(-168.07 153.19) rotate(-13.21)" xlink:href="#linear-gradient"/><linearGradient id="linear-gradient-26" x1="546.55" y1="195.35" x2="558.69" y2="1257.87" gradientTransform="translate(-168.07 153.19) rotate(-13.21)" xlink:href="#linear-gradient"/><linearGradient id="linear-gradient-27" x1="93.41" y1="112.28" x2="109.31" y2="1503.84" gradientTransform="translate(-168.07 153.19) rotate(-13.21)" xlink:href="#linear-gradient"/><linearGradient id="linear-gradient-28" x1="646.72" y1="194.21" x2="658.87" y2="1256.73" gradientTransform="translate(-168.07 153.19) rotate(-13.21)" xlink:href="#linear-gradient"/><linearGradient id="linear-gradient-29" x1="844.36" y1="215.26" x2="856.5" y2="1277.78" gradientTransform="translate(-168.07 153.19) rotate(-13.21)" xlink:href="#linear-gradient"/><linearGradient id="linear-gradient-30" x1="99.39" y1="201.09" x2="111.53" y2="1263.61" gradientTransform="translate(-168.07 153.19) rotate(-13.21)" xlink:href="#linear-gradient"/><linearGradient id="linear-gradient-31" x1="196.28" y1="199.36" x2="208.42" y2="1261.87" gradientTransform="translate(-168.07 153.19) rotate(-13.21)" xlink:href="#linear-gradient"/><linearGradient id="linear-gradient-32" x1="675.58" y1="266.33" x2="689.84" y2="1514.07" gradientTransform="translate(-168.07 153.19) rotate(-13.21)" xlink:href="#linear-gradient"/><linearGradient id="linear-gradient-33" x1="796.79" y1="-232.44" x2="817.96" y2="1619.77" gradientTransform="translate(-168.07 153.19) rotate(-13.21)" gradientUnits="userSpaceOnUse"><stop offset="0" stop-color="#00b05a"/><stop offset="0.58" stop-color="#387cc0"/><stop offset="1" stop-color="#486fb6"/></linearGradient><linearGradient id="linear-gradient-34" x1="899.01" y1="51.23" x2="915.36" y2="1481.87" gradientTransform="translate(-168.07 153.19) rotate(-13.21)" xlink:href="#linear-gradient"/><linearGradient id="linear-gradient-35" x1="830.95" y1="215.41" x2="843.09" y2="1277.93" gradientTransform="translate(-168.07 153.19) rotate(-13.21)" xlink:href="#linear-gradient"/><linearGradient id="linear-gradient-36" x1="862.09" y1="-427.79" x2="898.06" y2="2719.97" gradientTransform="translate(-168.07 153.19) rotate(-13.21)" xlink:href="#linear-gradient"/><linearGradient id="linear-gradient-37" x1="846.01" y1="204.34" x2="858.15" y2="1266.86" gradientTransform="translate(-168.07 153.19) rotate(-13.21)" xlink:href="#linear-gradient"/></defs><g id="Layer_5" data-name="Layer 5"><path class="cls-1" d="M540.4,399.61l-33.94-38.45s-2.23-8.07-.71-8.48a22.27,22.27,0,0,1,3.68-.51l.08-4.85,17.16,16.77,21.87,24.21,2.7,4.81S542.35,395.16,540.4,399.61Z" transform="translate(-40.87 2.05)"/><path class="cls-1" d="M587.47,432.42l106.1,113.22a12.09,12.09,0,0,0-6.45,3.37,10.53,10.53,0,0,0-3.12,5.93L660.87,531l-49.34-54.9-20.42-21.83Z" transform="translate(-40.87 2.05)"/><path class="cls-2" d="M558.56,491.42s-5-.9-6.79-3.86-.85-3-.85-3L541,486.66s-7.09,14.4-10.58,18.09-7.56,4.69-11,3.49-6.23-2.13-5.75-4.17,3.75-10.69,4.31-12.75,3.22-15.41,3.22-15.41,9.57-3.55,12.76-6.71,7.39-7.17,7.39-7.17,12.45-5.46,13.69-5.1a27.94,27.94,0,0,1,4,2S560.81,483.26,558.56,491.42Z" transform="translate(-40.87 2.05)"/><path class="cls-3" d="M231.41,979.89s40.58,42.92,109.82,74.63,137.5,35.91,137.5,35.91-31.42,56.09-100.61,74.58-120.65-24.13-138.33-39.47-32.76-46.26-27.59-84.19S231.41,979.89,231.41,979.89Z" transform="translate(-40.87 2.05)"/><path class="cls-4" d="M979.53,1226.05s103-86.7,44.72-191.1S776.9,929.33,713.86,1004.68,855.5,1330.62,979.53,1226.05Z" transform="translate(-40.87 2.05)"/><path class="cls-5" d="M705.74-.06a191.87,191.87,0,0,0-5.1,44.1c0,105.85,85.81,191.66,191.66,191.66S1084,149.89,1084,44A192.3,192.3,0,0,0,1078.38-2L707-1.24Z" transform="translate(-40.87 2.05)"/><path class="cls-6" d="M71.24,324.24s96-69.33,186.7,1.25S287.85,512.34,231.23,526c-84.84,20.48-119.65-64.63-77.83-120.34s-27.47-46.41-64.66-16.44S11.86,359.6,71.24,324.24Z" transform="translate(-40.87 2.05)"/></g><g id="Layer_4" data-name="Layer 4"><path class="cls-7" d="M575.35,722.36l-2.68.51c-5.41-28.46-10.75-50.72-15.87-66.17-4.3-13-7.15-22-9.24-28.63-4.8-15.23-5.19-16.47-9.32-21.46-5.16-6.24-10.22-15.64-3.38-33.14,2.28-5.85,4.2-10.55,5.74-14.33a133.78,133.78,0,0,0,5-13.31,25.8,25.8,0,0,0,.38-6,78.53,78.53,0,0,1,5.7-31.23c7.33-19,9.3-33,6.58-47-1.51-7.78-4.6-12.37-8.16-17.68a86.27,86.27,0,0,1-6.77-11.4c-5-10.43-10.76-25.39-3.25-34.85,2.87-3.61,6.47-5.53,10.4-5.55,5.65,0,11.74,3.81,17.59,11.06,3.43,4.25,6.45,7.44,9.12,10.26,4.76,5,8.2,8.65,9.78,14.08.73,2.51,1.36,6.13,2.09,10.33,1.6,9.18,3.59,20.62,7.62,25.48,2,2.38,4,4.37,5.91,6.3,4,4,7.5,7.45,8.24,12.28l-2.7.41c-.6-3.94-3.63-6.95-7.46-10.76-1.89-1.88-4-4-6.09-6.49-4.49-5.42-6.55-17.25-8.2-26.75-.72-4.12-1.34-7.67-2-10-1.4-4.79-4.48-8-9.14-13-2.7-2.85-5.76-6.09-9.26-10.41-5.32-6.59-10.66-10.07-15.46-10.05-3.11,0-5.9,1.53-8.28,4.52-5,6.28-3.85,16.44,3.58,32a83.73,83.73,0,0,0,6.57,11.06c3.58,5.33,7,10.36,8.58,18.68,2.82,14.47.81,29-6.71,48.48a75.87,75.87,0,0,0-5.52,30.25,27.36,27.36,0,0,1-.48,6.69,136.72,136.72,0,0,1-5.11,13.62c-1.54,3.77-3.45,8.47-5.73,14.29-6.27,16.08-2,24.4,3,30.41,4.47,5.4,5,7,9.82,22.38,2.08,6.59,4.93,15.61,9.23,28.59C564.55,671.4,569.92,693.78,575.35,722.36Z" transform="translate(-40.87 2.05)"/><path class="cls-8" d="M621.89,600.7c-.2-.8-.38-1.58-.56-2.32-6.16-26,8.66-53.58,23-77.35q1.64-2.7,3.13-5.2l2.34,1.4q-1.5,2.5-3.13,5.21c-14.1,23.31-28.64,50.28-22.72,75.31.18.74.36,1.5.56,2.3Z" transform="translate(-40.87 2.05)"/><path class="cls-9" d="M657,505l-2.36-1.36c6.29-11,10-18.28,11.31-22.36,1.72-5.29-3-14.95-9.89-28-7.7-14.64-15.13-41-16.54-46.16-2.36-8.6-8.36-12.82-21.38-15.07A67.67,67.67,0,0,1,600.2,386c-3.75-1.75-7-3.26-10.09-3.49-2.84-.22-7.42-.52-12.26-.83-7.6-.5-16.21-1.05-20.37-1.45-7.46-.7-7.75-.46-8.05,1.94-.37,2.88,2.56,8.8,3.72,10.83l-2.37,1.35c-.47-.83-4.61-8.23-4.06-12.53.68-5.28,4.35-4.93,11-4.3,4.11.39,12.7.95,20.28,1.44,4.86.31,9.44.61,12.3.83,3.59.27,7,1.88,11,3.74,4.69,2.17,10,4.64,17.25,5.89,14.07,2.43,20.89,7.37,23.55,17,1.4,5.09,8.76,31.22,16.32,45.61,7.42,14.09,12.12,23.8,10.08,30.12C667.15,486.46,663.48,493.73,657,505Z" transform="translate(-40.87 2.05)"/><path class="cls-10" d="M609.73,453.89l-1.08-1.47a39.48,39.48,0,0,1,15-6.92,14.69,14.69,0,0,1-6.1-4c-4.88-5.47-8.27-19-8.41-19.54l0-.09v-.09h0s-.29-1.85-4.56-3.43c-4.82-1.8-16-8.76-17.64-9.75-.31,0-1.11,0-3.11,0-4.11.08-18.75-6.09-19.37-6.35l.71-1.68c4.13,1.75,15.53,6.27,18.62,6.21,3.42-.06,4.13-.07,4.32.38,2.1,1.3,12.68,7.8,17.11,9.45,5,1.87,5.65,4.32,5.73,4.94.25,1,3.56,13.75,8,18.71,3,3.33,7.54,4.25,10.24,4.5a17,17,0,0,1,2.39.08l-.06,1.81a18.29,18.29,0,0,1-2.33,0C625.55,446.77,618,447.83,609.73,453.89Z" transform="translate(-40.87 2.05)"/><path class="cls-11" d="M536.28,435.87a29.94,29.94,0,0,1-10.4.64c-6.48-.78-10.49-5.17-11.1-9.11a6.29,6.29,0,0,1,3.89-6.93c6.77-3.09,17.84-11.31,18-11.4l1.09,1.46c-.46.34-11.34,8.42-18.29,11.6a4.44,4.44,0,0,0-2.84,5c.5,3.26,3.94,6.91,9.52,7.59a30.9,30.9,0,0,0,17.18-3.38l.91,1.57A31.2,31.2,0,0,1,536.28,435.87Z" transform="translate(-40.87 2.05)"/><path class="cls-12" d="M524.46,475.43a8.2,8.2,0,0,1-8-2c-3.31-3.26-3.62-9.08-.73-13.82,5.51-9,14.2-23.35,14.2-23.35l.78.47s-8.69,14.3-14.2,23.35c-2.67,4.39-2.43,9.73.59,12.7,2.72,2.69,7,2.63,11.38-.14,7.28-4.57,11.13-10.3,13.68-14.09,1.38-2.06,2.29-3.41,3.24-3.86,2.5-1.19,10.81-2.74,11.17-2.8l.16.89c-.08,0-8.55,1.59-10.94,2.73-.72.34-1.67,1.75-2.88,3.55-2.59,3.85-6.51,9.68-14,14.35A15.25,15.25,0,0,1,524.46,475.43Z" transform="translate(-40.87 2.05)"/><path class="cls-13" d="M547.4,416.29c-.36-.2-8.81-5-9.64-11.12l.9-.12c.77,5.64,9.11,10.4,9.19,10.45Z" transform="translate(-40.87 2.05)"/><path class="cls-14" d="M566.34,409.45c-1.78-4.15-4.87-10.67-6.14-11.56l.52-.74c1.89,1.33,6,10.86,6.45,12Z" transform="translate(-40.87 2.05)"/><path class="cls-15" d="M522,464.54a28.48,28.48,0,0,1-7.25.51l.06-.9c.07,0,7.33.41,9.73-1.69s4-9,4-9.12l.89.19c-.07.3-1.63,7.3-4.28,9.62A7.45,7.45,0,0,1,522,464.54Z" transform="translate(-40.87 2.05)"/><path class="cls-16" d="M563.48,555.44a8.53,8.53,0,0,1-6.79-1.47c-6.41-4.34-9.41-15-8-28.45l.9.1c-1.58,15.46,2.91,24.4,7.64,27.6a7.33,7.33,0,0,0,7.65.75c3.38-1.78,5.35-6.23,5.41-12.21.2-21.17,14.63-29.58,15.57-30.1,11-9.4,10.93-22-.36-41-7.45-12.5-14.18-26.8-17.32-36.07a28,28,0,0,1-7.82,1.5c-1.42,0-2.27-.33-2.59-1a1.82,1.82,0,0,1,.42-1.87c1.35-1.83,4.55-3.72,8.25-5.26a6,6,0,0,1,0-2.5c.42-1.28,1.91-2.21,4.1-2.55,2.68-.41,6.2.1,7.73,1.85a16.6,16.6,0,0,1,1.67-.09c2.07,0,3.44.42,4.08,1.29,2.7,3.61,6.52,24,6.68,24.86l-.9.17c0-.21-3.94-21.05-6.5-24.49-.46-.61-1.62-.93-3.35-.92-.37,0-.75,0-1.15,0a3.1,3.1,0,0,1-.28,2.72c-1.24,2.37-5.33,4.52-9.51,5.94,3,8.82,9.41,22.74,17.25,35.88,11.57,19.4,11.61,32.4.14,42.14l-.09,0c-.15.08-14.93,8.13-15.13,29.34-.06,6.33-2.21,11.07-5.9,13A7.31,7.31,0,0,1,563.48,555.44Zm3.07-126.51c-3.45,1.45-6.4,3.21-7.66,4.91-.3.41-.42.75-.33.93s.63.45,1.78.46a26.53,26.53,0,0,0,7.53-1.43A44.46,44.46,0,0,1,566.55,428.93Zm.84-.35a38.83,38.83,0,0,0,1.33,4.94c4-1.39,7.9-3.45,9-5.52a2.21,2.21,0,0,0,.12-2.21A44.31,44.31,0,0,0,567.39,428.58ZM570,424c-1.45.34-2.44,1-2.7,1.8a4.63,4.63,0,0,0,0,1.88,46,46,0,0,1,9.82-2.72c-1.48-1.07-4.26-1.42-6.4-1.09Z" transform="translate(-40.87 2.05)"/><path class="cls-17" d="M576.21,581.31c-7.72,1.81-14.16-.81-18.66-7.6-15.17-22.92-8.53-53.43-8.46-53.74l1.78.4c-.07.3-6.54,30.08,8.2,52.34,4.14,6.25,10.13,8.57,17.26,6.7,14.52-3.79,32-24.75,33.67-47.11,2.45-33,1.18-48.34-4.68-56.45l1.47-1.07c6.22,8.62,7.54,23.71,5,57.65-1.71,23.11-19.9,44.79-35,48.74Z" transform="translate(-40.87 2.05)"/><path class="cls-18" d="M710,580.74a4,4,0,0,1-2.15-.06C704.36,579.55,609.23,475,590.19,454l1.35-1.22c31.2,34.34,113,124,117,126.16,1,.32,2.29-.46,3-1,2.14-1.63,3.89-4.64,3.87-6.64-2.68-5.52-95.1-103.24-130.64-140.59l1.32-1.26c.32.35,33.06,34.76,65.39,69.17,65.64,69.87,65.71,71.64,65.75,72.49.1,2.61-1.91,6.24-4.59,8.27A6.91,6.91,0,0,1,710,580.74Z" transform="translate(-40.87 2.05)"/><path class="cls-19" d="M539.62,400.38c-1.33-1.46-32.59-35.89-35.17-39.74-1.41-2.1-6.37-9.65-10.81-16.6-9.1-14.22-8.94-14.56-8.65-15.19l.19-.41.48-.12c.55-.11,1.12-.24,12.15,8.42,5.45,4.27,11.71,9.35,14.25,11.55,4.86,4.22,37.41,39.69,38.8,41.19l-1.34,1.23c-.34-.37-33.87-36.89-38.65-41-4.35-3.78-17.41-14.21-22.87-18.1,3.82,6.51,14.88,23.48,18,28.07,2.5,3.74,34.68,39.17,35,39.53Z" transform="translate(-40.87 2.05)"/><path class="cls-20" d="M507.08,361.86l-.89.2c-1.38-6.11-1.79-9.47-1.23-10,.4-.36,1.16-.33,2.36-.25a5.2,5.2,0,0,0,1.91-.05l-.05-.06c-.36-2.36-.45-3.82.11-4.34a.72.72,0,0,1,.69-.18l-.2.88a.13.13,0,0,0,.13-.05c-.14.19-.22,1,.17,3.55l0,.11a.83.83,0,0,1-.21.71c-.45.49-1.46.42-2.63.34a6.92,6.92,0,0,0-1.65,0C505.42,353.53,506.19,357.94,507.08,361.86Z" transform="translate(-40.87 2.05)"/><path class="cls-21" d="M709.44,580.32a2,2,0,0,1-1.56-.13.82.82,0,0,1-.35-.84c.28-2,7.15-8.12,8.55-8.56a.91.91,0,0,1,1,.19c.65.67.1,2.54-.17,3.32l0,.11C715,577.09,711.67,579.8,709.44,580.32Zm-1-.86c1.07.52,5.2-2,7.61-5.51a5.06,5.06,0,0,0,.37-2.31l-.06,0C715,572.09,708.47,578.24,708.43,579.46Z" transform="translate(-40.87 2.05)"/><path class="cls-22" d="M702.56,573.72l-1.8-.2c.88-7.74,9.79-10.2,10.16-10.3l.47,1.75C711.31,565,703.3,567.23,702.56,573.72Z" transform="translate(-40.87 2.05)"/><path class="cls-23" d="M684.26,554.88l-.9-.09c0-.07.81-7.22,10.4-9.67l.23.88C685,548.29,684.29,554.61,684.26,554.88Z" transform="translate(-40.87 2.05)"/><path class="cls-24" d="M871.43,1129.24a200.49,200.49,0,0,1-22.17,4c-14,1.66-31.82,1.8-37.1-6.93-2.85-4.72-1.41-11,4.28-18.57,28.17-37.66,35.78-87.15,16.62-108.07-.36-.4-.73-.78-1.11-1.15q-12.08,8.58-25,16.63a534.47,534.47,0,0,1-197.09,73.49,500.35,500.35,0,0,1-130,3.84c-13.76,18.53-29.18,34.59-45.36,47-35.42,27.11-92.55,50.9-163.49,10.33-34.05-19.48-53.73-43-60.15-71.77-6.77-30.33,2.36-63.49,18.77-97a424.85,424.85,0,0,1-47.4-54.06c-47-63.67-76.57-140.36-83.2-216-5-56.83,3.26-111.21,23.83-157.24,22.45-50.22,58.29-89.33,106.52-116.24,28.29-15.79,52.61-23.86,72.3-24,18-.13,31.79,6.27,40.92,19,14.58,20.33,15.65,56.31,2.86,96.25a230.51,230.51,0,0,1-38,72c2.59,29.28,8.78,57.67,27.39,70.12,11.54,7.71,27.34,8.57,47,2.56,13.22-4,23.47-8.41,31.4-12.82-4.32-3-8.62-5.76-12.77-8.48C381.94,640,367.33,630.4,366.3,619c-.47-5.19,1.9-10.26,7.25-15.5,13.7-13.42,32.47-12.37,45.48-6.91,15.69,6.58,25.22,19.5,24.27,32.92C442.77,637,438.5,649,420,660.76c24.92,17.64,50.83,41.38,53.13,77.93,1.32,21-8.4,44.07-27.38,65C427.29,824,402,840.41,374.43,850c-20.9,7.28-42,10.22-61.91,8.75-5.31,7.73-10.82,15.59-16.4,23.55-21.9,31.23-45.24,64.52-61.7,97.38,41.83,39.64,91.41,70.28,145.64,87.92a486.87,486.87,0,0,0,98,21,303.8,303.8,0,0,0,32.25-56.06c-22.64-7.39-41-18.34-54.12-32.56-19.79-21.46-24-47.54-11.44-71.55,11.13-21.34,33.55-35.91,53.32-34.66,15.84,1,27.86,11.78,33.86,30.35,7.5,23.25,1.42,63.3-15.88,104.52l-.69,1.64c24.37,7.37,53.61,10.7,86.48,9.61,57-1.87,119.8-17.55,163.94-40.91,28.62-15.14,52-16.91,66.46-5.2,75.33-54.26,125-123.39,131.8-185.51a174.61,174.61,0,0,0-.81-46.12,209.41,209.41,0,0,0-21.16-1.69c-38.89-1.13-73.31,8.54-96.92,27.22-16.77,13.28-26.44,25-31.64,35.07,24.14,3.77,44.13,10.23,58.72,19.18,13.57,8.32,20,21.07,15.63,31-4.64,10.54-19.72,14.33-40.34,10.13l-4.39-.76C827.69,879,809.69,869,805.37,850.5c-1.51-6.45-1.47-14.8,2.72-24.83-21.19-2.92-45.48-3.83-72.07-2.6a79.86,79.86,0,0,1-22.86-2c-1.08,48.89-20.51,117.9-63.65,131a32.55,32.55,0,0,1-25.29-2.09c-24.6-12.84-39.06-56.24-50.32-95.83-.88,0-1.78,0-2.69-.05-25.1-1.41-35.39-12.67-39.61-21.87-6.39-13.95-2.37-30.34,4.9-39.31,4.27-5.27,9.38-7.73,14.41-7,7.94,1.25,13.16,18.75,22.44,52.18,1.1,3.93,2.23,8,3.4,12.17,21.9-2.52,32-29.32,37.79-57.62l-.61.05c-28,2.09-40-68.92-40.49-72l3.74-.63c3.24,19.69,16.12,70.47,36.53,68.94.53,0,1-.09,1.57-.17,2.13-11.23,3.63-22.55,5-32.53,3.09-23.35,4.82-34.65,10.15-36.26,2-.6,4.15.3,6.3,2.72,10.73,12,12.88,30.63,5.48,47.33-5.09,11.5-13.72,19.36-23.64,21.81-5.67,28.52-15.67,56.14-37.6,61.29a31.86,31.86,0,0,1-3.15.58c10.72,37.47,25.26,80.86,48.31,92.88,7,3.67,14.32,4.27,22.35,1.84,24.89-7.56,39.56-34.49,47.49-55.76A227.06,227.06,0,0,0,709.41,820c-12.23-3.82-21.68-10.94-26.91-20.72-4.85-9.09-4.92-19.22-.17-25.21,3.39-4.28,8.7-6,15-4.75,9.14,1.78,14.9,16.7,15.79,41,.09,2.27.12,4.6.12,7a75.47,75.47,0,0,0,22.7,2.17c27.21-1.26,52.08-.29,73.76,2.79,5.33-10.75,15.42-23.27,33.14-37.29,24.33-19.26,59.66-29.23,99.47-28.07,6.81.19,13.61.71,20.34,1.53-7.75-43.1-31.69-74.52-55.43-95.94-11.69,10.3-26.28,17-43.89,20.34-43.89,8.24-64.45-6.53-74-20.38-7.78-11.31-11.08-26.07-9.54-42.66a93.79,93.79,0,0,1,15.65-43.55c13.77-20.14,32.94-29.89,52.58-26.75,21.33,3.42,25.24,12.7,24.76,19.88-.93,13.87-18.23,28.73-25.63,34.47a132.79,132.79,0,0,1-15.42,10.35,198.08,198.08,0,0,1,36.09,15.7,227,227,0,0,1,39.34,27.54c11.07-10.68,19.25-25,24.68-43,9.93-33,9.76-73.77,9.6-113.22,0-4.78,0-9.55,0-14.27C879,464.07,812.88,391.7,764.55,337.66a174.45,174.45,0,0,1-34-11.87c-26.65-12.72-41.31-29.37-40.21-45.68.38-5.7,2.12-9,5.33-10.07,9.91-3.34,29.69,18.15,66.73,59.61l4.26,4.76c35.66,8.36,75.35,6.57,98.48-12,20.48-16.45,25.64-44.49,14.93-81.06-22.86-78-91.37-111.88-144.83-126.54-58.15-16-111.6-13.3-112.13-13.27-68.5,4.78-114.1,24.35-140.28,39.92a189,189,0,0,0-30.64,22.44,33.15,33.15,0,0,1,1.28,13.1c-1,11.84-7.69,26.43-19.93,30.49-4.81,1.6-7.39.35-8.71-1-2.51-2.53-2.43-7.41.2-13.75,3.29-7.93,10.68-18.53,22.73-29.83a14.79,14.79,0,0,0-7-7.48c-10.42-5-28.36,2.18-50.53,20.29-23.41,19.14-44.7,44.44-58.41,69.43-12,21.93-16.31,40.22-10.9,46.6,4.88,5.76,18.54.73,37.47-13.78,52.56-40.31,124.73-61.54,160.86-47.33,12.07,4.74,19.08,13.27,20.29,24.66,1.84,17.41-14.58,35-45.05,48.28a186.38,186.38,0,0,1-23.6,8.36,128.06,128.06,0,0,1,12.34,11.47l-2.86,2.44a129.21,129.21,0,0,0-14-12.71c-16.92,4.27-32.14,5.34-36.5.61-1-1.09-2.35-3.51,0-7.36,2.84-4.55,6.77-7.11,11.67-7.61,8.19-.82,17.8,4.49,25.72,10.38A176.73,176.73,0,0,0,493,300.27c13.65-5.95,45.15-22.2,42.79-44.53-1.07-10.14-7.13-17.45-18-21.72-30.53-12-99.26,2.47-157,46.78-27.05,20.74-38.17,18.68-42.74,13.29-6.56-7.73-2.63-26.64,10.51-50.59,13.93-25.4,35.56-51.1,59.33-70.54,30-24.52,46.31-24.84,54.7-20.79a18,18,0,0,1,8.15,8.08,195.72,195.72,0,0,1,30.21-21.89C507.45,122.57,553.65,102.73,623,97.9c.57,0,54.56-2.72,113.31,13.37,34.56,9.47,64,23.49,87.53,41.67,29.46,22.78,49.63,52.17,59.93,87.34,14.09,48.11-1,72.72-16.17,84.9-19.39,15.56-46.37,18.16-65.6,17.6a182,182,0,0,1-31.11-3.71C818.26,392,881.83,460.59,941.42,483c.13-53.71,3.4-101.64,37.91-116.37,24-10.23,47.85-7.42,65.52,7.71A64.35,64.35,0,0,1,1064,442.51c-5.19,15.84-21.73,43.5-74.23,50.77-14.4,2-29.36,0-44.57-5.1,0,4.26,0,8.56,0,12.87.16,39.7.33,80.75-9.75,114.26C929.87,634,921.41,648.79,910,659.88a193.66,193.66,0,0,1,30.65,35.21,163.54,163.54,0,0,1,25.9,63.8c30.45,4.26,59.56,14.75,83.82,30.43,25.67,16.59,44.46,38.38,54.35,63,11.28,28.08,11.26,59.35-.06,92.94C1069.79,1048.7,945.15,1111.93,871.43,1129.24ZM835.05,996.33c.29.3.58.6.87.92,9.9,10.81,13.61,28.6,10.45,50.09s-12.7,43.56-26.88,62.51c-3.24,4.34-6.58,10.4-4,14.6,3.27,5.42,15.46,7.32,33.42,5.2,66.73-7.89,214.05-72.29,252.15-185.43,20.69-61.43,1.43-116.78-52.84-151.86-23.09-14.93-51.67-25.28-81.05-29.63a177.82,177.82,0,0,1,.71,45.9C960.9,871.59,910.91,941.51,835.05,996.33ZM232.44,983.7c-15.72,32.48-24.38,64.45-17.9,93.5,6.2,27.79,25.31,50.51,58.43,69.46,69.1,39.51,124.71,16.36,159.19-10,15.44-11.81,30.17-27,43.41-44.6a487.41,487.41,0,0,1-96.78-21C324.44,1053.39,274.82,1023.65,232.44,983.7Zm249.9,105.38c110.36,11,223.75-15.38,322.62-77q12.45-7.75,24.14-16c-13.33-10-34.89-8-61.51,6.13-45.32,24-107.25,39.45-165.67,41.37-33.4,1.09-63.14-2.32-88-9.87A307.65,307.65,0,0,1,482.34,1089.08Zm4.33-190.63c-15.06,3.53-30.12,15.53-38.51,31.6-11.79,22.61-7.81,47.22,10.92,67.53,12.72,13.8,30.62,24.43,52.72,31.62l.78-1.83c17-40.47,23-79.58,15.76-102.06-5.51-17.07-16.36-27-30.56-27.87A38,38,0,0,0,486.67,898.45ZM811.9,826.23c-4.15,9.53-4.24,17.38-2.83,23.41,3.94,16.83,20.61,26.08,34.9,29.12l4.37.75c18.74,3.82,32.2.85,36.07-7.92,3.58-8.12-2.41-19.29-14.23-26.53C855.79,836.23,836,829.89,811.9,826.23ZM281.61,419.74c-14.84,3.49-31.7,10.48-50.4,20.91-92.15,51.42-139,149.82-128.42,270C111.69,812.17,160,907.85,231.6,977c16.54-32.72,39.67-65.7,61.39-96.68,5.19-7.41,10.33-14.73,15.29-21.94a127.11,127.11,0,0,1-15.55-2.63c-29.44-6.92-54.08-23.9-73.25-50.47-11.12-15.41-17.06-29.77-17.66-42.67A40.5,40.5,0,0,1,213.17,732c11.39-12.12,31.26-20.12,54.51-22,22.62-1.78,45.32,2.35,62.27,11.34,24.67,13.08,33.92,34.21,26.06,59.49C349.26,802.58,333.52,828,315,855.21c18.57,1.16,38.22-1.65,58.25-8.63,56.45-19.67,98.67-66.93,96.11-107.6-2.25-35.84-27.51-58.47-52.81-76.12-8.4,4.86-19.36,9.64-33.62,14-20.82,6.38-37.73,5.36-50.27-3-19-12.69-25.72-40.17-28.6-68.91a181.09,181.09,0,0,1-25.37,25.12c-20.82,16.74-36,23.28-45,19.43-5.6-2.39-8.55-8.41-8.75-17.91-.34-15.65,7.1-40.58,19.41-65.07,12.78-25.42,27.79-44.37,40.14-50.7,4-2.06,7.52-2.3,10.4-.74,8.72,4.74,9.58,25.76,10.67,52.37.37,8.88.75,18.27,1.45,27.66a230.05,230.05,0,0,0,34.87-67.33c12.45-38.89,11.56-73.7-2.38-93.13-8.4-11.71-21.13-17.59-37.84-17.47A90.93,90.93,0,0,0,281.61,419.74Zm265.5,369.91c-3.4.8-6.13,3.56-7.64,5.42-6.41,7.92-10.13,23.08-4.4,35.59,3.8,8.29,13.21,18.45,36.43,19.75.46,0,.91,0,1.36.05-1.08-3.84-2.13-7.64-3.16-11.35-6.65-23.92-13.52-48.66-19.47-49.59A8.12,8.12,0,0,0,547.11,789.65Zm143.52-16.78a9.39,9.39,0,0,0-5.31,3.36c-3.87,4.89-3.65,13.46.56,21.33,4.59,8.6,12.84,15,23.54,18.57,0-1.91,0-3.79-.11-5.66-.81-21.81-5.72-36.21-12.83-37.59A14.21,14.21,0,0,0,690.63,772.87Zm-59.17-49.3h0c-3.2,1-5.56,18.82-7.46,33.17-1.27,9.61-2.7,20.4-4.7,31.22,8.06-2.61,15.07-9.45,19.39-19.2,5.61-12.64,6.27-31-4.89-43.55C632.51,723.78,631.72,723.51,631.46,723.57Zm-380.65-7.29c-14.74,3.46-27,9.75-34.86,18.11-15.9,16.91-13.6,40.69,6.65,68.76,22.11,30.65,53.07,48.35,88.09,51.72,18.88-27.58,34.95-53.3,41.69-75,7.31-23.48-1.33-43.13-24.3-55.31-16.33-8.66-38.26-12.63-60.16-10.91A113.78,113.78,0,0,0,250.81,716.28ZM831.32,553.62c-12.26,2.88-23.68,11.33-32.72,24.55-15.13,22.13-22.41,58.46-6.09,82.19,12.75,18.55,37,25.07,70.13,18.85,16.73-3.13,30.59-9.51,41.74-19.25a225.75,225.75,0,0,0-38.49-27,185.87,185.87,0,0,0-38.74-16.38c-7.1,3.61-13.59,5.86-18.37,6.2-7.33.52-9.16-3.38-9.59-5.76a5,5,0,0,1,2.23-5.3c4.14-2.82,13.55-2.25,25.43,1,18.85-10,41.22-29.52,42.16-43.55.55-8.31-6.74-13.73-21.67-16.12A41.28,41.28,0,0,0,831.32,553.62Zm-25.79,60.32a6,6,0,0,0-2,.79,1.42,1.42,0,0,0-.65,1.65c.16.87.58,3.18,5.66,2.82,3.56-.26,8.13-1.68,13.15-4C814.39,613.58,808.74,613.19,805.53,613.94ZM391.88,597.41A32.91,32.91,0,0,0,376.23,606c-4.51,4.42-6.53,8.54-6.16,12.59.88,9.7,15.55,19.32,32.54,30.45,4.51,3,9.28,6.09,14.13,9.44,18.17-11.12,22.29-22.26,22.78-29.17.83-11.7-8-23.52-22.06-29.4C410.14,596.87,400.83,595.31,391.88,597.41ZM945.2,484.34c15.1,5.19,29.91,7.3,44.1,5.33,50.4-7,66.17-33.19,71.09-48.2a60.78,60.78,0,0,0-18.09-64.41c-16.52-14.15-38.93-16.75-61.49-7.12C948.17,383.87,945.28,431.3,945.2,484.34ZM289.08,517.89a12.93,12.93,0,0,0-2.91,1.12c-11.65,6-26,24.29-38.47,49-12.06,24-19.35,48.28-19,63.38.17,8,2.38,12.94,6.56,14.72,5.23,2.23,16.59.77,41-18.87a177.49,177.49,0,0,0,27.26-27.73c-.92-10.81-1.36-21.68-1.78-31.89-1-23.47-1.88-45.64-8.8-49.41A5.33,5.33,0,0,0,289.08,517.89ZM697.15,273.4l-.27.07c-1.94.65-2.56,4.06-2.75,6.8-1,14.8,12.92,30.2,38.17,42.25a169.36,169.36,0,0,0,27.86,10.24l-.63-.71C731.7,300.9,705.39,271.46,697.15,273.4ZM440.42,302.66a11.55,11.55,0,0,0-7.22,5.56c-1.32,2.12-.68,2.82-.43,3.09,2.47,2.68,14.28,2.56,29.83-1-6.77-4.73-14.36-8.55-20.65-7.92A12.52,12.52,0,0,0,440.42,302.66ZM449.1,166.8c-10.94,10.54-17.64,20.27-20.54,27.23-2.35,5.65-2,8.83-.95,9.92s3.45.53,4.77.09c10.13-3.36,16.39-16.27,17.34-27.28A31.44,31.44,0,0,0,449.1,166.8Z" transform="translate(-40.87 2.05)"/><path class="cls-25" d="M576.14,727.41l-2.67.58c-.52-2.43-12.83-59.83-4.33-88.29,3.5-11.7,14.37-17.83,28.38-16,15.56,2,31.6,13.63,35.1,32.36,15-3.68,29-8.74,30.22-19.81.92-8.46-5.16-12.49-10.42-14.39-8.16-2.93-18.15-2.47-24.57-.52.63,8-.55,10.22-2,11-2.21,1.16-4.59-1.38-5.37-2.22-2.79-3-1.84-5.52-1-6.76a11.63,11.63,0,0,1,5.51-3.88c-.54-4.93-1.7-12.18-4-22.82-.28-1.31-.39-1.85-.43-2.08l2.7-.38c0,.16.21,1,.4,1.89,2.11,10,3.33,17.26,3.91,22.5,7.42-2.09,18-2.08,25.77.73,8.73,3.14,13.07,9.27,12.2,17.25C664.16,649.38,649,654.85,633,658.75c.13,1.19.23,2.39.26,3.63.48,15.21-5.73,21.9-11,24.84-6.85,3.8-16.42,3.25-23.27-1.34-4.81-3.21-7.25-7.77-6.7-12.51,1-8.49,14.65-11.53,30.49-15,2.37-.53,4.78-1.07,7.19-1.63-3.23-17.54-18.24-28.4-32.8-30.3-9.87-1.28-21.73,1.74-25.42,14.09C563.46,668.27,576,726.82,576.14,727.41Zm40.44-64.9c-11.43,2.69-20.94,5.67-21.58,11.17-.43,3.69,1.58,7.31,5.51,9.94,4.93,3.3,13.44,5.09,20.43,1.22,4.64-2.57,10.08-8.54,9.64-22.38,0-1-.11-2.06-.22-3.07-2.34.55-4.68,1.07-7,1.59S618.79,662,616.58,662.51Zm8.64-40.22a8.13,8.13,0,0,0-3.5,2.54c-.28.42-1,1.53.74,3.41,1.54,1.65,2.15,1.64,2.16,1.64C624.87,629.69,625.69,628.57,625.22,622.29Z" transform="translate(-40.87 2.05)"/></g><g id="Layer_3" data-name="Layer 3"><circle class="cls-26" cx="900.63" cy="574.67" r="7.15"/><circle class="cls-27" cx="59.67" cy="638.01" r="10.74"/><circle class="cls-28" cx="714.89" cy="824.27" r="8.73"/><circle class="cls-29" cx="418.61" cy="700.96" r="7.67"/><circle class="cls-30" cx="871.54" cy="1115.02" r="13.6"/><circle class="cls-31" cx="534.83" cy="729.61" r="8.44"/><circle class="cls-32" cx="59.03" cy="688.82" r="6.04"/><circle class="cls-33" cx="592.63" cy="545.75" r="5.51"/><circle class="cls-34" cx="769.79" cy="439.81" r="7.27"/><circle class="cls-35" cx="44.16" cy="607.85" r="3.13"/><circle class="cls-36" cx="154.78" cy="651.67" r="2.23"/><circle class="cls-37" cx="514.55" cy="112.45" r="11.54"/><circle class="cls-38" cx="886.61" cy="1090.17" r="6.23"/><circle class="cls-39" cx="923.89" cy="828.25" r="11.43"/><circle class="cls-40" cx="758.61" cy="450.51" r="2.23"/><circle class="cls-41" cx="786.81" cy="404.14" r="7.94"/><circle class="cls-42" cx="763.32" cy="406.2" r="2.23"/></g></svg>