<svg xmlns="http://www.w3.org/2000/svg" xmlns:xlink="http://www.w3.org/1999/xlink" viewBox="0 0 676.37 1058.22"><defs><style>.cls-1,.cls-4{isolation:isolate;}.cls-10,.cls-2,.cls-6{fill:#eb5f8b;}.cls-3,.cls-4{fill:#040d29;}.cls-5{fill:#f4bdb9;}.cls-6,.cls-7,.cls-8{stroke:#ee3875;}.cls-7{fill:#ea4d85;}.cls-8{fill:#f19da8;}.cls-9{fill:#f8dec9;}.cls-10,.cls-11{stroke:#040d29;}.cls-11{fill:#80c56b;}.cls-12{fill:url(#linear-gradient);}.cls-13{fill:#ffeecb;}.cls-14{fill:url(#linear-gradient-2);}.cls-15{fill:#ffeca9;}.cls-16{fill:url(#linear-gradient-3);}.cls-17{fill:#ffd382;}.cls-18{fill:url(#linear-gradient-4);}.cls-19{fill:url(#linear-gradient-5);}.cls-20{fill:url(#linear-gradient-6);}.cls-21{fill:url(#linear-gradient-7);}.cls-22{fill:#d0a14d;}.cls-23,.cls-24,.cls-25,.cls-26{fill:none;stroke:#d0a14d;stroke-linecap:round;stroke-linejoin:round;}.cls-23{stroke-width:2px;}.cls-24{stroke-width:3px;}.cls-26{stroke-width:0.5px;}.cls-27{fill:url(#linear-gradient-8);}.cls-28{fill:url(#linear-gradient-9);}.cls-29{fill:url(#linear-gradient-10);}.cls-30{fill:url(#linear-gradient-11);}.cls-31{fill:url(#linear-gradient-12);}.cls-32{fill:#f0dca7;}</style><linearGradient id="linear-gradient" x1="290.92" y1="305.13" x2="304.38" y2="482.89" gradientUnits="userSpaceOnUse"><stop offset="0" stop-color="#ffface"/><stop offset="1" stop-color="#e3bc5d"/></linearGradient><linearGradient id="linear-gradient-2" x1="269.67" y1="473.72" x2="292.56" y2="850.79" xlink:href="#linear-gradient"/><linearGradient id="linear-gradient-3" x1="448.18" y1="774.38" x2="589.58" y2="708.4" xlink:href="#linear-gradient"/><linearGradient id="linear-gradient-4" x1="291.85" y1="1021.67" x2="345.72" y2="1082.27" xlink:href="#linear-gradient"/><linearGradient id="linear-gradient-5" x1="332.99" y1="224.45" x2="270.13" y2="458.49" xlink:href="#linear-gradient"/><linearGradient id="linear-gradient-6" x1="544.69" y1="556.06" x2="634.92" y2="577.61" gradientUnits="userSpaceOnUse"><stop offset="0" stop-color="#ffface"/><stop offset="1" stop-color="#e2dbb3"/></linearGradient><linearGradient id="linear-gradient-7" x1="87.32" y1="284.82" x2="381.95" y2="284.82" xlink:href="#linear-gradient"/><linearGradient id="linear-gradient-8" x1="546.33" y1="608.1" x2="496.9" y2="448.1" gradientUnits="userSpaceOnUse"><stop offset="0" stop-color="#f8d76a"/><stop offset="1" stop-color="#d0a14d"/></linearGradient><linearGradient id="linear-gradient-9" x1="313.31" y1="182.38" x2="357.54" y2="259.13" xlink:href="#linear-gradient-8"/><linearGradient id="linear-gradient-10" x1="203.91" y1="375.76" x2="212.99" y2="391.52" xlink:href="#linear-gradient-8"/><linearGradient id="linear-gradient-11" x1="217.63" y1="424.65" x2="219.83" y2="428.46" xlink:href="#linear-gradient-8"/><linearGradient id="linear-gradient-12" x1="383.77" y1="167.85" x2="383.77" y2="211.22" xlink:href="#linear-gradient-8"/></defs><g id="Layer_9" data-name="Layer 9"><g class="cls-1"><path class="cls-2" d="M608.71,348.47s-5.88-16-5.61-24.06c.33-9.38,11.51-19.13,19.64-21.23l3,9.19,9-3.52c3.55,7.61,3.13,22.44-3.9,28.66C624.82,342.84,608.71,348.47,608.71,348.47Z" transform="translate(-28.16 -92.57)"/></g><path class="cls-3" d="M626.28,311.24c-.46-1.43-3-9.1-3-9.1l-.8.2c-8.92,2.3-20,12.65-20.28,22-.28,8.13,5.42,23.72,5.67,24.38l.29.8.8-.28c.66-.23,16.33-5.74,22.42-11.12,7.06-6.23,8-21.32,4.12-29.68l-.35-.74Zm7.93-1.26c2.32,5.67,2.66,15.41-.53,22.2a14.37,14.37,0,0,1-3.4,4.68c-5.09,4.5-17.75,9.29-21,10.5-1.17-3.3-5.51-16.14-5.27-22.92a14.36,14.36,0,0,1,1.45-5.6c3.2-6.78,11-12.7,16.8-14.51.46,1.43,3,9.18,3,9.18Z" transform="translate(-28.16 -92.57)"/><g class="cls-1"><path class="cls-2" d="M608.71,348.47s13.4-10.55,21.15-12.78c9-2.59,21.76,5,26.26,12.13l-7.81,5.69,6.13,7.48c-6.14,5.73-20.38,9.92-28.45,5.15C619,362,608.71,348.47,608.71,348.47Z" transform="translate(-28.16 -92.57)"/></g><path class="cls-3" d="M629.63,334.86c-7.82,2.25-20.89,12.49-21.45,12.93l-.67.53.52.67c.43.56,10.51,13.76,17.51,17.89,8.09,4.78,22.76,1,29.49-5.26l.59-.56s-5.12-6.22-6.07-7.39l7.74-5.63-.44-.69C651.9,339.57,638.66,332.27,629.63,334.86Zm.47,1.66c8.45-2.43,20.3,4.78,24.79,11.13l-7.84,5.71,6.17,7.49c-6,5-19.22,9-26.8,4.55-5.84-3.46-14.33-14-16.49-16.78C612.71,346.49,623.58,338.4,630.1,336.52Z" transform="translate(-28.16 -92.57)"/><g class="cls-1"><path class="cls-2" d="M608.71,348.47s14.17,9.49,18.69,16.16c5.25,7.78,1.93,22.24-3.41,28.72l-7.84-5.66-5.2,8.14c-7.37-4.07-15.74-16.32-13.71-25.48C599,362.49,608.71,348.47,608.71,348.47Z" transform="translate(-28.16 -92.57)"/></g><path class="cls-3" d="M608,348c-.4.57-9.84,14.24-11.61,22.18-2,9.18,6.06,22,14.12,26.42l.71.4,5.15-8.06,7.75,5.61.52-.62c5.88-7.11,8.72-22,3.47-29.76-4.56-6.74-18.34-16-18.92-16.4l-.72-.47Zm-9.93,22.56a32.08,32.08,0,0,1,2.32-6.24,127.29,127.29,0,0,1,8.54-14.63c2.89,2,13.94,9.82,17.74,15.45,4.08,6,2.6,16.37-.67,23.29a21.13,21.13,0,0,1-2.27,3.71c-1.22-.9-7.82-5.67-7.82-5.67s-4.45,6.94-5.23,8.17C604.08,390.51,596.17,379.13,598.08,370.54Z" transform="translate(-28.16 -92.57)"/><g class="cls-1"><path class="cls-2" d="M608.71,348.47s-4.64,16.41-9.6,22.76c-5.77,7.4-20.55,8.72-28.37,5.63l3-9.2-9.36-2.44c1.6-8.25,10.66-20,20-20.9C592.38,343.56,608.71,348.47,608.71,348.47Z" transform="translate(-28.16 -92.57)"/></g><path class="cls-3" d="M609,347.64c-.67-.2-16.58-4.95-24.69-4.18-9.35.89-19,12.54-20.76,21.59l-.15.8,9.25,2.41-2.94,9.1.75.3c8.58,3.39,23.6,1.52,29.37-5.89,5-6.42,9.57-22.39,9.76-23.07l.23-.82ZM566.89,360.5c3.26-6.92,10.3-14.63,17.55-15.32,6.76-.64,19.82,2.91,23.2,3.88a127.36,127.36,0,0,1-5.86,15.88,31.66,31.66,0,0,1-3.35,5.76c-5.41,6.94-19.23,8.07-26.6,5.58.46-1.39,3-9.23,3-9.23l-9.35-2.43A20.61,20.61,0,0,1,566.89,360.5Z" transform="translate(-28.16 -92.57)"/><g class="cls-1"><path class="cls-2" d="M608.71,348.47s-17,.66-24.62-2.1c-8.81-3.2-14.63-16.86-14.11-25.25h9.67l-.57-9.65c8.34-1,22.32,4,26.06,12.56C608.34,331.41,608.71,348.47,608.71,348.47Z" transform="translate(-28.16 -92.57)"/></g><path class="cls-3" d="M579,310.6l-.8.1s.48,8.05.56,9.55l-9.56,0,0,.8c-.57,9.21,5.85,22.91,14.68,26.11,7.64,2.78,24.25,2.18,25,2.15l.85,0v-.85c0-.71-.43-17.31-3.67-24.77C602.19,315.06,588.12,309.47,579,310.6Zm25.37,13.77c2.69,6.23,3.36,19.76,3.49,23.26-3.51.08-17.06.25-23.44-2.07-8.27-3-13.62-15.8-13.53-23.57h9.7s-.48-8.22-.57-9.68C587.75,311.74,600.84,316.29,604.34,324.37Z" transform="translate(-28.16 -92.57)"/><line class="cls-4" x1="580.55" y1="255.9" x2="588.31" y2="239.46"/><rect class="cls-3" x="603.5" y="339.38" width="18.18" height="1.73" transform="translate(15.32 656.52) rotate(-64.74)"/><path class="cls-3" d="M618.05,332.77a1.74,1.74,0,0,1-2.32.84,1.75,1.75,0,1,1,1.49-3.16A1.73,1.73,0,0,1,618.05,332.77Z" transform="translate(-28.16 -92.57)"/><line class="cls-4" x1="580.55" y1="255.9" x2="598.59" y2="258.2"/><rect class="cls-3" x="616.87" y="340.53" width="1.72" height="18.18" transform="matrix(0.13, -0.99, 0.99, 0.13, 164.61, 825.59)"/><path class="cls-3" d="M626.52,352.5a1.75,1.75,0,1,1,2-1.51A1.76,1.76,0,0,1,626.52,352.5Z" transform="translate(-28.16 -92.57)"/><line class="cls-4" x1="580.55" y1="255.9" x2="583.93" y2="273.76"/><rect class="cls-3" x="609.54" y="348.31" width="1.72" height="18.18" transform="translate(-84.04 27.36) rotate(-10.73)"/><path class="cls-3" d="M610.38,366.66a1.75,1.75,0,1,1,2,1.38A1.75,1.75,0,0,1,610.38,366.66Z" transform="translate(-28.16 -92.57)"/><line class="cls-4" x1="580.55" y1="255.9" x2="564.61" y2="264.64"/><polygon class="cls-3" points="564.2 263.89 565.02 265.4 580.96 256.65 580.14 255.15 564.2 263.89"/><path class="cls-3" d="M591.93,355.68a1.75,1.75,0,1,1-.69,2.37A1.75,1.75,0,0,1,591.93,355.68Z" transform="translate(-28.16 -92.57)"/><line class="cls-4" x1="580.55" y1="255.9" x2="567.32" y2="243.44"/><polygon class="cls-3" points="566.73 244.07 579.96 256.53 581.14 255.27 567.91 242.81 566.73 244.07"/><path class="cls-3" d="M596.67,334.74a1.74,1.74,0,1,1-2.47.07A1.75,1.75,0,0,1,596.67,334.74Z" transform="translate(-28.16 -92.57)"/><g class="cls-1"><path class="cls-5" d="M614.09,351a5.94,5.94,0,1,1-2.84-7.9A5.94,5.94,0,0,1,614.09,351Z" transform="translate(-28.16 -92.57)"/></g><path class="cls-3" d="M602.29,345.44a7.1,7.1,0,1,0,9.45-3.39A7.1,7.1,0,0,0,602.29,345.44Zm2.1,1a4.78,4.78,0,1,1,2.29,6.35A4.78,4.78,0,0,1,604.39,346.43Z" transform="translate(-28.16 -92.57)"/><polygon class="cls-6" points="285.31 825.54 291.23 829.84 297.14 825.54 294.88 818.59 287.57 818.59 285.31 825.54"/><path class="cls-6" d="M364.46,918.46A17.21,17.21,0,0,0,369.39,906c-.09-9-6.75-18.41-17.73-18.41-4.2,0-9.94,1.46-16.6,7,4-10.05,2.33-16.74.53-20.36a18.45,18.45,0,0,0-32.4,0c-1.8,3.62-3.42,10.31.53,20.36-6.66-5.51-12.4-7-16.6-7-11,0-17.64,9.36-17.73,18.41a17.26,17.26,0,0,0,4.93,12.42c2.74,2.77,7.94,6.07,17.1,6.07.81,0,1.64,0,2.48-.08-12.51,7.93-13,17.12-12.32,21.43A18.89,18.89,0,0,0,300,961.56a17.22,17.22,0,0,0,12.47-5.39c3.15-3.21,5.46-7.73,6.9-13.37,1.44,5.64,3.75,10.16,6.9,13.37a17.22,17.22,0,0,0,12.47,5.39h0a18.89,18.89,0,0,0,18.44-15.67c.65-4.32.19-13.5-12.32-21.44.84,0,1.67.08,2.48.08C356.52,924.53,361.72,921.23,364.46,918.46Zm-41.41-7.3,2.25,7-5.91,4.3-5.91-4.3,2.26-7Z" transform="translate(-28.16 -92.57)"/><path class="cls-6" d="M312.1,909.8c-37.13-53.08-63.6,28.39-2.36,7.27Z" transform="translate(-28.16 -92.57)"/><path class="cls-6" d="M323.22,907.28c39-51.71-46.66-51.71-7.66,0Z" transform="translate(-28.16 -92.57)"/><path class="cls-6" d="M329.05,917.08c61.23,21.11,34.76-60.36-2.37-7.28Z" transform="translate(-28.16 -92.57)"/><path class="cls-6" d="M321.53,925.64c-1.16,64.77,68.15,14.41,6.19-4.49Z" transform="translate(-28.16 -92.57)"/><path class="cls-6" d="M311.06,921.14c-62,18.91,7.35,69.27,6.19,4.5Z" transform="translate(-28.16 -92.57)"/><path class="cls-7" d="M320.46,907.28c10.93-27.21-13.07-27.21-2.14,0Z" transform="translate(-28.16 -92.57)"/><path class="cls-7" d="M328.19,914.46c29.26,2,21.85-20.84-.66-2Z" transform="translate(-28.16 -92.57)"/><path class="cls-7" d="M323.76,924c7.16,28.44,26.57,14.34,1.73-1.26Z" transform="translate(-28.16 -92.57)"/><path class="cls-7" d="M313.29,922.76c-24.84,15.6-5.42,29.7,1.73,1.26Z" transform="translate(-28.16 -92.57)"/><path class="cls-7" d="M311.25,912.42c-22.51-18.8-29.92,4-.66,2Z" transform="translate(-28.16 -92.57)"/><path class="cls-8" d="M329.08,916.19a9.69,9.69,0,1,1-9.69-9.69A9.69,9.69,0,0,1,329.08,916.19Z" transform="translate(-28.16 -92.57)"/><path class="cls-2" d="M653.27,316.12c-3.19,0-5.76-.9-7.45-2.6a7.32,7.32,0,0,1-2.08-5.24c0-3.84,2.86-7.82,7.49-7.82,2.86,0,7.35,1.57,12.58,9l.27.39-.14.45-1.12,3.44-.15.45-.44.15a28,28,0,0,1-9,1.74Z" transform="translate(-28.16 -92.57)"/><path class="cls-2" d="M668.76,309.8H664.2l-.28-.37c-6.37-8.45-5.43-13.52-4.3-15.79a7.83,7.83,0,0,1,13.72,0c1.13,2.27,2.08,7.34-4.3,15.79l-.28.37Z" transform="translate(-28.16 -92.57)"/><path class="cls-2" d="M679.7,316.12a28,28,0,0,1-9-1.74l-.44-.15-.15-.45L669,310.34l-.15-.45.27-.39c5.23-7.47,9.73-9,12.58-9a7.66,7.66,0,0,1,7.49,7.82,7.26,7.26,0,0,1-2.08,5.24c-1.68,1.7-4.26,2.6-7.44,2.6Z" transform="translate(-28.16 -92.57)"/><path class="cls-2" d="M675.63,333.61a7.24,7.24,0,0,1-5.25-2.27c-2.62-2.67-4-7.45-3.83-13.82v-.47l.38-.28,2.92-2.13.38-.27.45.13c12.64,3.86,13.15,10,12.78,12.47a8,8,0,0,1-7.84,6.64Z" transform="translate(-28.16 -92.57)"/><path class="cls-2" d="M657.33,333.61a8,8,0,0,1-7.84-6.65c-.36-2.46.15-8.6,12.78-12.46l.45-.13.38.27,2.93,2.13.38.28v.47c.11,6.37-1.21,11.15-3.83,13.81a7.25,7.25,0,0,1-5.26,2.28Z" transform="translate(-28.16 -92.57)"/><path class="cls-9" d="M667,308.86c5.16-12.86-6.18-12.86-1,0Z" transform="translate(-28.16 -92.57)"/><path class="cls-9" d="M670.64,312.25c13.83.93,10.32-9.85-.31-1Z" transform="translate(-28.16 -92.57)"/><path class="cls-9" d="M668.54,316.77c3.39,13.44,12.56,6.77.83-.6Z" transform="translate(-28.16 -92.57)"/><path class="cls-9" d="M663.6,316.17c-11.74,7.37-2.56,14,.82.6Z" transform="translate(-28.16 -92.57)"/><path class="cls-9" d="M662.64,311.28c-10.64-8.88-14.14,1.9-.32,1Z" transform="translate(-28.16 -92.57)"/><path class="cls-10" d="M671.06,313.07a4.58,4.58,0,1,1-4.58-4.58A4.58,4.58,0,0,1,671.06,313.07Z" transform="translate(-28.16 -92.57)"/><path class="cls-11" d="M663.53,382.1c5,12.32,16.94,19.11,26.61,15.16s13.44-17.13,8.41-29.45-16.94-19.1-26.61-15.16S658.51,369.78,663.53,382.1Z" transform="translate(-28.16 -92.57)"/><ellipse class="cls-11" cx="683.59" cy="363.27" rx="16.99" ry="22.69" transform="translate(-66.62 549.84) rotate(-49.12)"/><path class="cls-11" d="M666.61,355.09a1.5,1.5,0,0,1,1.56-.81c1.75.43,4.55,1.6,6.38,1.73a.85.85,0,0,0,.81-1c-.4-1.79-2-4.39-2.64-6.06a1.47,1.47,0,0,1,.59-1.62c1.65-1.25,4.18-1.85,5.61-3.46.35-.39.21-.92-.24-.93-4.23,0-9.15.45-13.47,2.63a3.08,3.08,0,0,0-1.5,1.71c-1.55,4.58-1.32,9.52-.68,13.71.07.45.62.54,1,.14C665.37,359.49,665.6,356.9,666.61,355.09Z" transform="translate(-28.16 -92.57)"/></g><g id="Layer_8" data-name="Layer 8"><path class="cls-12" d="M257.51,339.64S245,379.32,259,415.1s32.49,54.35,53.8,61,34.86-12.2,34.86-12.2,7.07-9.2,5.73-17.74-2.63-13.3-8.34-15.54-17.21,4-18.78,11.88c0,0,6.27-8.89,15.16-9.41s14.64,11.5,7.32,23-19.87,17.78-33.46,9.93-22-20.39-25.1-42.87-1.44-36,4.51-56.18a120.54,120.54,0,0,1,15.88-33.74L343,267.36l-54.37,5.23-51.24,50.19Z" transform="translate(-28.16 -92.57)"/><path class="cls-13" d="M402.71,262.75s-61,16.39-90.52,33.58-31.68,30.43-33.09,39.5-.12,16,5,13.52S298.12,341,320.4,335s61.68-14.38,84.09-27.38,33.65-22.77,35.25-25.1,5.26-4.55,4.14-7,.5-8.79.5-8.79,37-1,66.14-6.51,27.14-6.87,27.14-6.87,7.48,1.39,13-1.1,6.4-5.18,6.4-5.18,16.84-6.9,24.65-14.56,6.11-17.05,5.22-23.56S569,186.13,569,186.13s-108.54-37.47-154.36-34-110.57,0-156.39,51.8S198,329.46,198,361.83,220.41,446,220.41,446l12.45-18.43,9-89.16s16.44-38.85,40.35-57.27,90.65-36.36,90.65-36.36l26.89,10.46Z" transform="translate(-28.16 -92.57)"/><path class="cls-14" d="M192.12,402.7S195,448.8,222,494.33s67.45,73,67.45,73,10,18.57,13.69,72.28-18.42,75.28-43.83,86.73-44.32-.75-52.42-8.62c0,0,8.33,29.94,46,42.16s76.14-6,91.14-17.29S365.43,714,365.43,714s-.33,19.58-34.22,53.18-106.33,71.19-106.33,71.19l-36.28,24.9s64.82-17.7,116.12-52.84,72.39-79.25,72.39-79.25-1-11.88,1.65-17.22,4.06-8.39,4.06-8.39-1-11.7,1.86-16.88c3.6-6.45,5.59-39.7-26.63-83.13s-59.5-82.43-73.86-100.79-31.18-71.05-37.93-85.4-13.14-4.77-13.14-4.77l-29.52-3.19Z" transform="translate(-28.16 -92.57)"/><path class="cls-15" d="M560.18,711.5s17.11-4.78,19.54-22.07-2.72-35.38-9.17-42.32S518.13,601,518.13,601l-14.78-9.56s6.42,14.94,5.95,17.74-7.06,12-8.51,17.31A83.65,83.65,0,0,0,498.54,645c-.12,5.71,1.39,15.57-3.53,22.13s-14.53,12-16.28,11.29-18.62-7.24-24.26-7.48-24,5.85-30.25,5.51-19.54,2.08-24.43,2.7a31.59,31.59,0,0,0-9.69,3.26s-4.7-16.33-4.72-18.43a44,44,0,0,0-.83-6.13s17.64-9.15,28.58-41.71,12.59-52.09,23.43-67.09,18.9-16.69,18.9-16.69l-11.4-21.63s-.87,11-7.1,17.66-8.21-3.14-9.09-4.56-1.78-3.58-7.67-1.3-22.08,20-47.67,30.28-31.21-2.89-29.66-6.45,3.43-4.13,3.43-4.13,1.56,7,9.67,2.28,13.51-24.91,14.54-29.66,8.26-30.31,14.72-42.69,16.24-21.54,18.69-24.41,11.54-17.81,14-21.23,1.37-14.29,1.18-21-1.37-29.89,3-45.74,5.94-20.73,8.23-24.73,4.33-6.8,4.33-6.8-1.92-1.59.15-6.94a71.38,71.38,0,0,1,5.83-11.1,6.86,6.86,0,0,0,4.6-3c1.92-2.74,13.87-16.85,13.87-16.85s2.56-1.32-1.25-4.41-5.23-2.72-5.23-2.72a33.12,33.12,0,0,1,6.19-2.27c3.09-.73,5.17.72,5.6,2.66l.44,1.93a27,27,0,0,1,14.43-6c9.05-1,18.32,4.62,21.28,6.73s7.95,6.37,7.95,6.37,2.62-5.72,7.43-5.78,11.18.31,11.18.31a11.44,11.44,0,0,0-6.42,5.9c-2.38,4.76-1,5.71-1.9,7.86a14.1,14.1,0,0,1-3.1,4l5.38,16.14s4.69-1.52,6.63,6.05,3,11.44.61,14.71L526,345.22s.95,10.78,1.9,27.68,1.2,29.76,3.34,37.61S535,432.65,535,432.65s15.86-4.29,34.11,4.17S591,448.77,598.32,451s35.15,6.38,40.79,9.25,16.74,5,21.19,19.27-.84,39.48-.84,39.48-8.7,36.31-8.86,37-7.22,40-7.68,44.47-1.43,30.58-5.27,38.72-3.2,22-9.47,32.32S608.55,695.18,606,696.24s-12.69,7.33-12.69,7.33-8.37,5.25-16.21,7S560.18,711.5,560.18,711.5Z" transform="translate(-28.16 -92.57)"/><path class="cls-16" d="M560.18,711.5s-13-.48-45.19-15.89-45.44-25-65.16-24.16-28.38,6-35.32,6.6-14.78-2-26.18,5.94-5.51,21.55-5.51,21.55S373,721.45,377,728.37s20.77,14.43,20.77,14.43-7.38,12.6.34,22.8,13,17.11,34.49,26.64S456.71,804,456.71,804s-8.68-2.38-13.25,1.44-1.24,8.76-6.36,9.61-5.61-1.52-7.85-.75-5,7.87-7.23,9.27-12.06,3.76-14.72,5.12-9.47,7.1-13.67,16.67-11.65,24.66-9.31,36.83,7.73,11.18,18.85,13.34,30.32,4.42,55.95-7.35,53.49-31.6,53.49-31.6,30.38-19.2,49.62-39.47,31.69-39.35,39.11-53.88,15.17-30,19.61-44.61,8.87-27.07,8.87-27.07l-15.75,1.66L599.15,698l-11.61,6.63-17.41,4.7-3.52-.72Z" transform="translate(-28.16 -92.57)"/><path class="cls-17" d="M420,422.54s-7.13,14.94-17.19,26.5a158.6,158.6,0,0,0-20.84,30.38c-5,9.2-8.3,23-9.94,26.91s-1.32,21-9.2,31.22-9.86,9.85-12.16,8.21a31.41,31.41,0,0,1-4.7-4.49s-4.83,5.81-.23,11.39,9.68,5.87,24,.33,33.22-16.38,34.17-17.74,19.06-16.11,21.69-14.46,2,9.86,6.9,9.2,9.08-4.19,9.2-6.9,2.42-12.35,2.42-12.35S432.77,486,428.17,463.28,420,422.54,420,422.54Z" transform="translate(-28.16 -92.57)"/><path class="cls-17" d="M384.55,657.86s17.17-4.64,32.19-51,10-46.55,22.62-61.46,16.1-13,16.1-13,16.21,23,20.93,29.45,26.6,27,26.6,27,6.95,17.42,5.4,22.65-6.15,9.7-7.6,15-3,22.42-3,22.42,1.72,14.59-4.72,21a34.93,34.93,0,0,1-14.39,8.48s-19.94-8.48-30.66-7.62-25.75,7.72-31.76,7.29-16.53,1.53-19.85,1.62-8.13,4.27-8.13,4.27Z" transform="translate(-28.16 -92.57)"/><path class="cls-18" d="M232.14,1043.16s38.42-17.06,66.76-8,35.11,30,35.66,47.68a47.11,47.11,0,0,1-8.73,29.13s26.31-25.1,30.86-54,7.71-35.3-3-54.26-35.3-18.53-54-13.15-49.23,30.3-49.23,30.3Z" transform="translate(-28.16 -92.57)"/><path class="cls-19" d="M219.12,415S209,340.37,249.63,288.84s101-61.7,122.72-67.12,87.47-43.4,78.65-52.89-72.74-27.12-123.4-4.75-96.6,69-114.69,120.21-12.77,109.64-12.77,109.64Z" transform="translate(-28.16 -92.57)"/><path class="cls-20" d="M513.42,443.72s13.45-13.83,32.39-12.15,28.45,10,40.48,14.71,31.17,8.8,45.17,12.78,24.91,5.82,29.29,22.09S657,532.36,657,532.36s-7.8,27.71-11.09,49.85-4.28,40.75-8.29,57-12.16,30.76-12.16,32-8.63,13.45-11.9,18.3-8.55,8.12-9.4,5.56,2.55-72.44.85-78.41-32.81-75.42-32.81-75.42l-46.88-47.73-12.78-20.46Z" transform="translate(-28.16 -92.57)"/><path class="cls-21" d="M144,441.37s-4.28-14.6-25.81-63.07c-20.74-46.66-18.59-68.69-19.31-87.12s4.75-36.48,8.24-35.42,8.42,28.76,19.9,24.87,31-25.55,41.3-37.33,28.91-37.41,63.55-61.69,61.89-15.27,65.42-14.7c0,0,53.69-19.38,59.27-21.27S382,141.93,382,141.93s-31.8-18.9-71.71-12.23-75.38,23.81-93.16,40.16S175.77,211,175.77,211,159.63,234.23,145,236.4s-14.12-.76-14.37-6,1.46-22.1-11-23.46S94.33,224.27,89,261.71s2.63,72.5,13.35,104.28,26.71,52,26.71,52Z" transform="translate(-28.16 -92.57)"/></g><g id="Layer_4" data-name="Layer 4"><path class="cls-22" d="M555.3,241.44c1.49,4.06-1.27,8.38-4.83,10.29a13.59,13.59,0,0,1-7.19,1.29,21,21,0,0,1-7.86-1.81c-1.22-.6-1.82,1.43-.67,1.59,3,.41,5.83,1.41,8.89,1.48a14.09,14.09,0,0,0,7.88-1.9c3.65-2.32,6.14-6.92,4.3-11.16-.13-.29-.63-.08-.52.22Z" transform="translate(-28.16 -92.57)"/><path class="cls-22" d="M544.41,250a5.9,5.9,0,0,0,5.24-.27,6.45,6.45,0,0,0,3.27-4.23c.17-.79-.83-1.52-1.45-.84a14.58,14.58,0,0,1-4.09,3.19,10.88,10.88,0,0,1-2.34.9c-.42.12-.84.21-1.27.29a2.57,2.57,0,0,0-.78.21,2.51,2.51,0,0,0-.54.54.78.78,0,0,0,.15,1.21,2.94,2.94,0,0,0,.67.32,1.79,1.79,0,0,0,1-.1,11.85,11.85,0,0,0,1.31-.44,22.4,22.4,0,0,0,2.67-1.26,16.15,16.15,0,0,0,4.43-3.63l-1.45-.85a5.41,5.41,0,0,1-6.44,4c-.54-.13-.95.71-.4,1Z" transform="translate(-28.16 -92.57)"/><path class="cls-22" d="M535.89,251.46c4.54-.54,9.3-1.13,13.09-3.91,3.13-2.3,6.06-6.58,10.42-6,.42.06.51-.64.1-.73-4-.93-7,2.65-9.77,5-3.93,3.38-8.93,4.41-13.9,5.25-.23,0-.18.45.06.42Z" transform="translate(-28.16 -92.57)"/><path class="cls-22" d="M521.4,322.06c2.68-1,4.56,1.93,5.37,4.06a43.34,43.34,0,0,1,2,6.3,16.56,16.56,0,0,1,.29,6.46,8.75,8.75,0,0,1-3.57,5.47c-1.19.89.22,2.62,1.22,1.59,3.7-3.84,4.17-9.32,3-14.3A26.94,26.94,0,0,0,527,324.3c-1.17-2-3.36-3.88-5.77-2.92-.41.16-.24.83.19.68Z" transform="translate(-28.16 -92.57)"/><path class="cls-22" d="M434.15,327.75a35.81,35.81,0,0,0-5.3,8.37,98.56,98.56,0,0,0-8.61,27.72c-2.92,17.07-3,34.55-1.69,51.77a292.52,292.52,0,0,0,8.65,51.75c8.93,34,24.46,66.25,46.62,93.6A226.82,226.82,0,0,0,514,599.58c16.79,12.6,33.32,25.43,48,40.44,10.31,10.49,20.59,22.21,26.45,35.87,3.73,8.7,5.26,19-.72,27.1a26.73,26.73,0,0,1-4.87,5.41c-.8.58,0,1.93.78,1.34,2.09-1.55,4.08-2.64,5.77-4.71a22.8,22.8,0,0,0,3.46-5.74,25.71,25.71,0,0,0,1.35-13.46c-1.78-12.35-9.44-23.51-17.05-33-11.78-14.76-26-27.55-40.71-39.38-8.36-6.75-17.16-12.89-25.59-19.55a225.37,225.37,0,0,1-20.93-18.74c-25.33-25.71-43.94-57.43-55.39-91.57a280.34,280.34,0,0,1-11.87-51c-2.52-18.28-3.53-36.94-1.93-55.35a134.73,134.73,0,0,1,7.4-35,50,50,0,0,1,6.74-13.1c-.05.06.18-.24.3-.38.63-.71-.39-1.74-1-1Z" transform="translate(-28.16 -92.57)"/><path class="cls-22" d="M443.43,307.19c-7.65,3.64-13.09,12.54-10.4,21,.28.91,1.73.51,1.42-.39-2.74-7.93,2.32-16.3,9.4-19.89.49-.25.06-1-.42-.73Z" transform="translate(-28.16 -92.57)"/><path class="cls-23" d="M442.49,265.66s45.14.4,69.9-5.89l25.27-6.41" transform="translate(-28.16 -92.57)"/><path class="cls-24" d="M289.47,567.3C215.16,515.06,163.66,415,206.33,288.47s137.58-158.18,247.94-142,136.84,54.44,133.89,73.57c-2.49,16.23-24.52,24.8-31.14,27" transform="translate(-28.16 -92.57)"/><path class="cls-24" d="M378,729.24c-6.86,14.52-17.42,29.75-32.49,45.93C251.86,875.71,127.33,844.86,90.77,950s80,160,155.38,77.69,158.65-30,89,72.85c-49.64,73.25-176.52,26.6-262.83,29.21" transform="translate(-28.16 -92.57)"/><path class="cls-24" d="M402.77,263.45s-89-2.2-130.22,52.24S238,440,298.3,525.36c39.61,56,88,102.85,90,156.85" transform="translate(-28.16 -92.57)"/><path class="cls-24" d="M517.37,440.74s21.3-22.94,60.62.81,71.27,8.2,81.92,36.87-13.11,66.35-18,133.52S594.37,734.81,528,702.05s-72.08-36-99.11-27-30.37-.88-40.58,9-2,18.06-6.94,24.61-5.73,20.48,1.64,26.21,15.57,4.92,13.11,10.65-4.1,14.74.82,19.66,2.46,12.29,47.51,32.77,96.66,13.1,122-7.38" transform="translate(-28.16 -92.57)"/><path class="cls-24" d="M634.51,650.29s8.88,88.88-72.46,178.55c0,0-11.14,14-2.95,21.47s10.68-12.1,30.25-18.86,24.91,24.91,6.4,28.47,54.45-52.67,40.57-69.75-48.4,13.17-33.09,24.2c9.73,7,13-1.52,14.06-8.66" transform="translate(-28.16 -92.57)"/><path class="cls-23" d="M466.11,805.55s-19.18-4.39-23.28.53-.82,9-5.73,9-6.56-4.1-10.65,2.46-4.1,7.37-14.75,9.83S397.78,834.75,388,858.5s0,45.88,16.38,46.69c0,0,33.34,7.73,69.32-11.89,0,0,54.73-36.84,72.55-17.66s-58.92,120.58-154.84,79.48-150.72-74-187.72-28.78-9.59,74,17.82,67.14S355.28,955.16,361,1025" transform="translate(-28.16 -92.57)"/><path class="cls-23" d="M535,431.74s-5.31-18.66-6.29-44.74-1-32.48-2.46-40.85" transform="translate(-28.16 -92.57)"/><path class="cls-25" d="M521.3,321.72s-5.18-13.52-6-16.93" transform="translate(-28.16 -92.57)"/><path class="cls-23" d="M509.24,293.44s-23.56-25.06-44.37-7.83" transform="translate(-28.16 -92.57)"/><path class="cls-23" d="M459.12,290.42s-10.77,11.31-15.38,19.25" transform="translate(-28.16 -92.57)"/><path class="cls-23" d="M571.24,648.27s30,62-20.18,62" transform="translate(-28.16 -92.57)"/><path class="cls-23" d="M420.15,420.78s-3.95,14-17.9,28.81-24.42,30.52-31.39,63.65S351.68,549,347.32,543.76s1.74-7.85,4.36-7-17.44,6.1-4.36,17.44,53.18-15.69,68.88-28.77,9.59,7.84,18.3,4.36,10-18,9-20.2" transform="translate(-28.16 -92.57)"/><path class="cls-23" d="M246.57,399.76s-10,79.48,58,164,90.68,149.09,20.93,208.38S119.76,871.27,119.76,978.83s85.54,68.23,144.83,55.15,88.21,49.22,57.7,81.42" transform="translate(-28.16 -92.57)"/><path class="cls-23" d="M274.42,518.69s55.46,134.92,12.74,185.49S197.35,722.49,199.1,699c0,0,13.2,70.72,88.06,63.65s86.29-54.23,77.15-96.43" transform="translate(-28.16 -92.57)"/><path class="cls-23" d="M444,265.63s9.23,17.67-36.39,40.49-102.42,28.64-118.44,40.77-13.59-22.81,5.83-39.32,78.63-39.8,106.3-42.71" transform="translate(-28.16 -92.57)"/><path class="cls-25" d="M339.16,274.57s-4.84,9.26-6.3,11.67" transform="translate(-28.16 -92.57)"/><path class="cls-25" d="M307.8,338.68s-30.29,45.1-15.72,95.58,56.3,38.83,59.7,13.59-32.52-12.13-26.7.49c0,0,1-17.48,17.48-18s16,39.8-15.05,47.08S223.15,412,265.86,325.31" transform="translate(-28.16 -92.57)"/><path class="cls-23" d="M190.66,361.82c-6,22.95-9.09,57.39,4.17,100.85,25.31,83,93.47,130.36,66.21,183.2S189,652.73,211.71,626s47.2,15,20.77,18.53" transform="translate(-28.16 -92.57)"/><path class="cls-23" d="M529.91,388.63s2,16.51,28.64,25.73,63.91,18.77,72.73,44.09" transform="translate(-28.16 -92.57)"/><path class="cls-23" d="M454.81,531.26s-22.94,10.27-32.17,52.5S397.41,651,384.3,657.88" transform="translate(-28.16 -92.57)"/><path class="cls-23" d="M502.33,588.52S507.1,602.2,509,608s-6.79,9.22-9.71,23.78,5.4,41.29-20.6,46.62" transform="translate(-28.16 -92.57)"/><path class="cls-22" d="M439.94,309.81a27.24,27.24,0,0,0-1.85,3.4l-1.75,3.47c-1.17,2.3-2.37,4.59-3.58,6.87l2.6,1.1c.64-2.13,1.34-4.26,2.19-6.32.42-1,.88-2,1.36-2.94a4.62,4.62,0,0,0,.7-1.76,1.54,1.54,0,0,0-1-1.66c-1.49-.41-2.16,1.24-2.65,2.29s-1,2.15-1.4,3.24a38.58,38.58,0,0,0-1.94,6.39,1.43,1.43,0,0,0,2.75.76q1.49-3.56,3.05-7.08L440,314a26.58,26.58,0,0,0,1.45-3.56.83.83,0,0,0-1.5-.64Z" transform="translate(-28.16 -92.57)"/><path class="cls-22" d="M526.66,328.94a76,76,0,0,0,.43,8.53,1.18,1.18,0,0,0,2.35,0,20.15,20.15,0,0,0-.33-6.57,18.87,18.87,0,0,0-1-3.13,6.39,6.39,0,0,0-.93-1.7c-.36-.42-.71-1-1.29-1.06a1,1,0,0,0-1.12.64,3,3,0,0,0,.2,1.71,10,10,0,0,0,.59,1.49,19.13,19.13,0,0,1,.95,2.76,17.81,17.81,0,0,1,.54,5.86l2.31-.32c-.46-2.73-1-5.45-1.29-8.21-.1-.9-1.45-1-1.45,0Z" transform="translate(-28.16 -92.57)"/><path class="cls-26" d="M569,186.13s9.93,8.07,6.57,23.79S550.5,235,522.43,238.37s-23.58-4.5-21.34-8.24-43.41,20.21-43.41,18.34,9.35-8.61,3.37-6.36-17.6,10.48-13.85,9.73a16,16,0,0,1,5.61-.38s-18.71,10.11-21.33,10.11,2.62-8.61-1.5-7.49-16.09,6.37-13.1,7.12-9.73,1.87-21,1.49c0,0-46,3.21-74.5,16.58s-61.53,38.34-69.55,78.46-6.87,38.41-5.8,55.73,3.51,39.37,3.51,39.37a50.15,50.15,0,0,1-5.24-1.12c-1.5-.38,2.62,4.86,1.87,6s-13.48-15.34-16.1-17.59,4.87,11.23,4.49,13.48-2.62-4.87-6.73-3.37,23.2,37.05,9.35,22.08-28.44-41.92-31.06-43,12.72,29.19,2.62,13.47-16.66-40-16.66-40-5.4-50.07,11.13-104.58,51.31-111.88,108-137.22,133.8-20.48,183.2-6.78S569,186.13,569,186.13Z" transform="translate(-28.16 -92.57)"/><path class="cls-26" d="M404.53,256.33s19.46-13.1,21.33-12.73-4.49,7.86-9,9.74S401.91,260.07,404.53,256.33Z" transform="translate(-28.16 -92.57)"/><path class="cls-26" d="M584.18,662.43s-.74-6-1.12-8.24,3.37-3.36,1.87-6.36c0,0-3-3.74-3.37-6.36s3.75-1.5,2.25-3.37c-1-1.31-.75-7.86-.75-7.86a29.33,29.33,0,0,1-4.86-1.5c-1.5-.75-1.13-10.48-1.13-10.48s-3.37.38-5.24.38-2.24-3.75-2.24-3.75-1.87,3.75-3.37,4.12-3.37-1.5-5.24-3,.75-3.75.75-3.75-7.11-3.36-9-4.86-1.49-7.11-1.49-7.11a25.74,25.74,0,0,1-6.74-2.25c-2.62-1.5-3.37-6.36-3.37-6.36s-4.86-1.87-6.36-2.62-4.12-7.11-4.12-7.11l-3.37,3c-1.4,1.24-7.86-10.1-8.23-11.23s-2.62-2.62-2.62-2.62,1.87,4.87,1.5,7.11-9-6.36-10.48-7.48,3.74-4.12,3.74-4.12L507.08,561a13.91,13.91,0,0,1-1.87,5.24c-1.5,2.24-9.36-5.62-10.1-7.86s3.74-3.75,3.74-3.75a21.25,21.25,0,0,1-3-1.87c-1.49-1.12-.37-11.23-.37-11.23s-4.49-2.24-7.49-3.36-4.86-10.48-4.86-10.48-.38,7.11-.38,8.23-4.11,3-6.36,2.25-3-11.61-3-11.61l-2.25-2.24a10.21,10.21,0,0,1-1.5,2.62c-1.12,1.49-3-.75-4.86-3.75s-1.5-12-1.5-12a3.29,3.29,0,0,1-4.86,1.49c-3.37-1.87-4.5-9.73-4.5-9.73s-1.12,4.12-2.24,4.87-1.12-1.12-3.37-4.87.75-10.85.75-10.85l-2.25-1.87c-2.24-1.87-.37-11.61-.37-11.61s-2.62-1.12-4.12-1.87-1.12-8.23-1.12-11.23,3.37-4.49,3.37-4.49l.37-6s-3.74,2.24-5.24,3-1.5-12.35-1.12-13.85,2.62-1.87,2.62-1.87a4.73,4.73,0,0,0-2.25-4.49c-1.45-.83.38-6,.75-7.11s4.87-.38,1.87-1.5c-1.05-.39-1.49-3.74-1.87-5.24s4.49-9.36,6-9.36,4.49.38,6.36-.75,2.62-8.23,2.62-12-6.36-5.24-7.48-6.74-6.37,1.87-6.37,1.87l-1.49-1.5c-1.5-1.49,4.49-14.22,4.49-14.22s-4.87-2.62-5.62-5.24,6.37-11.23,6.37-11.23a3.62,3.62,0,0,1-3,0c-1.49-.75,4.49-6.73,4.12-9.35s-10.11,11.22-12.35,11.6-3.74-10.11-3.74-13.48,8.23-10.48,11.22-13.1,6.74-8.23,6.37-11.22-1.13-2.25-3.75-4.12.38-5.62,14.6-26.2,24.33-20.59,40.05-12.35,19.84,29.57,19.84,29.57,4.86,16.84,4.49,20.58-4.12-1.87-4.49.38,0,9,.75,12.72,5.24,10.48,4.49,13.48l-1.13,4.49s-3.36-4.87-3.36-3.75-.75,5.24.74,6,1.5,1.87,1.88,4.49,3.36,6.37,3.36,8.61-2.62.38-2.62.38-.74,4.86-2.24,4.11-6-8.6-6-7.48,4.12,5.24,1.12,6.36l-3,1.12s4.49,9.74,6.36,11.61,12.77,13.09,13.14,15.34,2.49,6.19,1.12,6.36c-3,.38.74,3.66.74,3.66s1.59,7-.6,7.63-17.39,9.68-16.27,11.17,2.25,5.62,2.25,8.24-1.5,14.59.37,18.34,8.23,14.59,10.11,14.22,3-.75,3.74,2.62,9.54,11.13,14.57,13.85,17.47,3,17.24,6.73-4.86,4.87-3,6.74,17.63,6.28,16.09,7.49-9-1.13-7.48,3.37,11.22,7.86,9.35,9-6,1.87-3.37,3S592,547.9,589.8,547.9s-5.24-1.87-4.12,1.12,11.23,11.23,12.35,13.85-5.61.37-5.24,1.87,6.74,8.73,6,10.48c-1.12,2.62,6.6,14.44,6.36,16.09-.37,2.62,4.9,10,6,19.79s3,25.91,2.67,39-4.76,34.43-7.46,42.67-18.85,14.85-18.85,14.85,6.69-12.2,4.87-24.19A54.19,54.19,0,0,0,584.18,662.43Z" transform="translate(-28.16 -92.57)"/><path class="cls-25" d="M575.58,629.49s4.86,1.5,5.24,3.37-1.88,6.74-2.62,5.24S575.58,629.49,575.58,629.49Z" transform="translate(-28.16 -92.57)"/><path class="cls-26" d="M532.53,593.93s7.86,7.49,7.86,5.24S535.15,586.45,532.53,593.93Z" transform="translate(-28.16 -92.57)"/><path class="cls-26" d="M467,531.8s6.74,6.37,5.24,6.37S465.91,538.17,467,531.8Z" transform="translate(-28.16 -92.57)"/><path class="cls-25" d="M455.43,513.84s3.74,11.6,5.24,10.1,0-7.48-1.12-9.35S454.82,512.05,455.43,513.84Z" transform="translate(-28.16 -92.57)"/><path class="cls-26" d="M436.34,462.19a4,4,0,0,1,3,3.74c0,3-.75,11.23-1.87,9S434.85,466.68,436.34,462.19Z" transform="translate(-28.16 -92.57)"/><path class="cls-26" d="M609.26,695.74s-13.1,19.46-10.85,18,13.85-15.72,12.72-12-.37,6.73.75,5.61,7.11-8.23,6.36-5.24-6.36,20.21-3.36,17.22S627,708,633.11,682.58s1.68-25,1.68-25S617.78,681.63,615,687A45.94,45.94,0,0,1,609.26,695.74Z" transform="translate(-28.16 -92.57)"/><path class="cls-26" d="M492.86,390.32s-12.35,16.1-12.35,19.09,7.86,14.6,10.85,14.6,8.61-5.24,10.86-4.49,12,4.86,13.1,3-9-21.71-10.48-25.07S495.24,387.15,492.86,390.32Z" transform="translate(-28.16 -92.57)"/><path class="cls-22" d="M459.18,475.82c3.23-.33,7,1.35,10-.47a8.5,8.5,0,0,0,2.94-4c.47-1,.95-2,1.42-3.05a18,18,0,0,0,1.39-3.15.31.31,0,0,0-.57-.25,16.22,16.22,0,0,0-1.33,2.75l-1.27,2.79c-.73,1.6-1.4,3.51-3,4.48a7.84,7.84,0,0,1-4.7.75,24.34,24.34,0,0,0-4.9-.1c-.18,0-.18.3,0,.28Z" transform="translate(-28.16 -92.57)"/><path class="cls-22" d="M458.43,458.09a8.38,8.38,0,0,0,10.38-5.19c.23-.7-.9-1-1.11-.31a7.83,7.83,0,0,1-9.16,5.09.21.21,0,0,0-.11.41Z" transform="translate(-28.16 -92.57)"/><path class="cls-22" d="M455.8,493.06c2.87.62,5.27,4.29,8.47,3.1a6,6,0,0,0,3-3.47c.38-.89.71-1.79,1.06-2.69a17.78,17.78,0,0,0,1.23-3.43.46.46,0,0,0-.84-.35,14.85,14.85,0,0,0-1.15,2.9c-.33.92-.66,1.84-1,2.76-.53,1.4-1.31,3.11-2.89,3.55-1.42.4-2.79-.47-3.95-1.19a9.35,9.35,0,0,0-3.89-1.66c-.27,0-.33.42-.06.48Z" transform="translate(-28.16 -92.57)"/><path class="cls-25" d="M557.23,243.24s4.88-5.74,3.44-6.88-10.89-2-20.92,2.58-16.62,13.47-14.33,14,10.12.92,10.12.92" transform="translate(-28.16 -92.57)"/><path class="cls-25" d="M208.58,719.37S221,752.18,274.3,754.72s81.24-27.42,86.83-59.41-11.07-64.81-12-66.6" transform="translate(-28.16 -92.57)"/><path class="cls-25" d="M212.35,726s13.21,20.05,60.43,21.58,68.54-21.84,77.68-52.3S349.39,633,341,614.64" transform="translate(-28.16 -92.57)"/><path class="cls-25" d="M217.49,725.77S253,753.19,299.69,737s47-53.17,43.16-89.37-15.53-53.76-15.53-53.76" transform="translate(-28.16 -92.57)"/><path class="cls-25" d="M235.24,730.86s31.44,17.26,67-9.65,35-52.81,32-81.75-16.58-58.91-16.58-58.91" transform="translate(-28.16 -92.57)"/><path class="cls-25" d="M246.77,730.24s28.55,5.18,52.41-25.79S322,647.58,321,626.25s-10.87-55.46-10.87-55.46" transform="translate(-28.16 -92.57)"/><path class="cls-25" d="M298.48,556s24.57,93.43-4.38,137.72" transform="translate(-28.16 -92.57)"/><path class="cls-24" d="M382,141.93c-21.41-11.67-54.77-20.3-100.92-5.64-88.81,28.21-97.69,80.6-131.73,98.06s-5.92-25.52-31.08-28.21S57.54,316.3,133,423.76c45.09,64.2,37.5,137-5,180.68" transform="translate(-28.16 -92.57)"/><path class="cls-25" d="M326.81,154.63c-8.92-1.66-20.47-2.13-35.38-.33-57.12,6.87-93.58,56.2-126.61,91.8s-39.22,11.24-39.91-4.37,3.5-37.51-10-35.31" transform="translate(-28.16 -92.57)"/><path class="cls-25" d="M457.76,536.16S445,544.5,435.58,572.68s-23.89,77.46-50.21,89.21" transform="translate(-28.16 -92.57)"/><path class="cls-25" d="M459.06,541.22s-6.58,4.22-16.44,27.7-10.33,79.83-31.46,90.63-24.84,6.56-24.84,6.56" transform="translate(-28.16 -92.57)"/><path class="cls-25" d="M387.21,671.09s31-5.44,44.14-25.63,4.23-51.65,16-78S462,542.72,462,542.72" transform="translate(-28.16 -92.57)"/><path class="cls-25" d="M462.81,547.32s-6.1,8.45-10.33,27.7,5.5,91.23-42.67,104.06" transform="translate(-28.16 -92.57)"/><path class="cls-25" d="M487.93,674.92s10.1-2.7,6.35-23.83-21.72-68.66-20-91.62" transform="translate(-28.16 -92.57)"/><path class="cls-25" d="M463.13,672.69s9.08-13.14,6.26-37.09-7.38-63.91-1.46-84.36" transform="translate(-28.16 -92.57)"/><path class="cls-25" d="M531.82,413a42.09,42.09,0,0,0,18.72,10.92c11.23,2.81,58,12.94,64.56,31.58" transform="translate(-28.16 -92.57)"/><path class="cls-25" d="M533.38,421.68s7.8,5,24.64,9.67,41.37,11.65,44.86,21.11" transform="translate(-28.16 -92.57)"/><path class="cls-25" d="M416.2,525.45S427,518.52,428,508.12s-.68-31.95,1-38.62" transform="translate(-28.16 -92.57)"/><path class="cls-25" d="M420.62,434.64a58.89,58.89,0,0,1-11.4,22.15c-8.73,10.4-17.45,25.83-23.82,42.94s-9.74,56.69-29.2,57.2" transform="translate(-28.16 -92.57)"/><path class="cls-25" d="M423.85,447a79.86,79.86,0,0,1-11.28,22.52c-8.05,11.07-11.74,20.46-17.78,41.6s-7,34.38-13,37.34" transform="translate(-28.16 -92.57)"/><path class="cls-25" d="M425,456.79s-11.41,20.8-13.42,28.18-4.28,45.6-10.53,51.82" transform="translate(-28.16 -92.57)"/><path class="cls-25" d="M433,482.85s2,19.23,2.68,32,1.31,14.86-2.36,15.31" transform="translate(-28.16 -92.57)"/><path class="cls-25" d="M427.49,463.71s-9.88,16.56-11.56,21.93,2.54,34-3.09,42.52" transform="translate(-28.16 -92.57)"/><line class="cls-25" x1="395.03" y1="378.58" x2="387.7" y2="419.25"/><path class="cls-25" d="M529.85,402.65a43.47,43.47,0,0,0,25.32,17.16c16.88,3.85,48.1,7.86,65.51,23" transform="translate(-28.16 -92.57)"/><path class="cls-25" d="M358.37,149.15s-40.95-33.84-119.69,5.24" transform="translate(-28.16 -92.57)"/><path class="cls-25" d="M305.88,170.37S267,146.54,211.63,196.15" transform="translate(-28.16 -92.57)"/><path class="cls-23" d="M162.84,518.84c1.64-24.56-3.28-53.7-15.06-91-23.58-74.66-33.67-144,13.09-157.18s18.45,79.89,1.31,70.73,54.36-180.83,119.2-154.56" transform="translate(-28.16 -92.57)"/><path class="cls-25" d="M348.93,456.41s-6.81,27.69-41,13.93-52.2-73.55-48.88-103.44,19.46-59.78,36.54-75.91" transform="translate(-28.16 -92.57)"/><path class="cls-25" d="M280.7,347.45a202.61,202.61,0,0,0-6,41.28c-2.37,60.26,41.6,91.76,64,77.67" transform="translate(-28.16 -92.57)"/><path class="cls-25" d="M306.45,287.22a146.41,146.41,0,0,0-10.77,19" transform="translate(-28.16 -92.57)"/><path class="cls-23" d="M394.6,201.49s-29.08,1.64-41.16-3.3,12.62-18.11-1.1-18.66S287,193.25,259.59,239.35s-27.44,84-27.44,84" transform="translate(-28.16 -92.57)"/><path class="cls-25" d="M343.05,214.29s-28.57,7.5-37.36-4.57-13.82-5.81-13.82-5.81" transform="translate(-28.16 -92.57)"/><path class="cls-25" d="M300.21,229.48s-10.43,1.09-16.47-3.3-8.52-8-12.47-3.09" transform="translate(-28.16 -92.57)"/><path class="cls-25" d="M275.51,245.94s-10.41-4.69-18.38-2.35" transform="translate(-28.16 -92.57)"/><path class="cls-25" d="M156.76,471.38a823.65,823.65,0,0,0-33.15-80.86c-20.25-42.58-30.12-92.42-21.81-123.58s8.83,12.46,22.33,14,56.07-51.87,56.07-51.87" transform="translate(-28.16 -92.57)"/><path class="cls-25" d="M389.42,855s-15.09,33,2.77,37.92,44.92,11.91,93.64-18.95,74.69-49.25,99.59-85a276.25,276.25,0,0,0,41.13-89.31" transform="translate(-28.16 -92.57)"/><path class="cls-25" d="M377.62,722.41s-3.29,10.81,31.35,22.17,62.78,37.89,125.57,26.52,85-70.36,85-70.36" transform="translate(-28.16 -92.57)"/><path class="cls-25" d="M393.83,757.62s-3.27,6.45,22.17,20,95.27,40,144.52,7,58.46-79,58.46-79" transform="translate(-28.16 -92.57)"/><path class="cls-25" d="M408.72,828.21s8.8-4.79,27.11,0,86.78,14.58,105.77-22.71" transform="translate(-28.16 -92.57)"/><path class="cls-25" d="M433.31,814.35s29.64,12.8,57.78,8.4S517.89,809,517.89,809" transform="translate(-28.16 -92.57)"/><path class="cls-25" d="M443.28,807.83s42.11,13.9,50.89,2" transform="translate(-28.16 -92.57)"/><path class="cls-25" d="M403.4,830.94s-8.92,10.12-5.3,17.38,38.22,2.87,83.86.4,87.9-42.82,111.68-94.18" transform="translate(-28.16 -92.57)"/><path class="cls-25" d="M392.39,848.11s-3.56,9.08-2.35,9.08,12.5,8.47,48.78,4,60.54-11.46,65.14-16.61" transform="translate(-28.16 -92.57)"/><path class="cls-25" d="M386.73,862s-6,12.93,4.92,18.57S445.49,898.38,500,864.89" transform="translate(-28.16 -92.57)"/><path class="cls-23" d="M583.4,548.44s13.17,10.18,34.72,29.93,26.65,37.42,20,58.85" transform="translate(-28.16 -92.57)"/><path class="cls-23" d="M646,578.82c-.25-12.12,4.69-23.14-4.53-47.14s-43.09-23.34-73.62-27.53-38.9-21.54-38.9-21.54l-11.37-10.77" transform="translate(-28.16 -92.57)"/><path class="cls-25" d="M516.37,454.48a87.66,87.66,0,0,1,45.49-9.58c25.74,1.79,33.82,5.17,33.82,5.17" transform="translate(-28.16 -92.57)"/><path class="cls-25" d="M514,461.06s35.91-8.38,65.24-4.79,62.68,5.36,73,23.35,5,30.6,5.49,47" transform="translate(-28.16 -92.57)"/><path class="cls-25" d="M518.2,465.85s-6.61-6,28.1,1.2,86.78,3.59,96.36,32.91S625.9,558.62,628.29,605.3s-3,77.8-22.74,89.17" transform="translate(-28.16 -92.57)"/><path class="cls-25" d="M518.77,477.82s21.54,4.19,55.06,12.57,38.3,25.13,37.11,48.48,32.23,27.43,33.17,52" transform="translate(-28.16 -92.57)"/><path class="cls-25" d="M594.18,570s19.75,15,25.13,31.12-.59,24.54,4.79,36.51,12.57,10.77,9,25.73" transform="translate(-28.16 -92.57)"/><path class="cls-25" d="M556.47,511.34a270.22,270.22,0,0,1,40.1,15.56c20.95,10.17,25.14,11.37,20.95,77.2s15.56,71.22,15.56,71.22" transform="translate(-28.16 -92.57)"/><path class="cls-22" d="M465.19,284.6c-.55-3.35-3.85-4.51-6.88-4.13-3.37.42-7.67,2.91-11,.95-2.73-1.62-2.92-5.87-2.62-8.69s1.32-5.82,4.3-6.31l-.67-1.61a13.17,13.17,0,0,0-6.37,7.66,9.41,9.41,0,0,0,1.91,8.62c2.59,2.93,6.51,2.61,10,3.32,1.65.34,3.71,1,4.48,2.65.53,1.13.47,3.05-.88,3.6-1.11.44-.62,2.26.5,1.81,2.58-1.05,3.22-4.29,1.85-6.6-1.81-3-5.78-3.31-8.91-3.69-2-.24-4.07-.63-5.53-2.12a7.28,7.28,0,0,1-2-4.59c-.26-4,2.54-7.26,5.78-9.14a.88.88,0,0,0-.67-1.61c-6.26,1.06-6.56,10.55-4.52,15.08,1.5,3.32,4.86,4.07,8.19,3.46,3.95-.72,10.22-4,12.18,1.56a.4.4,0,0,0,.77-.22Z" transform="translate(-28.16 -92.57)"/><path class="cls-22" d="M510,291.92c1.55-4.05,6.13-4.65,9.93-4.41s7.75,1.05,11.42-.47a12.38,12.38,0,0,0,6.46-6.26c1.21-2.69,1.52-6.1-1.28-7.88-3.21-2-6.94-.24-9.21,2.31l1.32.77c1-3.58,5.69-4.11,8-1.45,2.65,3.11,1.38,7.46-1.51,9.88-4.66,3.91-13.31,2-15.87,8.62-1.44,3.71.09,9.11-4.24,11.2-.72.34-.18,1.32.5,1.2,4.53-.83,4.08-6.87,4.65-10.23.78-4.72,4.89-5.8,8.92-6.87,3.7-1,7.42-2.33,9.36-5.91a7.77,7.77,0,0,0-2.07-10.07c-3.22-2.24-8.21-.69-9.23,3.21-.19.72.79,1.39,1.33.77,1.3-1.5,3.08-2.9,5.17-2.83a3.6,3.6,0,0,1,3.68,4c-.37,3.79-3.47,7.18-7,8.41-6.53,2.3-18.36-3.6-21.35,5.68-.22.67.8.92,1,.29Z" transform="translate(-28.16 -92.57)"/><path class="cls-25" d="M394.9,679.78s45.55-2.57,85.34,18.43,71.84,47.53,92.84,39.79,36.18-42.26,36.18-42.26" transform="translate(-28.16 -92.57)"/><path class="cls-25" d="M381.39,708.6s33.64-.44,80.06,15S552.74,756.31,573.08,748,614,700.42,614,700.42" transform="translate(-28.16 -92.57)"/><path class="cls-25" d="M198.69,422.2s19,64,78.1,102.58" transform="translate(-28.16 -92.57)"/><path class="cls-25" d="M225.6,448.45s6.46,22.67,41.54,54.71" transform="translate(-28.16 -92.57)"/><path class="cls-25" d="M230.11,440.1s15.81,17.83,24.11,27.39" transform="translate(-28.16 -92.57)"/><path class="cls-25" d="M430.26,187.26s-9.42-18.07-46.18-20.78,9,8.8,9,14.79-25.53-27.11-92.35,10.09-93.94,152.56-81.33,190.7" transform="translate(-28.16 -92.57)"/><path class="cls-23" d="M190.69,352.59s-26.4,23.52-22.42,60.89S221.7,529.13,170,638.87c-32.3,68.59-92.48,85.3-133.06,88.19" transform="translate(-28.16 -92.57)"/><path class="cls-25" d="M168.86,394s-9.76,23.1,5.82,93,8.07,147.28-62.89,184.37a185,185,0,0,1-25,10.84" transform="translate(-28.16 -92.57)"/><path class="cls-25" d="M44.53,675.7a157.31,157.31,0,0,0,64.58-18.36c56.44-30.64,74.65-85.52,72-125.27" transform="translate(-28.16 -92.57)"/><path class="cls-25" d="M68.41,657.23a133,133,0,0,0,43.38-17.63c56.44-36,59-92.94,50.53-141.9" transform="translate(-28.16 -92.57)"/><path class="cls-25" d="M246.15,1027.66s32.5-30.75,70.22-23.08,44.73,40.19,33.87,69.63" transform="translate(-28.16 -92.57)"/><path class="cls-25" d="M281.39,998.67s69.19-23.5,79.89,32.11" transform="translate(-28.16 -92.57)"/><path class="cls-25" d="M239.82,1034.15s43.95-32.13,77.83-14.23,34.93,49.72,22.89,72.16" transform="translate(-28.16 -92.57)"/></g><g id="Layer_5" data-name="Layer 5"><path class="cls-22" d="M532.53,593.93s7.86,7.49,7.86,5.24S535.15,586.45,532.53,593.93Z" transform="translate(-28.16 -92.57)"/><path class="cls-22" d="M486.87,547.52s-1.5-5.24.38-6,5.24.75,4.86,3.37S487.33,552.31,486.87,547.52Z" transform="translate(-28.16 -92.57)"/><path class="cls-22" d="M467,531.8s6.74,6.37,5.24,6.37S465.91,538.17,467,531.8Z" transform="translate(-28.16 -92.57)"/><path class="cls-22" d="M436.34,462.19a4,4,0,0,1,3,3.74c0,3-.75,11.23-1.87,9S434.85,466.68,436.34,462.19Z" transform="translate(-28.16 -92.57)"/><path class="cls-22" d="M609.26,695.74s-13.1,19.46-10.85,18,13.85-15.72,12.72-12-.37,6.73.75,5.61,7.11-8.23,6.36-5.24-6.36,20.21-3.36,17.22S627,708,633.11,682.58s1.68-25,1.68-25S617.78,681.63,615,687A45.94,45.94,0,0,1,609.26,695.74Z" transform="translate(-28.16 -92.57)"/><path class="cls-27" d="M611.14,611.1c-1.1-9.82-6.37-17.17-6-19.79.24-1.65-7.48-13.47-6.36-16.09.75-1.75-5.61-9-6-10.48s6.37.75,5.24-1.87S586.8,552,585.68,549s1.87-1.12,4.12-1.12-10.86-9.73-13.48-10.86,1.5-1.87,3.37-3-7.86-4.49-9.35-9,5.95-2.16,7.48-3.37-14.22-5.62-16.09-7.49,2.76-3,3-6.74-12.2-4-17.24-6.73-13.82-10.48-14.57-13.85-1.87-3-3.74-2.62-8.24-10.48-10.11-14.22-.37-15.72-.37-18.34-1.13-6.74-2.25-8.24,14.09-10.5,16.27-11.17.6-7.63.6-7.63-3.77-3.28-.74-3.66c1.37-.17-.75-4.12-1.12-6.36s-11.27-13.47-13.14-15.34S512,387.7,512,387.7l3-1.12c3-1.12-1.12-5.24-1.12-6.36s4.49,6.74,6,7.48,2.24-4.11,2.24-4.11,2.62,1.87,2.62-.38-3-6-3.36-8.61-.38-3.74-1.88-4.49-.74-4.86-.74-6,3.36,3.75,3.36,3.75l1.13-4.49c.75-3-3.75-9.74-4.49-13.48s-1.13-10.48-.75-12.72,4.11,3.36,4.49-.38-4.49-20.58-4.49-20.58-4.12-21.34-19.84-29.57-25.83-8.24-40.05,12.35-17.22,24.33-14.6,26.2,3.37,1.12,3.75,4.12-3.37,8.6-6.37,11.22-11.22,9.74-11.22,13.1,1.49,13.85,3.74,13.48,12-14.22,12.35-11.6-5.61,8.6-4.12,9.35a3.62,3.62,0,0,0,3,0s-7.11,8.61-6.37,11.23,5.62,5.24,5.62,5.24-6,12.73-4.49,14.22l1.49,1.5s5.24-3.37,6.37-1.87,7.48,3,7.48,6.74-.75,10.85-2.62,12-4.86.75-6.36.75-6.36,7.86-6,9.36.82,4.85,1.87,5.24c3,1.12-1.49.37-1.87,1.5s-2.2,6.28-.75,7.11a4.73,4.73,0,0,1,2.25,4.49s-2.25.37-2.62,1.87-.38,14.6,1.12,13.85,5.24-3,5.24-3l-.37,6s-3.37,1.5-3.37,4.49-.38,10.48,1.12,11.23,4.12,1.87,4.12,1.87-1.87,9.74.37,11.61l2.25,1.87s-3,7.11-.75,10.85,2.25,5.62,3.37,4.87,2.24-4.87,2.24-4.87,1.13,7.86,4.5,9.73a3.29,3.29,0,0,0,4.86-1.49s-.37,9,1.5,12,3.74,5.24,4.86,3.75a10.21,10.21,0,0,0,1.5-2.62l2.25,2.24s.75,10.86,3,11.61,6.36-1.13,6.36-2.25.38-8.23.38-8.23S485,537,488,538.17s7.49,3.36,7.49,3.36-1.12,10.11.37,11.23a21.25,21.25,0,0,0,3,1.87s-4.49,1.5-3.74,3.75,8.6,10.1,10.1,7.86a13.91,13.91,0,0,0,1.87-5.24l4.12,5.61s-5.24,3-3.74,4.12,10.1,9.73,10.48,7.48-1.5-7.11-1.5-7.11,2.25,1.5,2.62,2.62,6.83,12.47,8.23,11.23l3.37-3s2.62,6.36,4.12,7.11,6.36,2.62,6.36,2.62.75,4.86,3.37,6.36a25.74,25.74,0,0,0,6.74,2.25s-.38,5.61,1.49,7.11,9,4.86,9,4.86-2.62,2.25-.75,3.75,3.74,3.37,5.24,3,3.37-4.12,3.37-4.12.37,3.75,2.24,3.75,5.24-.38,5.24-.38-.37,9.73,1.13,10.48a29.33,29.33,0,0,0,4.86,1.5s-.3,6.55.75,7.86c1.5,1.87-2.62.75-2.25,3.37s3.37,6.36,3.37,6.36c1.5,3-2.24,4.12-1.87,6.36s1.12,8.24,1.12,8.24a54.19,54.19,0,0,1,8.19,21c1.82,12-4.87,24.19-4.87,24.19s16.15-6.61,18.85-14.85,7.1-29.61,7.46-42.67S612.25,620.92,611.14,611.1ZM515.32,422.51c-1.13,1.87-10.86-2.24-13.1-3S494.36,424,491.36,424s-10.85-11.6-10.85-14.6,12.35-19.09,12.35-19.09c2.38-3.17,10.48,3.75,12,7.12S516.44,420.64,515.32,422.51Z" transform="translate(-28.16 -92.57)"/><path class="cls-22" d="M570.37,187.45c1.54,2.37,5.94,2.18,7.24-.32a7.21,7.21,0,0,0,.64-2.63,15.68,15.68,0,0,0-.11-5.25c-1-4-4.77-7.62-3.81-11.65a5.93,5.93,0,0,1,11.4,0c.18-3.67-3.71-6.57-7.56-7a10.82,10.82,0,0,0-7.69,1.93,7.44,7.44,0,0,0-3,6.83c.21,1.37.87,2.68.92,4.07a5,5,0,0,1-3.29,4.68c-2,.73-8.23.37-9.6-1.15" transform="translate(-28.16 -92.57)"/><path class="cls-22" d="M565,243a7.14,7.14,0,0,1,7.41,5.61c.45,2.92-1,5.73-2.24,8.47s-2.21,5.79-.84,8.56,5.09,4.77,8.75,6a16,16,0,0,0,4.6,1c4.42.13,8.2-3.4,7.25-6.77.48,4.47-4.57,8.67-10.34,8.61-4.11,0-7.87-1.9-11.28-3.77-4.69-2.57-9.71-6-9.5-10.42.11-2.32,1.74-4.38,2.39-6.63a4.58,4.58,0,0,0-3.12-5.91" transform="translate(-28.16 -92.57)"/><path class="cls-28" d="M569,186.13s-25.15-18.3-74.56-32S368,135.56,311.25,160.9s-91.48,82.71-108,137.22S192.12,402.7,192.12,402.7s6.55,24.3,16.66,40-5.24-14.59-2.62-13.47,17.22,28.07,31.06,43-13.47-20.58-9.35-22.08,6.36,5.61,6.73,3.37-7.11-15.72-4.49-13.48,15.35,18.72,16.1,17.59-3.37-6.36-1.87-6a50.15,50.15,0,0,0,5.24,1.12s-2.44-22.06-3.51-39.37-2.22-15.61,5.8-55.73,41-65.09,69.55-78.46,74.5-16.58,74.5-16.58c11.23.38,23.95-.75,21-1.49s9-6,13.1-7.12-1.12,7.49,1.5,7.49,21.33-10.11,21.33-10.11a16,16,0,0,0-5.61.38c-3.75.75,7.86-7.49,13.85-9.73s-3.37,4.49-3.37,6.36,45.66-22.08,43.41-18.34-6.73,11.6,21.34,8.24,49.78-12.73,53.15-28.45S569,186.13,569,186.13ZM416.88,253.34c-4.49,1.87-15,6.73-12.35,3,0,0,19.46-13.1,21.33-12.73S421.37,251.46,416.88,253.34Zm13.43-67.55c-1.51,2.27-13.63,2.27-20.45,2.27s-3,2.27,1.51,4.55-14.39-1.52-12.87,3.78c.65,2.31-14.4,7.58-28,9.85s-24.24-4.54-28.79-3.79,2.27,7.58,4.55,10.61-74.71,2.13-112.59,83.19c-20.71,44.31-21.8,83.46-18.54,109.85a260.79,260.79,0,0,0,8.4,35s-5.7-13.1-8.4-35c-5.13-29.11-8.52-72.28,4.18-113.44,22-71.21,84.52-122.78,139.82-130.36S428.8,182,428.8,182,431.83,183.52,430.31,185.79Z" transform="translate(-28.16 -92.57)"/><path class="cls-29" d="M210.77,367c-1.39,18.07.49,36,6.57,52.78-.84-4.06-1.62-8.62-2.24-13.65A302.9,302.9,0,0,1,210.77,367Z" transform="translate(-28.16 -92.57)"/><path class="cls-30" d="M219.63,425.61c-.38-.88-.73-1.78-1.08-2.67,1.14,4.89,2.22,8.92,3.07,11.94C221.59,431.47,221.34,428.18,219.63,425.61Z" transform="translate(-28.16 -92.57)"/><path class="cls-31" d="M569,186.13s-25.15-18.3-74.56-32S368,135.56,311.25,160.9s-91.48,82.71-108,137.22S192.12,402.7,192.12,402.7s6.55,24.3,16.66,40-5.24-14.59-2.62-13.47,17.22,28.07,31.06,43c8,8.68,2.22.37-3.28-8.43a63.77,63.77,0,0,1-12.31-27.25V436a141.68,141.68,0,0,1-4.29-16.24c-6.08-16.8-8-34.71-6.57-52.78-1-23.05.72-49.06,8.51-74.31,22-71.21,84.52-122.78,139.82-130.36S428.8,182,428.8,182a4.45,4.45,0,0,1,1.59,1.41c45.75,5.23,91.49,5.86,137.24,19.2a33.43,33.43,0,0,1,8.49,3.81C577.46,193,569,186.13,569,186.13Z" transform="translate(-28.16 -92.57)"/><circle class="cls-22" cx="42.22" cy="374.6" r="4.66"/><circle class="cls-22" cx="50.62" cy="364.97" r="1.87"/><circle class="cls-22" cx="101.29" cy="255.23" r="5.91"/><circle class="cls-22" cx="73.93" cy="229.74" r="2.8"/><circle class="cls-22" cx="40.81" cy="563.82" r="3.42"/><circle class="cls-22" cx="205.12" cy="553.67" r="5.91"/><circle class="cls-22" cx="201.7" cy="540.3" r="1.87"/><circle class="cls-22" cx="97.87" cy="513.34" r="9.02"/><circle class="cls-22" cx="148.85" cy="409.73" r="4.97"/><circle class="cls-22" cx="207.42" cy="454.2" r="6.51"/><circle class="cls-22" cx="272.27" cy="520.09" r="4.66"/><circle class="cls-22" cx="302.43" cy="595.63" r="3.11"/><circle class="cls-22" cx="292.17" cy="556.78" r="2.18"/><circle class="cls-22" cx="323.25" cy="598.43" r="2.8"/><circle class="cls-22" cx="60.43" cy="588.43" r="4.97"/><circle class="cls-22" cx="172.17" cy="145.18" r="6.53"/><circle class="cls-22" cx="150.41" cy="138.96" r="4.04"/><circle class="cls-22" cx="257.66" cy="62.8" r="3.11"/><circle class="cls-22" cx="276.95" cy="116" r="3.33"/><circle class="cls-22" cx="473.72" cy="170.67" r="5.91"/><circle class="cls-22" cx="72.38" cy="295.95" r="1.24"/><circle class="cls-22" cx="70.04" cy="337.26" r="11.56"/><circle class="cls-22" cx="263.88" cy="285.38" r="3.73"/><circle class="cls-22" cx="120.25" cy="269.84" r="3.73"/><circle class="cls-22" cx="591.54" cy="387.35" r="3.73"/><circle class="cls-22" cx="529.68" cy="393.88" r="4.66"/><circle class="cls-22" cx="348.75" cy="401.34" r="5.28"/><circle class="cls-22" cx="365.53" cy="389.52" r="2.18"/><circle class="cls-22" cx="483.36" cy="545.27" r="3.11"/><circle class="cls-22" cx="626.67" cy="449.83" r="4.66"/><circle class="cls-22" cx="601.18" cy="518.85" r="3.42"/><circle class="cls-22" cx="479" cy="51.6" r="1.24"/><circle class="cls-22" cx="463.77" cy="38.24" r="2.8"/><circle class="cls-22" cx="474.34" cy="43.21" r="1.55"/><circle class="cls-22" cx="538.38" cy="58.75" r="2.18"/><circle class="cls-22" cx="613.93" cy="185.7" r="6.84"/><circle class="cls-22" cx="562.32" cy="190.25" r="1.24"/><circle class="cls-22" cx="534.03" cy="239.06" r="1.55"/><circle class="cls-22" cx="269.16" cy="701.64" r="6.53"/><circle class="cls-22" cx="417.45" cy="758.53" r="3.11"/><circle class="cls-22" cx="457.86" cy="680.81" r="6.22"/><circle class="cls-22" cx="419.63" cy="626.41" r="2.8"/><circle class="cls-22" cx="449.16" cy="604.96" r="4.35"/><circle class="cls-22" cx="549.57" cy="643.82" r="4.04"/><circle class="cls-22" cx="589.36" cy="712.83" r="6.53"/><circle class="cls-22" cx="492.99" cy="745.79" r="3.42"/><circle class="cls-22" cx="459.73" cy="861.12" r="7.46"/><circle class="cls-22" cx="434.24" cy="869.83" r="3.73"/><circle class="cls-22" cx="210.1" cy="814.18" r="7.15"/><circle class="cls-22" cx="213.52" cy="798.95" r="2.49"/><circle class="cls-22" cx="92.9" cy="907.13" r="5.6"/><circle class="cls-22" cx="58.08" cy="877.29" r="9.33"/><circle class="cls-22" cx="298.46" cy="967.21" r="5.36"/><circle class="cls-22" cx="240.25" cy="1047.65" r="10.57"/><circle class="cls-22" cx="222.84" cy="1036.45" r="2.49"/><circle class="cls-22" cx="243.67" cy="1020.6" r="5.91"/><circle class="cls-22" cx="384.32" cy="13.68" r="13.68"/><path class="cls-22" d="M262.11,781.77s24.4-10.81,27-6-19,20.93-27.56,21S252.11,785.71,262.11,781.77Z" transform="translate(-28.16 -92.57)"/><path class="cls-22" d="M390.84,999.52s-12.27,6.13-7.36,18.39,14.72,8.59,20.85,0S397.12,993.87,390.84,999.52Z" transform="translate(-28.16 -92.57)"/><path class="cls-22" d="M85.71,1044.51s18.93,16.69,20.49,27.32-39.23,15.88-44.52,2.8S71.43,1037.81,85.71,1044.51Z" transform="translate(-28.16 -92.57)"/><path class="cls-22" d="M550.27,910s-22.08,25.76-14.72,31.89,25.75-6.13,25.75-14.72S555.89,902.85,550.27,910Z" transform="translate(-28.16 -92.57)"/><circle class="cls-22" cx="7.45" cy="636.07" r="7.45"/><circle class="cls-22" cx="15.99" cy="582.82" r="3.34"/><circle class="cls-22" cx="43.18" cy="1035.88" r="8.93"/></g><g id="Layer_7" data-name="Layer 7"><path class="cls-32" d="M486.87,547.52s-1.5-5.24.38-6,5.24.75,4.86,3.37S487.33,552.31,486.87,547.52Z" transform="translate(-28.16 -92.57)"/><path class="cls-32" d="M465.17,510l5.15.19a2.53,2.53,0,0,0,1.7-.33,2.57,2.57,0,0,0,.71-1.13l2.59-6.45" transform="translate(-28.16 -92.57)"/><path class="cls-32" d="M473,491c1.77-.54,4,.74,5.38-.52a3.74,3.74,0,0,0,.77-1.25l2.21-4.93" transform="translate(-28.16 -92.57)"/><path class="cls-32" d="M476,524.73a41.32,41.32,0,0,0,9.08-.89,1.56,1.56,0,0,0,.63-.24,1.6,1.6,0,0,0,.45-.79,24.82,24.82,0,0,0,1-9.34" transform="translate(-28.16 -92.57)"/><path class="cls-32" d="M483.13,504.83l4.48.08a2.08,2.08,0,0,0,1-.17,2,2,0,0,0,.77-1.33l1.11-4.19" transform="translate(-28.16 -92.57)"/><path class="cls-32" d="M494.44,502.77c2.76.4,5.78.76,8.17-.68,3-1.82,3.91-5.76,4.45-9.26" transform="translate(-28.16 -92.57)"/><path class="cls-32" d="M502.61,532.59c2.15-.55,4.67.7,6.54-.49,1.28-.81,1.72-2.44,2.05-3.92l.69-3.11" transform="translate(-28.16 -92.57)"/><path class="cls-32" d="M514.19,548.38l6.18-.13a1.76,1.76,0,0,0,1-.22,1.73,1.73,0,0,0,.56-1.12l1.32-5.73" transform="translate(-28.16 -92.57)"/><path class="cls-32" d="M525.05,561.36l4.36,0a1.67,1.67,0,0,0,1.23-.32,1.7,1.7,0,0,0,.36-.9l1.42-7.79" transform="translate(-28.16 -92.57)"/><path class="cls-32" d="M530.67,569.23l0,8.93a5.68,5.68,0,0,0-3.35.75" transform="translate(-28.16 -92.57)"/><path class="cls-32" d="M537.44,573.47a19.54,19.54,0,0,1,4.78-.93l.06-2.93" transform="translate(-28.16 -92.57)"/><path class="cls-32" d="M551.63,568l4.84.5a1.83,1.83,0,0,0,1.09-.11c1-.56.8-2.7,1.9-2.48" transform="translate(-28.16 -92.57)"/><path class="cls-32" d="M545.26,585l7.4,0,2.27-4.49" transform="translate(-28.16 -92.57)"/><path class="cls-32" d="M556.49,595.08l4.78-.08a15.12,15.12,0,0,1,1.24-4" transform="translate(-28.16 -92.57)"/><path class="cls-32" d="M570.33,591.32a8.92,8.92,0,0,0,3.7.31l.47-1.8" transform="translate(-28.16 -92.57)"/><path class="cls-32" d="M578.31,601.6a2.94,2.94,0,0,0,4.26-2.42" transform="translate(-28.16 -92.57)"/><path class="cls-32" d="M592,615.43a3.18,3.18,0,0,0,4.28.71" transform="translate(-28.16 -92.57)"/><path class="cls-32" d="M564,607.77l3.69,0a2,2,0,0,0,1.08-.2,2.07,2.07,0,0,0,.73-1.21l1.32-4.31" transform="translate(-28.16 -92.57)"/><path class="cls-13" d="M449,238.09c-3.48,2-8.18,1-11.48,3.33a6.92,6.92,0,0,0-2.53,7.72" transform="translate(-28.16 -92.57)"/><path class="cls-13" d="M430.31,223.81l-8.21,2.79a11.59,11.59,0,0,1-2.56,8.35" transform="translate(-28.16 -92.57)"/><path class="cls-13" d="M411.76,224.81A11.71,11.71,0,0,0,400.91,237" transform="translate(-28.16 -92.57)"/><path class="cls-13" d="M465.94,226.89A12.7,12.7,0,0,0,453.76,239" transform="translate(-28.16 -92.57)"/><path class="cls-13" d="M400.82,244.2l-7.76,3.58a15.85,15.85,0,0,1-.17,7.77" transform="translate(-28.16 -92.57)"/><path class="cls-13" d="M386.94,220.66a10.9,10.9,0,0,0-6.25,12.12" transform="translate(-28.16 -92.57)"/><path class="cls-13" d="M380.91,241.79c-2.54,1.72-5.17,3.52-6.71,6.18s-1.62,6.43.66,8.49" transform="translate(-28.16 -92.57)"/><path class="cls-13" d="M362.55,245.69c1.23.55-.32,2.19-1.49,2.87-3.43,2-3.42,7.85,0,9.83" transform="translate(-28.16 -92.57)"/><path class="cls-13" d="M346.26,241.73c-4.31,3.18-4.87,10.32-1.1,14.14" transform="translate(-28.16 -92.57)"/><path class="cls-13" d="M332.56,254c-1.65,2.17-2.95,4.79-2.77,7.51s2.23,5.44,4.95,5.6" transform="translate(-28.16 -92.57)"/><path class="cls-13" d="M317.54,249.78c-4.05,3.15-2.19,10.93,2.85,11.92" transform="translate(-28.16 -92.57)"/><path class="cls-13" d="M304.57,263.76l-3.64,7.52,7.26,5.58" transform="translate(-28.16 -92.57)"/><path class="cls-13" d="M280.75,277.07a5.28,5.28,0,0,0,5.9,8.34" transform="translate(-28.16 -92.57)"/><path class="cls-13" d="M265.35,298.06a48.37,48.37,0,0,0-.08,6.37l5.82.05" transform="translate(-28.16 -92.57)"/><path class="cls-13" d="M255,319.57c-.22.76.44,1.6,1.53,1.92a3.82,3.82,0,0,0,3.22-.51" transform="translate(-28.16 -92.57)"/></g></svg>