<svg id="Layer_7" data-name="Layer 7" xmlns="http://www.w3.org/2000/svg" viewBox="0 0 146.59 70.19"><defs><style>.cls-1{fill:#fff;fill-rule:evenodd;}</style></defs><path class="cls-1" d="M59.1,32.77S53.81,8.08,53.7,7.46s.09-.85.09-.85H45.15c.3.23.1.83.1.83s-5.59,24.41-5.78,25.19-.59.94-.59.94H47c-.21-.18-.16-.75-.16-.75h0l.53-3.58h4s.41,2.91.48,3.55-.16.78-.16.78h7.88c-.3-.11-.51-.8-.51-.8Zm-11-8.45,1.31-8.71,1.26,8.71Z" transform="translate(-26.35 -6.03)"/><path class="cls-1" d="M72.57,19.65s4.76-.53,4.6-6.65c-.23-6.68-8.45-6.34-8.45-6.34h-9a2.52,2.52,0,0,1,.28,1V32.61a2.59,2.59,0,0,1-.26,1h10c2.57,0,8.55-1.1,8.39-7.4s-5.57-6.57-5.57-6.57Zm-2.4-5.07a2.41,2.41,0,0,1-2.73,2.73c0-2.68,0-5.2,0-5.2a2.34,2.34,0,0,1,2.78,2.47Zm-2.8,13.17V22.21h0a2.56,2.56,0,0,1,3,2.8,2.52,2.52,0,0,1-3,2.74Z" transform="translate(-26.35 -6.03)"/><path class="cls-1" d="M88.05,15.8c-1.42-1.14-2.15-3.21.51-3.44a7.22,7.22,0,0,1,4.65,1.83h0V7.07h0a.92.92,0,0,1-1,0,13.41,13.41,0,0,0-2.47-.75A9.85,9.85,0,0,0,82.12,7.6c-1.56,1.14-2.66,2.36-2.84,6.14s1.41,5.39,3.6,7.58a20.93,20.93,0,0,1,4,3.5c.78.78.82,2.59-1.74,2.84-2.66.09-5.8-2.65-5.8-2.65v7.67c.28-.18.76,0,1.81.57a11,11,0,0,0,10.29-.62c3-2,3.94-7.05,3-10s-3.94-4.84-6.39-6.8Z" transform="translate(-26.35 -6.03)"/><path class="cls-1" d="M105.28,6.06s-10-1.4-10,14,10,14.15,10,14.15,10,.87,10-14.15-10-14-10-14Zm0,21.82s-2.4.93-2.4-7.82,2.4-8.07,2.4-8.07,2.28-.68,2.28,8.07-2.28,7.82-2.28,7.82Z" transform="translate(-26.35 -6.03)"/><path class="cls-1" d="M124.45,27.27V7.57a1.6,1.6,0,0,1,.21-.93h-8a1.45,1.45,0,0,1,.25,1V32.45c0,1-.25,1.1-.25,1.1h13.22V27a2,2,0,0,1-1,.27h-4.47Z" transform="translate(-26.35 -6.03)"/><path class="cls-1" d="M141.9,7.71V26.13h0A1.86,1.86,0,0,1,140,28.07a2.15,2.15,0,0,1-2.15-1.94V7.6c0-.76.25-1,.25-1h-7.78c.21.11.3,1,.3,1h0V26.13h0s.19,8.08,9.24,8.08S149,26.08,149,26.08V7.55a1.77,1.77,0,0,1,.22-.87H141.6a2.15,2.15,0,0,1,.3,1Z" transform="translate(-26.35 -6.03)"/><path class="cls-1" d="M150.12,13.19a1.91,1.91,0,0,1,1-.23h3.41V32.59c0,.75-.23,1-.23,1h8c-.25-.25-.25-1-.25-1h0V13h3.48a1.5,1.5,0,0,1,.87.23h0V6.66H150.12v6.53Z" transform="translate(-26.35 -6.03)"/><path class="cls-1" d="M170.3,6.16a2.61,2.61,0,1,0,2.64,2.6,2.61,2.61,0,0,0-2.64-2.6Zm0,4.78a2.11,2.11,0,0,1-2.12-2.18,2.12,2.12,0,1,1,4.24,0,2.12,2.12,0,0,1-2.12,2.18Z" transform="translate(-26.35 -6.03)"/><path class="cls-1" d="M171.5,8.12c0-.6-.35-.86-1.06-.86H169.3v3h.45V9h.53l.79,1.3h.51l-.86-1.33h0a.77.77,0,0,0,.78-.82Zm-1.75.46V7.65h.62c.32,0,.66.07.66.44s-.35.49-.73.49h-.55Z" transform="translate(-26.35 -6.03)"/><path class="cls-1" d="M146.4,75.56h7.88c-.3-.11-.51-.8-.51-.8s-5.29-24.69-5.4-25.31.09-.85.09-.85h-8.63c.29.23.09.83.09.83s-5.59,24.42-5.77,25.19-.6.94-.6.94h8.13c-.2-.18-.16-.75-.16-.75h0l.53-3.58h4s.41,2.91.48,3.55-.16.78-.16.78Zm-3.6-9.25,1.31-8.7,1.26,8.7Z" transform="translate(-26.35 -6.03)"/><path class="cls-1" d="M82.12,48.06s-10-1.4-10,14,10,14.15,10,14.15,10,.87,10-14.15-10-14-10-14Zm0,21.82s-2.4.92-2.4-7.83S82.12,54,82.12,54s2.28-.68,2.28,8.07-2.28,7.83-2.28,7.83Z" transform="translate(-26.35 -6.03)"/><path class="cls-1" d="M101.52,48.62h-8a1.65,1.65,0,0,1,.27.8V74.69a2.76,2.76,0,0,1-.21,1h8.23a9.86,9.86,0,0,0,9.43-6.53,22.16,22.16,0,0,0,.21-13.4c-2.18-7.47-9.92-7.1-9.92-7.1Zm-.59,21.44V54h0s3.68-.53,3.68,8-3.68,8.06-3.68,8.06Z" transform="translate(-26.35 -6.03)"/><path class="cls-1" d="M133,74.94l-5.23-13.81h0s5.09-11.07,5.34-11.57a4.2,4.2,0,0,1,.64-.92h-8.5c.14.14.1.71.1.71h0l-3.85,10.36h0V49.47a1,1,0,0,1,.25-.8h-8c.21.11.3.77.3.77v25.2a1.56,1.56,0,0,1-.27,1h8.06c-.25-.25-.28-1.08-.28-1.08h0V63.35h0s3.42,10.76,3.6,11.31a1.09,1.09,0,0,1-.14,1h8.43a2,2,0,0,1-.43-.68Z" transform="translate(-26.35 -6.03)"/><path class="cls-1" d="M67.19,74.72c.11-.62,5.4-25.31,5.4-25.31s.21-.69.5-.8H65.22s.22.14.16.78-.49,3.55-.49,3.55h0l-2,13.63L60.86,52.94l-.52-3.58h0s-.05-.57.16-.75H52.37s.41.16.59.94l5.77,25.19s.21.6-.09.83h8.64s-.21-.23-.09-.85Z" transform="translate(-26.35 -6.03)"/><path class="cls-1" d="M93.78,41.4c-3.48,2.66-4.9,3.69-4.9,3.69h0l4.17-7.63h-1.7a41.18,41.18,0,0,1-3.09,5.2,5.47,5.47,0,0,1-1.92,2c-1.06.57-1-.14-1-.32a7.07,7.07,0,0,1,1.12-1.92,9.82,9.82,0,0,0,1.65-2.84c.51-1.35,0-2.16-.43-2.25a2.4,2.4,0,0,0-2.06.78c-.81.78-4.26,5.22-4.79,5.73a3.18,3.18,0,0,1-1.33.78c-.62.25-.62-.12-.6-.42a10.38,10.38,0,0,1,1.54-2.7,13.84,13.84,0,0,0,2.22-3c.44-1.12-.18-1.58-1.1-1.4s-1.17,0-1.17,0,.65-1,1-1.39.55-1.19.18-1.35-.87.2-1.38.87a3.44,3.44,0,0,0-.59,2A61.32,61.32,0,0,1,75.18,43c-1.14,1.38-2,1.72-2.5,1.58s-.29-1.42.1-2.31,3.09-5.15,3.09-5.15h1.6l.23-.55H76.14l2.23-3.94H76.81l-2.45,4H72.59l-.18.46h0s.78,0,1.65,0c-3,5.43-4.35,6.48-5,7s-1,.71-1.4.55-.18-.73.12-1.19,2-3,2.33-4.51-.23-1.79-1.23-1.77-2.48,1.61-2.91,2c.23-2.75-1.54-2.27-2.78-1S59.63,42.8,59,43.48s-1.35,1.13-1.55,1.06-.16-.3.11-1.17,3-5.84,3-5.84H59.13A29.94,29.94,0,0,1,54.45,44c-.59.57-1.12.8-1.44.69s0-.64.27-1l2.25-3.44c.48-.73,1-2.29.27-2.66s-1.71.23-2.65.83-1.95,1.92-2.43,2c1.17-2.25.43-3.21-.07-3.35s-1.37.07-2.72,1.06-4.88,4.62-5.8,5.36-5.45,3.48-7.74,1.33.18-7.1.85-8.34c7.35-1.17,11.17-5.61,11.56-7.19a1.54,1.54,0,0,0-1.65-2.06c-6.91,1-11,7-12.11,8.63-1.79,0-6.65-1.28-5.43-6S34.25,25,34.25,25a.51.51,0,0,1,0-.2C29.6,24,25.8,27.77,26.42,31.5s4,4.38,6.3,5c-2.25,6.3-.46,9.42,3.25,9.64s6.85-2.31,8.15-3.18c-.13.39-.27,2.7,1.35,2.7S49.53,42,50,41.31c.45,0,.55-.21,1-.48s2.36-1.95,2.73-2.2.94-.6,1.26-.48.23.41-.71,1.58A18.11,18.11,0,0,0,52.05,43c-.39.87-.53,2.1.69,2.42s3.34-2.22,3.34-2.22-.23,2,.73,2.15S58.6,45,60.34,42.7A56.59,56.59,0,0,1,64,38.24c.57-.57,1.33-.3.73.8s-3.43,6.21-3.43,6.21H63c2.29-3.94,4-6.42,5.24-7s.76.14.35.89a16.17,16.17,0,0,0-2,3.8c-.2.64-.46,2.27,1,2.45S70.05,44,71.1,43c.55,3.21,2.34,2.27,3.42,1.49s4.35-5.41,5.54-7c1.67,0,1.26.58.89,1.17S79.08,41,78.66,41.54s-1.62,2.52-.23,3.57,3.39-1.63,4.72-3.23,2.36-3.41,3.35-3.73.87.16.64.71-1.93,2.75-2.64,3.8-.75,2.45.16,2.82,2.59-.55,2.59-.55a10.09,10.09,0,0,1-.87,1.42c-7.6,4.23-7.63,7-7.63,7s-.41,2.38,2.25,1.4c4.28-2,6.5-7.1,7.37-8.73C90.83,44.22,94,41.63,94,41.63s0-.07-.21-.23ZM43.8,28c.6-.21,1.88-.55,2.29.07s0,1.6-.34,2.08-4.44,5-10.15,5.48A19.62,19.62,0,0,1,43.8,28Zm6.07,12.46c-.43-.21-.85-.5-1.1-.25s-.09.87.46,1.14c-.62,1.19-2.22,3.71-3.6,3.67,0,0-.75-.12-.38-.92a26.67,26.67,0,0,1,4.35-6.37c.27-.22.94-.61,1.12.35a3.65,3.65,0,0,1-.85,2.38ZM80,54.5c-1.79-.14.11-2.77.11-2.77A19.1,19.1,0,0,1,86,47.29s-3.69,7.39-6,7.21Z" transform="translate(-26.35 -6.03)"/><path class="cls-1" d="M114.74,31.55c-3,1.48-4.7,4.38-6.6,7.28-.66.44-1.9,1.1-2.5,1.45s-.71.13-.82.07c1.21-2.23,1.28-3.23.53-3.6s-1.9.27-3.21,1S97,43.07,96.51,43.55s-1.84,1.61-1.84,1.61h0l.19.27h0c1.26-.92,3.23-2.68,3.23-2.68s-.28,2.47,1.19,2.84c2,.48,4.37-3.25,5.2-4.51.41.18,1.42-.34,3-1.22-.87,1.59-2.4,4.88-3.59,7.43s-1.72,4-1.77,5.72,2.11,2.86,4.33-.66a21.23,21.23,0,0,0,2.73-8.41,4.88,4.88,0,0,0,3.32-2.56l-.37,0a5.31,5.31,0,0,1-2.84,1.81,1.87,1.87,0,0,0-.55-1.51l-.27-.33a13.6,13.6,0,0,1,.69-1.57c.71-1.36.71-.83,3.48-2.91A9,9,0,0,0,116,32.24s.58-1.58-1.23-.69ZM104.32,40c-.46-.28-.81-.49-1.13-.12s.21.85.65,1.08c-.6,1-2.68,4.53-4.22,3.87,0,0-.5-.12-.23-.87s2-5.16,4.74-6.67c.39-.2,2.16-.8.19,2.71Zm1.07,12.8c-1.81,2.06-2,.91-2,.55a12.11,12.11,0,0,1,1.1-3.78c1-2.36,2.09-4.7,2.59-5.73h0l1.35.19h0s-.46,5.17-3.07,8.77Zm3.23-9.51a2.65,2.65,0,0,1-1.14-.16h0l.55-1.07h0a1.35,1.35,0,0,1,.59,1.23Zm6.71-10.85a10.33,10.33,0,0,1-5,5.17,14.45,14.45,0,0,1,4.35-5.4c.35-.23.94-.53.64.23Z" transform="translate(-26.35 -6.03)"/><path class="cls-1" d="M129.21,34.44c0-.55,1.65-2.16,2.06-2.64s1.17-1.92.19-2.15c-1.74-.18-2.7,4-2.7,4h0l-3.65,3.85h0a4.76,4.76,0,0,0-4.49-1.76,6.46,6.46,0,0,0-6.13,6.06c-.35,2.82,2.15,4.88,2.15,4.88h0L114,49.83l.59,0L117.07,47h0a7.41,7.41,0,0,0,7,.07c4.54-2.16,5-6.51,5.11-8.23s0-3.84,0-4.39Zm1.93-4.1c.8.2-1.13,2.26-1.63,2.65,0,0,.83-2.86,1.63-2.65ZM117,46.28s-3.44-2.38-1.17-6.8,8.36-3.42,8.86-1.52c-2.26,2.27-7.33,7.95-7.69,8.32Zm9.62-4.22c-1.26,2.5-3.76,7-9.19,4.52,0,0,5.39-6.3,7.54-8.2.14.43.43,1.12-.34,2.77-.1.3.11.71.43.23a3.77,3.77,0,0,0,.34-3.39c2.18-2.39,2.59-2.8,3.07-3.32a20.69,20.69,0,0,1-1.85,7.39Z" transform="translate(-26.35 -6.03)"/><path class="cls-1" d="M169.3,44.83c-.65.26-.74,0-.69-.29s1.95-3,2.27-3.55,1.3-2.32.89-3.3c-.69-1.56-3.69,1.17-4.49,1.88.76-3.46-1.56-2.22-2.61-1s-4.47,4.85-4.47,4.85-1.67,1.88-2.4,1.59c-1.26-.49,0-2.8.41-3.51,2.84-.71,4.67-2.27,4.56-3.5s-1.77-.71-2.38-.39c-3.67,2.13-4.22,4.53-4.54,5.84-.32.48-1.24,1.44-2,1.42s-.58-1.1-.3-1.65,6.64-12.39,6.64-12.39h-1.53s-2.91,5.24-3.88,6.85A.86.86,0,0,0,154,37c-2.18.12-3.57,1.81-4.9,3.44s-2,2.29-2.38,2.75-2.32,2.36-3.21,1.67.66-3.32.66-3.32a9.49,9.49,0,0,0,3.16-1.4c1.91-1.3,1.65-3.07.42-3-2.84.51-3.94,2.43-4.95,3.76a5.06,5.06,0,0,1-1.6-.89c.13-.28,1.85-3.78.59-3.53s-1.46,2.57-1.51,3.85c-1.53,3.38-3,4.3-3.66,4.67s-1-.09-.94-.41c.39-1.86,3.45-7.1,3.45-7.1h-1.6c-2.86,5.79-5.2,7.42-5.52,7.58s-1.05.25-.64-.71,2.36-4,2.75-5c.07-.16.89-2.45-1.15-2s-3.41,3.11-3.41,3.11h0l.34.05h0a6.89,6.89,0,0,1,2.46-2.41c.71-.43.89-.16.89.3s-1.47,2.36-2.27,3.6-1,3.36.32,3.5,2.27-1.19,3.25-2c.1,1.13.81,2.68,2.5,1.75s3.32-4,3.87-4.86a12.08,12.08,0,0,0,1.58,1c-1.19,2.09-.71,4,.94,4.1s3.51-1.83,4.35-2.59c0,.19,0,2.66,1.42,2.66s2.11-1.3,3-2.22c.28,3.57,3.12,1.72,3.78.89,1.67,3.51,5.29-1.21,6.07-2s2.73-3,3.16-3.46.83-.83,1.29-.69-.16,1.17-.92,2.34-3.09,4.92-3.09,4.92h1.78c.42-.64,2.73-4.08,4-5.68,2-2,2.43-1.79,2.61-1.67s.1.66-.73,1.65A28.9,28.9,0,0,0,167.74,43c-.3.57-.6,2.56.75,2.58s2.75-2.29,2.75-2.29a1.31,1.31,0,0,0-.32-.11,5.13,5.13,0,0,1-1.62,1.62Zm-7.81-6.73c.38-.18.94-.41.68.28a4.64,4.64,0,0,1-3.64,2.47,7.24,7.24,0,0,1,3-2.75ZM146,39c1.16-.85,1.8-1.19,2.1-1s-.82,2.34-3.71,2.84A5,5,0,0,1,146,39Zm6.73,2.43c-1,1.44-2.68,3.73-3.57,3.5,0,0-.58-.25-.28-1.12A16,16,0,0,1,153.06,38c.41-.28,1.14-.67,1,.36a6,6,0,0,1-1.33,3.1Z" transform="translate(-26.35 -6.03)"/></svg>