<svg id="Layer_4" data-name="Layer 4" xmlns="http://www.w3.org/2000/svg" viewBox="0 0 102.99 68.53"><defs><style>.cls-1{fill:#fff;}</style></defs><path class="cls-1" d="M151.49,58.79H147a3,3,0,0,0-.65-1.56,3.38,3.38,0,0,0-2.43-.73,3.67,3.67,0,0,0-2.33.56,1.45,1.45,0,0,0-.49,1.15c0,.68.94,1.22,2.82,1.64A44.37,44.37,0,0,1,148.53,61a5.24,5.24,0,0,1,.62.25A4.34,4.34,0,0,1,152,65.38a5.18,5.18,0,0,1-2.78,4.88,7.56,7.56,0,0,1-.7.34,10.48,10.48,0,0,1-4.15.78,11.4,11.4,0,0,1-5.67-1.24,5.42,5.42,0,0,1-2-2,5.61,5.61,0,0,1-.67-2.8h4.71a2.21,2.21,0,0,0,.87,1.87,4.81,4.81,0,0,0,2.92.69,3.56,3.56,0,0,0,2.33-.65,1.49,1.49,0,0,0,.59-1.15c0-.73-.93-1.3-2.78-1.71a29.52,29.52,0,0,1-5.2-1.41,4.31,4.31,0,0,1-2.82-4.14A5.4,5.4,0,0,1,138.09,55a7.28,7.28,0,0,1,5.56-2,11.49,11.49,0,0,1,4.88.87,1.4,1.4,0,0,1,.3.15,4.9,4.9,0,0,1,2,1.91A5.62,5.62,0,0,1,151.49,58.79Z" transform="translate(-49.01 -3.11)"/><path class="cls-1" d="M149.09,47.82a.35.35,0,0,0-.06-.23.3.3,0,0,0-.2-.15,1.3,1.3,0,0,0-.3,0h-.71v.87h.71a.65.65,0,0,0,.42-.13A.37.37,0,0,0,149.09,47.82Zm.37-.46a.62.62,0,0,1,.14.41.73.73,0,0,1-.23.56.89.89,0,0,1-.6.27.76.76,0,0,1,.25.15l.43.58.34.57h-.56l-.26-.47a2.63,2.63,0,0,0-.44-.62.15.15,0,0,0-.06,0l-.37-.11h-.28V49.9h-.46V47h1.17a1.54,1.54,0,0,1,.56.08A.65.65,0,0,1,149.46,47.36Z" transform="translate(-49.01 -3.11)"/><path class="cls-1" d="M150.78,48.41a2.27,2.27,0,0,0-.29-1.13,2.19,2.19,0,0,0-.84-.84,2.47,2.47,0,0,0-1.1-.29h0a2.4,2.4,0,0,0-1.09.29,2.12,2.12,0,0,0-.84.84,2.2,2.2,0,0,0,0,2.25,2,2,0,0,0,.82.82,2.22,2.22,0,0,0,1.11.29h0a2.26,2.26,0,0,0,1.12-.29,2.15,2.15,0,0,0,.82-.82A2.26,2.26,0,0,0,150.78,48.41Zm.45,0a2.61,2.61,0,0,1-.36,1.33,2.26,2.26,0,0,1-1,1,2.56,2.56,0,0,1-1.33.36h0a2.61,2.61,0,0,1-1.33-.36,2.31,2.31,0,0,1-1-1,2.61,2.61,0,0,1-.36-1.33,2.64,2.64,0,0,1,.36-1.36,2.41,2.41,0,0,1,1-1,2.75,2.75,0,0,1,1.31-.36h0a2.71,2.71,0,0,1,1.32.36,2.33,2.33,0,0,1,1,1A2.64,2.64,0,0,1,151.23,48.41Z" transform="translate(-49.01 -3.11)"/><polygon class="cls-1" points="75.86 23.4 88.58 44.6 75.86 44.6 68.14 44.6 55.99 24.34 46.79 9.02 55.99 3.49 61.78 0 75.86 23.4"/><path class="cls-1" d="M134.11,62.43v8.7h-4.23v-1a9.06,9.06,0,0,1-5,1.47h0a9.21,9.21,0,0,1,0-18.41h0a9.06,9.06,0,0,1,5,1.47v-1h4.23Zm-4.23,1V61.48a5.07,5.07,0,0,0-5-4.1h0a5.06,5.06,0,0,0,0,10.12h0A5.08,5.08,0,0,0,129.88,63.4Z" transform="translate(-49.01 -3.11)"/><path class="cls-1" d="M114.24,62.43v8.7H110v-1a9.08,9.08,0,0,1-5,1.47h0a9.21,9.21,0,0,1,0-18.41h0a9.08,9.08,0,0,1,5,1.47v-7h4.23Zm-4.23,1V61.48a5.07,5.07,0,0,0-5-4.1h0a5.06,5.06,0,0,0,0,10.12h0A5.08,5.08,0,0,0,110,63.4Z" transform="translate(-49.01 -3.11)"/><polygon class="cls-1" points="55.99 36.26 60.98 44.6 55.99 44.6 40.55 44.6 29.21 25.73 28.72 24.9 29.21 24.61 43.73 15.87 55.99 36.26"/><rect class="cls-1" x="40.57" y="50.12" width="4.6" height="17.9"/><rect class="cls-1" x="40.57" y="44.69" width="4.6" height="4.04"/><path class="cls-1" d="M87.48,62.43v8.7H83.25v-1a9.15,9.15,0,0,1-5,1.47h0a9.21,9.21,0,0,1,0-18.41h0a9.15,9.15,0,0,1,5,1.47v-7h4.23Zm-4.23,1V61.48a5.08,5.08,0,0,0-5-4.1h0a5.06,5.06,0,0,0,0,10.12h0A5.09,5.09,0,0,0,83.25,63.4Z" transform="translate(-49.01 -3.11)"/><polygon class="cls-1" points="29.21 37.63 33.4 44.6 29.21 44.6 12.96 44.6 10.66 40.77 25.68 31.75 29.21 37.63"/><path class="cls-1" d="M67.41,62.43v8.7H63.18v-1a9.15,9.15,0,0,1-5,1.47h0a9.21,9.21,0,0,1,0-18.41h0a9.15,9.15,0,0,1,5,1.47v-1h4.23Zm-4.23,1V61.48a5.08,5.08,0,0,0-5-4.1h0a5.06,5.06,0,0,0,0,10.12h0A5.09,5.09,0,0,0,63.18,63.4Z" transform="translate(-49.01 -3.11)"/></svg>