<svg id="Layer_10" data-name="Layer 10" xmlns="http://www.w3.org/2000/svg" viewBox="0 0 189.54 42.27"><defs><style>.cls-1{fill:#fff;}</style></defs><path class="cls-1" d="M66.28,40.82a9.06,9.06,0,0,0-3.8.78V32.52a15.06,15.06,0,0,0-4.21,2.29,2.09,2.09,0,0,0-.86,1.84V59.07a20,20,0,0,0,6.71,1.06c6.62,0,10.43-4.05,10.43-9.9S71.85,40.82,66.28,40.82ZM64.4,56a6.12,6.12,0,0,1-1.92-.21V45.61A6.32,6.32,0,0,1,65.42,45c2.54,0,3.89,1.76,3.89,5.08S67.72,56,64.4,56ZM87.47,41a5.89,5.89,0,0,0-5.11,2.61,13.16,13.16,0,0,0-.57-2.41A8,8,0,0,0,79.7,41a9.79,9.79,0,0,0-2,.2V59.72a11.88,11.88,0,0,0,2.54.2,14.76,14.76,0,0,0,2.54-.2v-9c0-3.6,1.88-5.52,4.41-5.52a11.81,11.81,0,0,1,1.68.08,10.43,10.43,0,0,0,.08-4.09A7.33,7.33,0,0,0,87.47,41Zm-64,9.07V59.5a.42.42,0,0,0,.42.42h2.63V47.8l-2.62,1.51A.82.82,0,0,0,23.42,50.06Zm2.66-23.2a49.71,49.71,0,0,0-8.16.7,15.52,15.52,0,0,1,12.23-5.93A15.78,15.78,0,0,1,40,25.07c.45.37.79.4,1.13.07s.31-.68-.07-1.11a17.28,17.28,0,0,0-29.39,5,31.67,31.67,0,0,0-5.89,2.46c-.48.27-.65.61-.48,1a.75.75,0,0,0,1,.37c1.51-.44,3-.81,4.66-1.15a13.25,13.25,0,0,0-.27,2.63A17,17,0,0,0,18.51,48.9c.48.3.89.3,1.16-.07s.24-.7-.17-1.08a14.85,14.85,0,0,1-4.8-11A14.41,14.41,0,0,1,15.9,31c1.61-.14,3.36-.24,5.28-.24,12.47,0,23,4.12,23,9.51,0,2.73-3.47,5.46-7.58,7.28-1,.44-1.09.74-1,1.18s.59.54,1.1.37c7.2-2.36,12.64-6.24,12.64-10.92C49.37,31.78,39.09,26.86,26.08,26.86Zm5,18.27-3.47,2V59.92h3.73a.66.66,0,0,0,.66-.66V45.61A.58.58,0,0,0,31.11,45.13Zm154.7-4.39c-5.69,0-8.88,3.89-8.88,9.74s3.35,9.65,8.88,9.65c5.72,0,8.91-3.81,8.91-9.65S191.53,40.74,185.81,40.74Zm0,15.3c-2.83,0-3.68-2.29-3.68-5.56s.85-5.65,3.68-5.65,3.72,2.37,3.72,5.65C189.53,53.91,188.59,56,185.81,56Zm-49.5-15.3c-5.48,0-8.83,3.68-8.83,9.82s3.56,9.57,9.65,9.57a14.46,14.46,0,0,0,5.77-1.06,9.3,9.3,0,0,0,0-3.93,18.74,18.74,0,0,1-5.24.86c-2.82,0-4.78-1.07-5.19-4H144a12.26,12.26,0,0,0,.21-2.58C144.21,43.85,141.1,40.74,136.31,40.74Zm-3.84,7.49c.37-2.25,1.72-3.6,3.76-3.6,2.29,0,3.19,1.55,3.27,3.6ZM171.61,56c-2.53,0-4.21-2-4.21-5.53,0-3.35,1.35-5.52,4.25-5.52a8.06,8.06,0,0,1,3.24.66A10.75,10.75,0,0,1,176.68,42,11.3,11.3,0,0,0,171,40.74c-5.6,0-8.84,4-8.84,9.69,0,5.94,3.32,9.7,9,9.7a11.53,11.53,0,0,0,5.57-1.23,11.61,11.61,0,0,1-1.93-3.56A6.93,6.93,0,0,1,171.61,56ZM96.84,40.74a21.21,21.21,0,0,0-5.48.61,8.76,8.76,0,0,0,0,4A18.1,18.1,0,0,1,96,44.83c2.62,0,3.89,1.06,3.89,3.23v.21a23.34,23.34,0,0,0-2.38-.17c-4.33,0-8,1.56-8,5.73,0,4.7,3.35,6.3,8.22,6.3A24.81,24.81,0,0,0,104.77,59V48.43C104.77,43.36,102,40.86,96.84,40.74ZM99.91,56a14.37,14.37,0,0,1-2.17.2c-2.33,0-3.6-.69-3.6-2.33s1.27-2.29,3.6-2.29c.78,0,1.68.08,2.17.12Zm19.63-19.31v4.46a10,10,0,0,0-2.66-.29c-5.6,0-9.41,3.77-9.41,9.78s3.73,9.53,9.54,9.53a24.19,24.19,0,0,0,7.6-1.15V32.52a15.2,15.2,0,0,0-4.21,2.29A2.11,2.11,0,0,0,119.54,36.65Zm0,19.06a7.06,7.06,0,0,1-2.17.29c-3.35,0-4.66-2.21-4.66-5.4,0-3.56,1.31-5.73,4.62-5.73a7.58,7.58,0,0,1,2.21.29Zm36.28-7-2-.86c-1.19-.49-1.88-.9-1.88-1.68,0-1.19,1.06-1.43,2.45-1.43a15.07,15.07,0,0,1,4.79.78,10.16,10.16,0,0,0,0-3.81,13.59,13.59,0,0,0-5.53-1c-3.92,0-6.91,2.13-6.91,5.32,0,2.86,1.23,4.29,4.67,5.68l1.59.66c1.51.61,2,1,2,2,0,1.47-1.47,1.72-2.7,1.72A15.39,15.39,0,0,1,146.66,55a8.08,8.08,0,0,0,0,4A13.92,13.92,0,0,0,153,60.13c3.89,0,7-2.05,7-5.73C160,51.38,158.73,49.94,155.82,48.72Z" transform="translate(-5.18 -17.85)"/></svg>