<svg xmlns="http://www.w3.org/2000/svg" viewBox="0 0 191.4 45.9"><defs><style>.cls-1,.cls-2{fill:#fff;}.cls-1{fill-rule:evenodd;}</style></defs><g id="Layer_3" data-name="Layer 3"><path class="cls-1" d="M20.25,55.54c-3.37.39-7.16-.44-8.79-3.73s-.77-6.68.62-9.74a43,43,0,0,1,11.6-15.45c1.63-1.34,3-2.54,5.2-2.86,1.65-.24,2.79,1.38,1.84,1.48a3.36,3.36,0,0,0-2.84,1.82c-.36.69-.48,1.91.57,2.15s1.77-.56,2.37-1.3c1.28-1.58,1.39-4.66-.73-5.27-5.3-1.55-12.94,4.22-17.57,9.4-4.44,5-9.34,12.2-7,19.54,1.8,5.53,8.59,6.28,13.81,5.46C26.61,55.9,32,52.83,39.91,54c2.3.34,4.82,1.09,6,3.39,1.66-2,5-4.65,13.93-.67-3.35-3.44-8.15-4.83-12.83-5.45C37.63,50,29.34,54.49,20.25,55.54Z" transform="translate(-4.94 -16.23)"/><polygon class="cls-1" points="64.25 14.97 60.33 14.97 58.19 18.45 62.06 18.45 64.25 14.97 64.25 14.97"/><path class="cls-1" d="M128.4,22c-3.07,4.26-8.51,6.18-14.12,5.94l-3,3.63c10.22,0,14.67-5.26,17.43-9.41.36-.53-.11-.55-.28-.16Z" transform="translate(-4.94 -16.23)"/><path class="cls-1" d="M99.72,22.3a15,15,0,0,0-7.57,1.17,2.77,2.77,0,0,0-2-1.19c-4.24-.39-9.5,2.35-14,5.95a36.52,36.52,0,0,0-4.62,4.42A48.48,48.48,0,0,0,65,42.38c-2.57,4.83-3.63,13.52,3.16,14.56,7.81,1.2,16.35-7.41,15.52-14.78-.43-3.83-5.81-2.39-7.75-.22-1,.88-4.43,5.47-3.82,8.57A9.92,9.92,0,0,1,77.23,47c.19-2.23,1-4.71,3.15-5.53.68-.26,2.29-.36,2.46.89.59,4.46-2.89,9.07-7,11.62-1.79,1.11-6,1.92-6.82-1.06C67.28,46.6,71.59,41,74.88,36.19s6.89-8.72,11.9-11.48C88,24,89.72,23.19,91.15,24a17.07,17.07,0,0,0-5.47,4.15c-.74,1-2.9,3.71-2.76,6a2.58,2.58,0,0,0,1.62,2.61,2.44,2.44,0,0,0,1.94-.24,12.67,12.67,0,0,0,6.44-12.1,5.81,5.81,0,0,1,2.93,0c1.84.38,8.07,3.9,10.77,5.61l3.1-3.18A30.71,30.71,0,0,0,99.72,22.3Zm-14,13.36c-1.37.41-2.07-1.21-1.57-2.68a10.65,10.65,0,0,1,2.23-4A13.4,13.4,0,0,1,92,24.88C92.47,29.52,88.55,34.83,85.73,35.66Z" transform="translate(-4.94 -16.23)"/><path class="cls-1" d="M117,53.19c-.83.06-.56-.89-.44-1.1l7.18-12.45h-3.86l-.61,1c-2.24-2.53-5.7-.44-7.62,1.35-2.25,2.1-4.14,5.06-6,7.48-1,1.39-2.32,3.29-3.85,4-.6.28-1.6.29-1.66-.58-.16-2.43.94-4.85,1.7-6.85,5.66-3.79,11-8.41,14.51-14.21l-.92.05a78.63,78.63,0,0,1-5.19,6.25c-1.68,1.49-3.31,3.17-5.15,4.5-.8.58-1.59,1.06-2.37,1.64a58.74,58.74,0,0,1,14-19.85c.79-.71,2.16-1.61,2.63-1,.67.85,0,2.45-.91,3.38a3.92,3.92,0,0,0,1.1-.11c1.33-1.44,1.37-4.24.31-4.54-1.68-.53-5.29,1.49-7.5,3.23C105.57,30.82,101,39,97.54,46.2a3.26,3.26,0,0,1-2.05.33c1.07-2.07,2-5.2-.25-6.59-1.4-.87-3.43.19-4.56.89-3.2,2-6.5,6.11-8.12,11.29-.82,2.62.22,5,1.79,5.12,5.14.25,8.69-6.49,10.7-9.69a5.21,5.21,0,0,0,2.21-.14c-1,2.84-3.15,7.28-.08,9.05s5.59-2.21,7.59-4.4l.2-.36c-.56,1.88-1.29,4.46.93,5.17,2.43.79,4.45-1.54,6.14-3.18-.54,1.5-.28,3.72,1.51,3.36,3.29-.66,7.34-5,9.6-8.56h-.89C120.85,50.4,118.48,53.19,117,53.19Zm-27.64.13c-.63.38-2.23.8-2.82.19-1.18-1.16,1.33-5.38,2.26-6.93.35-.56,1-1.48,1.39-2a5.27,5.27,0,0,0,3.86,2.73C93,49.16,91.58,52,89.37,53.32Zm5.17-7a4,4,0,0,1-2.79-1.45,2.25,2.25,0,0,1,.55-3.07c.84-.75,2.21-1,2.74-.28C96.2,42.93,94.93,46,94.54,46.34Zm15.13,7.09c-1.39-.56,0-3.16.46-4s3.67-6.26,5.89-7.75c1.33-.88,1.66-.71,2-.49a.73.73,0,0,1,.34,1l-4.7,8C113,51.38,111.05,54,109.67,53.43Z" transform="translate(-4.94 -16.23)"/><path class="cls-1" d="M55.25,44.7c-.83.06-.57-.89-.44-1.1L62,31.15H58.12l-.6,1.05c-2.24-2.53-5.71-.44-7.62,1.35-4.13,3.86-6,9.6-11.15,12.25-1.13.58-2.66.4-3-1a4,4,0,0,1,.21-2.21c1.63-3.94,4.31-8.36,7.3-9.79,1-.34,2.09-.34,1.76,1.38-1.1-.63-2,.53-2.57,1.38-.42.69-.35,1.82.58,1.8,2.25-.06,3.69-4,2.38-5.34-2.87-2.93-7.46,1.72-10.18,4.52a5.61,5.61,0,0,1-3.91,1.4.41.41,0,0,1-.24,0c1.07-2.07,2-5.16-.28-6.55-1.4-.87-3.43.19-4.55.89-3.21,2-6.51,6.11-8.13,11.28-.81,2.63.22,5,1.79,5.12,5.14.26,8.69-6.48,10.7-9.68l.05-.11h.22a6.54,6.54,0,0,0,2.87-.5,13.94,13.94,0,0,0-2.55,5.35c-.64,2.65,1.27,5.43,4.08,4.92,3.32-.59,5.6-2.91,8-5.4-.56,1.88-1.29,4.46.92,5.17,2.44.79,4.46-1.54,6.15-3.18-.54,1.5-.28,3.71,1.51,3.36,3.29-.66,7.34-5,9.59-8.56H60.5C59.06,41.66,56.63,44.7,55.25,44.7Zm-30.36.07c-.64.38-2.24.8-2.82.19-1.18-1.16,1.32-5.38,2.26-6.93.35-.56,1-1.48,1.38-2a5.35,5.35,0,0,0,3.87,2.74C28.55,40.61,27.1,43.45,24.89,44.77Zm5.17-7a4,4,0,0,1-2.79-1.44,2.26,2.26,0,0,1,.55-3.08c.83-.75,2.21-1,2.74-.28C31.72,34.38,30.45,37.46,30.06,37.79ZM47.9,45c-1.08-.39.16-3.4.6-4.29s3.53-6,5.75-7.49c1.33-.89,1.66-.72,2-.5s.59.58.36,1l-4.72,8C51.21,42.94,49.3,45.49,47.9,45Z" transform="translate(-4.94 -16.23)"/></g><g id="Layer_5" data-name="Layer 5"><polyline class="cls-2" points="150.54 24.39 150.54 40.28 153.23 38.3 153.23 27.1 150.54 24.39"/><polyline class="cls-2" points="156.31 28.1 159.82 27.31 161.23 26.15 161.23 24.05 156.31 28.1"/><polyline class="cls-2" points="155.88 2.77 150.93 0.49 155.4 5.5 157.09 3.83 155.88 2.77"/><path class="cls-2" d="M185.18,30.06c-.18.29-.41.68-.49.82a4.94,4.94,0,0,1-.58,1.09,2.24,2.24,0,0,0-.36.87,2.42,2.42,0,0,1-.19.48c-.1.2-.34.72-.34.72s-.62,1-.64,1-.22.34-.37.55a3.56,3.56,0,0,0-.42.64,2.29,2.29,0,0,1-.39.83.63.63,0,0,0-.12.19,2.18,2.18,0,0,1-.84,1.49.54.54,0,0,1-.46,0,1.46,1.46,0,0,1-.82-1.12s-.13-.77-.15-1.17c0-.22,0-.45,0-.67s-.07-.61-.11-.91-.16-1.48-.16-1.48c-.07-1-.12-1.56-.74-2a1.55,1.55,0,0,0-.66-.13,3.09,3.09,0,0,0-1.08.06,5.24,5.24,0,0,0-.61.34,1.74,1.74,0,0,0-.67.51,4.92,4.92,0,0,0,0,2.51c0,.14.35,1,.49,1.42,0,0,.38,1.12.5,1.52s.35,1.14.35,1.14a10.09,10.09,0,0,1,.38,1.33c.06.36.17.72.27,1.09a11.14,11.14,0,0,1,.29,1.14c0,.07.21.73.22.82s.18.66.25.86a5,5,0,0,1,.18.55,9.63,9.63,0,0,0,.57,1.49,7.17,7.17,0,0,0,.39.75,2.12,2.12,0,0,0,2.82.69,3.43,3.43,0,0,0,.59-.71,3.73,3.73,0,0,0,.54-1.36,3.18,3.18,0,0,0,0-.88,5.56,5.56,0,0,1,0-.91,6,6,0,0,1,.37-1.44s.18-.41.25-.64a3.15,3.15,0,0,1,.48-1l.23-.35c.14-.26.77-1.34.86-1.46l.17-.25V56.51H166.87V38.68l-6.66,5.67-5.42-5.59V56.51H136.37V16.23h18.11l5.8,6.49,6.54-6.49h18.36V30.06m-5.88-4.74a2.33,2.33,0,0,0-.42-.7,1,1,0,0,0-.89-.43c-.23,0-.6-.07-.73,0a3.38,3.38,0,0,0-.84.49,7.14,7.14,0,0,0-.71.56,4.63,4.63,0,0,1-.55.69c-.18.16-.66.31-.91.5a5.81,5.81,0,0,0-.63.15c-.13.05-.67.33-.78.37l-.57.17c-.09,0-.33.19-.36.2a1.83,1.83,0,0,1-.74,0,3,3,0,0,0-1.45-.35,1.08,1.08,0,0,0-.59.26.76.76,0,0,0-.47.29c-.07.13-.19.13-.27.27a2.71,2.71,0,0,0-.25.75,2.34,2.34,0,0,0,.08.72.87.87,0,0,1-.51,1.12c-.09.05-.41.29-.5.32s-.57.21-.69.28c-.44.25-.85.4-.94.49a6.54,6.54,0,0,1-1.07.77c-.23.14-.6.35-1.08.61a7.93,7.93,0,0,0-.78.59c-.08.05-.49.24-.6.32l-.54.38a4.52,4.52,0,0,1-.84.3,2.71,2.71,0,0,0-1.35.65,2,2,0,0,0,.66,3.29,1.89,1.89,0,0,0,1.57-.11,1.67,1.67,0,0,0,.44-.65,1.67,1.67,0,0,1,.37-.55c.21-.21.53-.75.62-.84a3.38,3.38,0,0,1,.77-.53,4.74,4.74,0,0,0,1.18-.86,3.31,3.31,0,0,1,.41-.35,7.53,7.53,0,0,0,1.1-.71,9,9,0,0,1,.9-.48c.26-.14.57-.41.69-.47a.75.75,0,0,1,.53,0c.1.07.35.42.51,2.28,0,.09,0,.84,0,.95s.07.8.07.86a7.88,7.88,0,0,0,0,1.18,3.59,3.59,0,0,0,0,.75,4.18,4.18,0,0,1,0,1,5.8,5.8,0,0,0,0,.59c0,.48-.06,1-.06,1.07s0,.64,0,.85c0,0-.09.36-.1.46s.1,1,.08,1.15a4.1,4.1,0,0,1-.16.65,3.24,3.24,0,0,0-.18,1.39,4.58,4.58,0,0,0,.22,1s.12.49.17.71a8.1,8.1,0,0,1,.21.86,3.62,3.62,0,0,1,0,.73c0,.18.14.76.14.84a5.93,5.93,0,0,0,0,.6c.05.31.17.89.51,1.09a2.83,2.83,0,0,0,1.06.31,2.87,2.87,0,0,0,1.74-.07.85.85,0,0,0,.37-.28c.08-.14.25-.24.37-.41s.32-1,.45-1.37a2.8,2.8,0,0,0-.11-1.36c0-.1-.36-.88-.44-1a8.83,8.83,0,0,1-.18-1.11c0-.11-.15-.62-.17-.71s0-.5,0-.63a6.85,6.85,0,0,1,.05-1.92s0-.62,0-.71c0-.36.05-.77.07-1.16s0-.52,0-.73a4,4,0,0,1,0-.73,4.38,4.38,0,0,0-.08-.6c0-.24.08-1.3.05-1.57,0-.11-.13-.71-.17-1.25,0,0,0-.69,0-.9s0-.9,0-1.5c0-.19-.07-1.38-.09-1.51a4.21,4.21,0,0,1,0-1.07c.07-.61,0-.72.09-1.15s.76-.7.82-.72a2.91,2.91,0,0,0,.84-.26,2.44,2.44,0,0,1,.92-.46,1.82,1.82,0,0,0,.54-.36l.64-.38a1.56,1.56,0,0,1,.53-.33c.15,0,.36-.19.57-.26s.4-.12.45-.15A2.24,2.24,0,0,0,179.3,25.32Z" transform="translate(-4.94 -16.23)"/><path class="cls-2" d="M185.93,29.17l.32-.37c.1-.14.31-.46.51-.74a8.12,8.12,0,0,1,.56-.73c.1-.11.87-1.14,1-1.3s.37-.39.56-.58l.39-.41.48-.61c.17-.19.33-.39.49-.6s.25-.41.3-.47c.16-.22,1-1,1-1a2.49,2.49,0,0,1,1.42-.67,3,3,0,0,1,1.75.31,2.3,2.3,0,0,1,1,1.55,4.12,4.12,0,0,1-.12,1.2,5,5,0,0,1-.39,1.23,3.55,3.55,0,0,1-.69.86,4,4,0,0,1-.77.43c-.14.05-.84.37-1,.48a2.54,2.54,0,0,0-.71.58,1.9,1.9,0,0,1-.28.29,2,2,0,0,0-.89.82c-.14.32-.76,1-.86,1.17a4.39,4.39,0,0,1-.61.91,4.33,4.33,0,0,0-.51.74,3.66,3.66,0,0,1-.41.62,2.8,2.8,0,0,0-.48.85,11.85,11.85,0,0,0-.58,1.05c-.06.17-.4.74-.44.82a5.76,5.76,0,0,1-.54.69,2.41,2.41,0,0,0-.18.48l-.23.58V56.51l3-2V33.23c.11-.18.83-1.16.9-1.23a5.37,5.37,0,0,0,.71-1.07c.05-.1.6-.85.81-1.14s.26-.27.34-.38.44-.27.53-.35a4.35,4.35,0,0,0,.3-.35,1.67,1.67,0,0,1,.56-.43c.19-.1.85-.38.95-.41a4.86,4.86,0,0,0,.95-.55,3.78,3.78,0,0,0,.83-1.1,5.38,5.38,0,0,0,.46-1.37,5.3,5.3,0,0,0,.09-1.44,3,3,0,0,0-1.27-2,3.31,3.31,0,0,0-3.84.35A4.4,4.4,0,0,0,190,23l-.33.43c-.12.16-.65.89-.78,1.05V18l-3-1.78V29.17" transform="translate(-4.94 -16.23)"/><polyline class="cls-2" points="131.43 41.5 132.98 41.5 133.49 44.03 133.5 44.03 134 41.5 135.55 41.5 135.55 45.8 134.52 45.8 134.52 43.04 134.51 43.04 133.9 45.8 133.08 45.8 132.47 43.04 132.46 43.04 132.46 45.8 131.43 45.8 131.43 41.5"/><path class="cls-2" d="M144.11,60.36c0,1.2-.53,1.77-1.61,1.77s-1.62-.57-1.62-1.77V57.72H142v2.35c0,.44,0,1,.53,1s.52-.54.52-1V57.72h1.09v2.64" transform="translate(-4.94 -16.23)"/><path class="cls-2" d="M145.52,60.58a.85.85,0,0,0,0,.29.47.47,0,0,0,.52.3c.18,0,.45-.06.45-.38s-.15-.29-.76-.5-1.2-.38-1.2-1.24A1.34,1.34,0,0,1,146,57.62a1.32,1.32,0,0,1,1.47,1.4h-1a.35.35,0,0,0-.13-.34.48.48,0,0,0-.32-.11c-.15,0-.39,0-.39.29s.53.37,1,.54a1.23,1.23,0,0,1,1,1.25A1.44,1.44,0,0,1,146,62.13a1.47,1.47,0,0,1-1.56-1.55h1.09" transform="translate(-4.94 -16.23)"/><polyline class="cls-2" points="143.03 41.5 144.13 41.5 144.13 45.8 143.03 45.8 143.03 41.5"/><path class="cls-2" d="M151.83,59.32c0-.15-.12-.63-.57-.63s-.68.61-.68,1.19.16,1.17.68,1.17c.36,0,.51-.31.57-.71h1.07a1.69,1.69,0,0,1-1.62,1.79c-1.14,0-1.79-1-1.79-2.25s.71-2.26,1.79-2.26,1.52.63,1.61,1.7h-1.06" transform="translate(-4.94 -16.23)"/><polyline class="cls-2" points="150.79 42.6 149.8 42.6 149.8 41.5 152.88 41.5 152.88 42.6 151.88 42.6 151.88 45.8 150.79 45.8 150.79 42.6"/><polyline class="cls-2" points="153.19 41.5 156.13 41.5 156.13 42.6 154.29 42.6 154.29 43.14 155.96 43.14 155.96 44.16 154.29 44.16 154.29 44.7 156.18 44.7 156.18 45.8 153.19 45.8 153.19 41.5"/><polyline class="cls-2" points="156.52 41.5 157.61 41.5 157.61 44.7 159.18 44.7 159.18 45.8 156.52 45.8 156.52 41.5"/><polyline class="cls-2" points="159.45 41.5 162.38 41.5 162.38 42.6 160.54 42.6 160.54 43.14 162.22 43.14 162.22 44.16 160.54 44.16 160.54 44.7 162.44 44.7 162.44 45.8 159.45 45.8 159.45 41.5"/><polyline class="cls-2" points="165 45.8 163.78 45.8 162.73 41.5 163.83 41.5 164.41 44.11 164.42 44.11 164.99 41.5 166.11 41.5 165 45.8"/><polyline class="cls-2" points="166.52 41.5 167.62 41.5 167.62 45.8 166.52 45.8 166.52 41.5"/><path class="cls-2" d="M174.08,60.58a1.23,1.23,0,0,0,0,.29c.08.26.32.3.53.3s.44-.06.44-.38-.15-.29-.76-.5-1.2-.38-1.2-1.24a1.34,1.34,0,0,1,1.43-1.43A1.32,1.32,0,0,1,176,59h-1a.33.33,0,0,0-.12-.34.51.51,0,0,0-.33-.11c-.15,0-.39,0-.39.29s.53.37,1,.54a1.24,1.24,0,0,1,1,1.25,1.45,1.45,0,0,1-1.64,1.48A1.47,1.47,0,0,1,173,60.58h1.1" transform="translate(-4.94 -16.23)"/><polyline class="cls-2" points="171.59 41.5 172.68 41.5 172.68 45.8 171.59 45.8 171.59 41.5"/><path class="cls-2" d="M179.79,57.62c1.08,0,1.79.94,1.79,2.26s-.71,2.25-1.79,2.25-1.8-.94-1.8-2.25.73-2.26,1.8-2.26m0,3.43c.28,0,.7-.21.7-1.17s-.42-1.19-.7-1.19-.7.22-.7,1.19S179.51,61.05,179.79,61.05Z" transform="translate(-4.94 -16.23)"/><polyline class="cls-2" points="177.05 41.5 178.17 41.5 179.2 43.8 179.21 43.8 179.21 41.5 180.24 41.5 180.24 45.8 179.18 45.8 178.09 43.45 178.09 43.45 178.09 45.8 177.05 45.8 177.05 41.5"/><path class="cls-2" d="M187.68,57.62a1,1,0,1,1-1,1,1,1,0,0,1,1-1h0m0,.15a.83.83,0,0,0-.8.85.82.82,0,0,0,.8.84.81.81,0,0,0,.81-.84.83.83,0,0,0-.81-.85Zm-.19,1.43h-.18V58.08l.32,0a.53.53,0,0,1,.35.09.24.24,0,0,1,.1.22.28.28,0,0,1-.22.28h0c.1,0,.16.11.19.27a1.39,1.39,0,0,0,.07.28h-.19a1,1,0,0,1-.07-.29.21.21,0,0,0-.24-.19h-.13Zm0-.62h.13c.15,0,.27,0,.27-.19s-.07-.19-.27-.19h-.13Z" transform="translate(-4.94 -16.23)"/></g></svg>