<svg id="Layer_2" data-name="Layer 2" xmlns="http://www.w3.org/2000/svg" viewBox="0 0 192.32 41.07"><defs><style>.cls-1{fill:#fff;}</style></defs><path class="cls-1" d="M4,20.14H23.52V39.68H4V20.14Z" transform="translate(-3.98 -20.14)"/><path class="cls-1" d="M25.52,20.14H45.05V39.68H25.52q0-9.78,0-19.54Z" transform="translate(-3.98 -20.14)"/><path class="cls-1" d="M180.16,27.58a7.67,7.67,0,0,1,6.16-.72c0,1.21,0,2.41,0,3.62a4,4,0,0,0-3.12-.28,2.47,2.47,0,0,0-1.41,2,25.6,25.6,0,0,0-.07,3.16h6.18c0-1.34,0-2.67,0-4,1.41-.4,2.79-.85,4.19-1.27,0,1.76,0,3.53,0,5.29,1.39,0,2.79,0,4.18,0v3.43c-1.4,0-2.8,0-4.2,0,0,2,0,3.95,0,5.92a32.64,32.64,0,0,0,.07,3.28,2.13,2.13,0,0,0,.91,1.69,3.15,3.15,0,0,0,3.21-.31v3.47a8.36,8.36,0,0,1-3.86.59,4.68,4.68,0,0,1-3.33-1.53,6.27,6.27,0,0,1-1.2-4c0-3,0-6,0-9.08h-6.18q0,7.13,0,14.25H177.5c0-4.75,0-9.5,0-14.25-1,0-2,0-2.94,0,0-1.13,0-2.26,0-3.39,1,0,1.95,0,2.93,0a17.93,17.93,0,0,1,.29-4.51,5.81,5.81,0,0,1,2.38-3.25Z" transform="translate(-3.98 -20.14)"/><path class="cls-1" d="M89.7,27.83a2.58,2.58,0,0,1,2.34.83,2.41,2.41,0,0,1,.29,2.74,2.63,2.63,0,0,1-2.81,1.18,2.4,2.4,0,0,1-2-2.35,2.45,2.45,0,0,1,2.15-2.4Z" transform="translate(-3.98 -20.14)"/><path class="cls-1" d="M57.31,28.35h6.15c1.91,4.86,3.84,9.71,5.75,14.57.49,1.21,1,2.44,1.46,3.65,2.46-6.07,5-12.13,7.4-18.2,2,0,3.94,0,5.91,0V53c-1.42,0-2.84,0-4.26,0,0-6.06,0-12.12,0-18.18,0-.27,0-.54,0-.82a3.11,3.11,0,0,0-.22.4C77,40.58,74.55,46.77,72.12,53c-1,0-2,0-3,0-2.52-6.21-5-12.43-7.51-18.63L61.36,34c0,2.66,0,5.31,0,8,0,3.68,0,7.35,0,11h-4V28.35Z" transform="translate(-3.98 -20.14)"/><path class="cls-1" d="M101.32,35.32a11.65,11.65,0,0,1,6.28,0,5.36,5.36,0,0,1,1.21.51c0,1.34,0,2.69,0,4A6.75,6.75,0,0,0,104,38.39a5,5,0,0,0-3.51,2,6.83,6.83,0,0,0-1.12,4.9A5,5,0,0,0,105,49.92a8.07,8.07,0,0,0,3.79-1.55c0,1.27,0,2.55,0,3.82a10.22,10.22,0,0,1-5.77,1.2,8.56,8.56,0,0,1-5.51-2.3A8.78,8.78,0,0,1,95,45.18a10.65,10.65,0,0,1,1.67-6.55,8.46,8.46,0,0,1,4.68-3.31Z" transform="translate(-3.98 -20.14)"/><path class="cls-1" d="M147.48,35.05a11.13,11.13,0,0,1,5.85.61v3.88a7.4,7.4,0,0,0-4.44-1.31,2.26,2.26,0,0,0-2,1.12,1.83,1.83,0,0,0,.62,2.16c1.19.8,2.62,1.14,3.86,1.86a5.49,5.49,0,0,1,2.42,2.3,5.13,5.13,0,0,1-1.09,5.94,8.1,8.1,0,0,1-5.88,1.79,12.26,12.26,0,0,1-4.3-1c0-1.36,0-2.72,0-4.08A9.24,9.24,0,0,0,146.34,50a4.93,4.93,0,0,0,2.92-.26,1.69,1.69,0,0,0,.5-2.4,5,5,0,0,0-1.84-1.21,17.46,17.46,0,0,1-3.65-1.87,4.36,4.36,0,0,1-1.58-2.4,5.36,5.36,0,0,1,.59-4.21,6.26,6.26,0,0,1,4.2-2.58Z" transform="translate(-3.98 -20.14)"/><path class="cls-1" d="M118.25,35.6a4.78,4.78,0,0,1,3.93-.33c0,1.41,0,2.82,0,4.23a4.47,4.47,0,0,0-2.85-.67,3.55,3.55,0,0,0-2.65,2.11,8,8,0,0,0-.6,3.61V53h-4.16c0-5.88,0-11.76,0-17.65,1.39,0,2.78,0,4.17,0v3a5.4,5.4,0,0,1,2.18-2.77Z" transform="translate(-3.98 -20.14)"/><path class="cls-1" d="M87.94,35.34c1.4,0,2.8,0,4.2,0,0,5.88,0,11.76,0,17.64H87.94V35.34Z" transform="translate(-3.98 -20.14)"/><path class="cls-1" d="M139.69,39.46A7.41,7.41,0,0,0,136,35.73,11.16,11.16,0,0,0,130,35a8.41,8.41,0,0,0-5.55,3,9.34,9.34,0,0,0-2,5.4A10.17,10.17,0,0,0,124,50a8,8,0,0,0,4.89,3.19,12.09,12.09,0,0,0,4.94,0,8.15,8.15,0,0,0,4.85-3A9.38,9.38,0,0,0,140.53,45,11.62,11.62,0,0,0,139.69,39.46Zm-4.08,8.1a3.82,3.82,0,0,1-2.08,2,5.69,5.69,0,0,1-3.44.15,4.22,4.22,0,0,1-2.65-2.18,8.16,8.16,0,0,1-.64-4.42,5.65,5.65,0,0,1,1.63-3.69,4.38,4.38,0,0,1,2.78-1.09,4.55,4.55,0,0,1,3.54,1.19,5.72,5.72,0,0,1,1.45,3.69A9.18,9.18,0,0,1,135.61,47.56Z" transform="translate(-3.98 -20.14)"/><path class="cls-1" d="M173.53,40a7.52,7.52,0,0,0-3.63-4.11,10.87,10.87,0,0,0-6.27-.85,8.26,8.26,0,0,0-7.46,7.42,11.69,11.69,0,0,0,.67,6.14,7.81,7.81,0,0,0,4.29,4.16,11.36,11.36,0,0,0,6,.5,8.23,8.23,0,0,0,5.2-3,9.73,9.73,0,0,0,1.91-6A11.19,11.19,0,0,0,173.53,40Zm-3.81,6a5.44,5.44,0,0,1-1.09,2.59,4,4,0,0,1-2.47,1.33,5.6,5.6,0,0,1-3-.33,4.23,4.23,0,0,1-2.22-2.33,8.37,8.37,0,0,1-.5-3.84,6,6,0,0,1,1.28-3.52,4.28,4.28,0,0,1,3.08-1.48,4.61,4.61,0,0,1,3.38,1,4.79,4.79,0,0,1,1.53,2.81A10.61,10.61,0,0,1,169.72,46Z" transform="translate(-3.98 -20.14)"/><path class="cls-1" d="M4,41.67H23.52V61.21H4V41.67Z" transform="translate(-3.98 -20.14)"/><path class="cls-1" d="M25.52,41.67H45.05V61.21H25.52q0-9.78,0-19.54Z" transform="translate(-3.98 -20.14)"/></svg>