<svg id="Layer_8" data-name="Layer 8" xmlns="http://www.w3.org/2000/svg" viewBox="0 0 186.04 62.72"><defs><style>.cls-1,.cls-2{fill:#fff;}.cls-1{fill-rule:evenodd;}</style></defs><path class="cls-1" d="M24.76,57.49c0-4.51-5.2-4.7-8.38-4.7H9v.61c1.57.05,2.15.18,2.15,2.24V67.46c0,2.05-.58,2.18-2.15,2.23v.61h9.51v-.61c-1.57,0-2.15-.18-2.15-2.23V62.37c4.35,0,8.43-.44,8.43-4.88ZM16.35,55c0-.91.25-.89,1.17-.89,1.22,0,2,1.68,2,3.48,0,2.53-.64,3.82-3.15,3.82V55Z" transform="translate(-8.97 -7.77)"/><path class="cls-1" d="M23.4,70.3h9.54v-.61c-1.57,0-2.15-.18-2.15-2.23V61.93h6v5.53c0,2.05-.58,2.18-2.16,2.23v.61h9.52v-.61c-1.58,0-2.16-.18-2.16-2.23V55.64c0-2.06.58-2.19,2.16-2.24v-.61H34.59v.61c1.58.05,2.16.18,2.16,2.24v5.12h-6V55.64c0-2.06.58-2.19,2.15-2.24v-.61H23.4v.61c1.58.05,2.16.18,2.16,2.24V67.46c0,2.05-.58,2.18-2.16,2.23v.61Z" transform="translate(-8.97 -7.77)"/><path class="cls-1" d="M43.93,70.3h9.5v-.61c-1.57,0-2.15-.18-2.15-2.23V55.64c0-2.06.58-2.19,2.15-2.24v-.61h-9.5v.61c1.57.05,2.15.18,2.15,2.24V67.46c0,2.05-.58,2.18-2.15,2.23v.61Z" transform="translate(-8.97 -7.77)"/><path class="cls-1" d="M53.23,70.3H67.39l.69-6.41h-.31c-.79,2.85-2,5.4-5.53,5.4-1.2,0-1.64-.21-1.64-1.73V55.64c0-2.06.58-2.19,2.16-2.24v-.61H53.23v.61c1.58.05,2.16.18,2.16,2.24V67.46c0,2.05-.58,2.18-2.16,2.23v.61Z" transform="translate(-8.97 -7.77)"/><path class="cls-1" d="M96.75,70.3h5.56v-.61c-2.19,0-2.39-.89-2.39-2.84V55h0l6.16,15h1.09l6.09-14.2V67.46c0,2.05-.58,2.18-2.16,2.23v.61h9.52v-.61c-1.58,0-2.16-.18-2.16-2.23V55.64c0-2.06.58-2.19,2.16-2.24v-.61h-7l-4.79,10.66-4.63-10.66H96.75v.61c1.27.05,1.93.2,2,2V66c0,3.43-.76,3.68-2,3.68v.61Z" transform="translate(-8.97 -7.77)"/><path class="cls-1" d="M155.62,69.16a27.2,27.2,0,0,1-1.91-2.77l-2.53-4.34a5,5,0,0,0,3.61-4.79c0-2.26-2.22-4.47-6-4.47H137.93v.61c1.67.05,2.26.18,2.26,2.24V67.48c0,2-.76,2.19-2.21,2.21v.61h9.53v-.61c-1.37,0-2.1-.18-2.1-2.21v-5h.76l4.18,7.86h6.28v-.61a1.17,1.17,0,0,1-1-.53Zm-10.21-7.71V55.31c0-1,.22-1.38,1.39-1.38,1.65,0,2.73,1.39,2.73,3.49,0,2.8-.83,4-4.12,4Z" transform="translate(-8.97 -7.77)"/><path class="cls-1" d="M67.59,70.3h9.5v-.61c-1.57,0-2.16-.18-2.16-2.23V55.64c0-2.06.59-2.19,2.16-2.24v-.61h-9.5v.61c1.57.05,2.15.18,2.15,2.24V67.46c0,2.05-.58,2.18-2.15,2.23v.61Z" transform="translate(-8.97 -7.77)"/><path class="cls-1" d="M92.89,57.49c0-4.51-5.21-4.7-8.39-4.7H77.09v.61c1.57.05,2.16.18,2.16,2.24V67.46c0,2.05-.59,2.18-2.16,2.23v.61h9.52v-.61c-1.58,0-2.16-.18-2.16-2.23V62.37c4.35,0,8.44-.44,8.44-4.88ZM84.48,55c0-.91.25-.89,1.16-.89,1.22,0,2,1.68,2,3.48,0,2.53-.63,3.82-3.14,3.82V55Z" transform="translate(-8.97 -7.77)"/><path class="cls-1" d="M129.23,52.79c-9.83,0-9.77,7.49-9.77,8.76s-.06,8.75,9.77,8.75S139,62.82,139,61.55s.06-8.76-9.77-8.76Zm0,17c-2.4,0-4.34-3.59-4.34-8s1.94-8,4.34-8,4.35,3.59,4.35,8-2,8-4.35,8Z" transform="translate(-8.97 -7.77)"/><path class="cls-1" d="M172.11,69.16a26,26,0,0,1-1.9-2.77l-2.54-4.34a5,5,0,0,0,3.61-4.79c0-2.26-2.22-4.47-6-4.47H154.42v.61c1.67.05,2.26.18,2.26,2.24V67.48c0,2-.76,2.19-2.21,2.21v.61H164v-.61c-1.37,0-2.1-.18-2.1-2.21v-5h.76l4.18,7.86h6.28v-.61a1.18,1.18,0,0,1-1-.53ZM161.9,61.45V55.31c0-1,.23-1.38,1.39-1.38,1.65,0,2.73,1.39,2.73,3.49,0,2.8-.82,4-4.12,4Z" transform="translate(-8.97 -7.77)"/><path class="cls-1" d="M171.43,70.3h9.51v-.61c-1.58,0-2.16-.18-2.16-2.23V55.64c0-2.06.58-2.19,2.16-2.24v-.61h-9.51v.61c1.57.05,2.16.18,2.16,2.24V67.46c0,2.05-.59,2.18-2.16,2.23v.61Z" transform="translate(-8.97 -7.77)"/><path class="cls-1" d="M187.33,69.54c-5.07,0-5.88-5.2-5.88-5.2h-.68l0,6h.84c.12-.48.37-.89.93-.89,1.21,0,3.43,1.08,5.2,1.08s7.3-.7,7.3-5.83c0-6.92-10.15-5.21-10.15-9,0-1.46,1.6-2.09,3-2.09,5.08,0,5.72,4.1,5.72,4.1h.69V52.79h-.63s-.4,1.3-1.21.89a9.56,9.56,0,0,0-5-1.14c-2.47,0-6.72,1.21-6.72,5.33,0,6.41,10.34,5.39,10.34,8.94,0,1.65-1.59,2.73-3.75,2.73Z" transform="translate(-8.97 -7.77)"/><path class="cls-2" d="M96.18,17.5l.24.68a17.65,17.65,0,0,1,4.43-.77,17.67,17.67,0,0,1,4.46.78l.32-.59a12.73,12.73,0,0,0-4.78-1,15.78,15.78,0,0,0-4.67.93ZM86.56,47.26l.4-.07-.1-.51.32-.06c.34-.07.52-.25.45-.63a.49.49,0,0,0-.64-.38l-.72.14.29,1.51ZM86.73,46l.26-.05a.18.18,0,0,1,.25.16c0,.13,0,.2-.17.22l-.27.06L86.73,46Zm2.28.83.4,0-.08-.63.53-.07.08.63.39-.05-.18-1.53-.4,0,.07.56-.53.06-.07-.55-.39,0L89,46.82Zm2.6-.3.4,0L91.85,45l-.4,0,.16,1.53Zm1.69-.15,1.12-.07,0-.35-.71,0-.09-1.19-.4,0,.11,1.53Zm2.33-.14.4,0L96,44.67l-.4,0,.08,1.54Zm1.69-.06.4,0v-.51H98c.34,0,.56-.17.54-.55A.49.49,0,0,0,98,44.6l-.73,0,0,1.54Zm.36-1.23H98a.18.18,0,0,1,.22.19c0,.14-.08.2-.21.2h-.27v-.39Zm3.83,1.17h.38l0-1.17h0l.3,1.18h.31l.34-1.16h0l0,1.17h.38l0-1.53h-.59l-.28,1h0l-.24-1h-.59l0,1.54Zm3-.73a.76.76,0,1,0,1.52.08.76.76,0,1,0-1.52-.08Zm.4,0c0-.22.12-.45.38-.43s.35.24.34.47-.13.45-.38.44-.35-.25-.34-.48Zm2.31.89.4,0,0-.56.31,0c.19,0,.2.17.2.33a.77.77,0,0,0,0,.25l.39,0a.87.87,0,0,1,0-.36c0-.14,0-.33-.19-.38h0a.4.4,0,0,0,.26-.37c0-.31-.23-.45-.5-.47l-.79-.06-.1,1.54Zm.48-1.19.32,0c.11,0,.2.07.19.18a.17.17,0,0,1-.2.17l-.33,0,0-.35Zm2.08,1.38.4.05.06-.56.3,0c.19,0,.2.18.19.34a.74.74,0,0,0,0,.25l.39,0a.83.83,0,0,1,0-.35c0-.15,0-.34-.19-.39h0a.39.39,0,0,0,.28-.36c0-.31-.22-.46-.49-.48l-.78-.09-.16,1.53Zm.53-1.17.31,0c.12,0,.2.07.19.18a.16.16,0,0,1-.21.16l-.33,0,0-.35Zm2,1.47.4.06.24-1.52-.39-.06-.25,1.52Zm1.69-.26c-.07.38.21.6.55.66s.69,0,.76-.37-.15-.42-.35-.53-.42-.16-.4-.28.13-.11.21-.09.24.09.21.23l.4.07c.06-.34-.21-.54-.51-.6s-.65,0-.71.34.15.42.36.52.41.17.39.31-.15.13-.27.1-.27-.11-.24-.29l-.4-.07ZM84.7,16c0-.16.2-.3.45-.3s.46.14.46.3-.21.3-.46.3-.45-.13-.45-.3Zm11.08,8.88c0,1.21.25,8.06-.7,10.4,2-.57,2.41-2.66,2.41-4.18,1.14.06,3-.89,3-3.62A3.35,3.35,0,0,0,97.94,24c-.76,0-1.21,1-1.21,1Zm1.71,2.47c0-1.5.22-2.72.48-2.72s.47,1.22.47,2.72-.21,2.73-.47,2.73-.48-1.22-.48-2.73Zm3-2.91a17.56,17.56,0,0,1-1.71,10.78,3.84,3.84,0,0,0,3-2.66A29.7,29.7,0,0,0,103,35.39l.76-3.49a7.79,7.79,0,0,0,2.85,3.8c-.76-3.42-1.77-7.61-1.2-11.35a16.41,16.41,0,0,0-2.41,4s-1-3.87-2.48-3.87ZM92.7,28.15a9.66,9.66,0,0,1,2.16-4.06,8,8,0,0,1,12.06,0,10.12,10.12,0,0,1,0,13.27,8,8,0,0,1-12.06,0,9.72,9.72,0,0,1-2.4-5.28,2.39,2.39,0,0,1-.17.37h0a1.9,1.9,0,0,1-1,.6,7.42,7.42,0,0,0-.94.42,11.71,11.71,0,0,0,1.52,3.59l.06.09c.09.14.18.28.28.41a1.27,1.27,0,0,1,.13.19h0l0,.06h0a10.19,10.19,0,0,0,.79.93,10.42,10.42,0,0,0,15.38,0,11.27,11.27,0,0,0,1.18-1.48h0l.07-.11h0l.06-.09h0v0l0-.06h0l0,0h0l0,0v0h0v0h0a12,12,0,0,0,1.53-4.24h-.41c-.94.11-1-.41-1-.8a.2.2,0,0,1,0-.11,1.09,1.09,0,0,1-.48-.26.75.75,0,0,1-.16-.7,2.26,2.26,0,0,1,.35-.72l0,0h0l0,0h0l0,0h0l0,0v0h0v0h0l0,0h0l0,0h0l0,0h0l0,0h0l0,0h0l0,0h0l0,0h0l0,0h0l0,0h0l0,0h0l0,0h0l0,0h0l0,0h0l0,0h0l0,0h0l0,0h0l0,0h0l0,0h0l0,0h0v0l0,0h0l0,0h0l0,0h0l0,0h0l0,0h0l0,0H111v0h.12l0,0h0l0,0h0l0,0h0l0,0h0l0,0h.07l0,0h.07l0,0h.07l0,0h.06a11.84,11.84,0,0,0-3-5.86,10.42,10.42,0,0,0-15.38,0,11.5,11.5,0,0,0-1.74,2.4v.09a1.2,1.2,0,0,1-.1.51,3.87,3.87,0,0,1-.41.68,7.43,7.43,0,0,1,1.07.76,1.8,1.8,0,0,1,.57.9,1.7,1.7,0,0,1,.08.44Zm2.69-3.58a9.39,9.39,0,0,0,0,12.31,7.25,7.25,0,0,0,11,0,9.39,9.39,0,0,0,0-12.31,7.25,7.25,0,0,0-11,0ZM79.74,14.92h0c-.78-.48-1.79-1.11-1.79-2.36a1.28,1.28,0,0,1,.32-.89,1.15,1.15,0,0,1,.85-.4c.31,0,1.32,0,1.69-.06l.2-.5.05-.12.12,0,.38-.06.13,0,.08.11.37.51a2.76,2.76,0,0,1,1.75-.66,1.64,1.64,0,0,1,1,.45,1.52,1.52,0,0,1,.49,1,2.26,2.26,0,0,1-.36.88c-.22.38-.5.8-.71,1.1l.32,0h.09l.08.06.69.57,0,0,0,.06.1.26c.31.26,2.23,1.9,2.8,2.3a2.57,2.57,0,0,1,.69.63.71.71,0,0,1,.09.7.89.89,0,0,1-1.17.6c-.07,0-.08-.12-.11-.07h0a.29.29,0,0,0,0,.16h0a.76.76,0,0,1-.3.79c-.73.66-1.62-.52-1.81-.81a2,2,0,0,0-.85-.08h-.13c.53.33,1.16.66,1.8,1,2,1.06,4.21,2.21,4.7,4a12,12,0,0,1,1.52-2,11.33,11.33,0,0,1,3.29-2.43l0-.93-.07-.2-.38-1.08,0-.15a.65.65,0,0,1-.15.18,1,1,0,0,1-1.47,0h0a1,1,0,0,1-.31-.73s0-.08,0-.12l-.17,0a1.11,1.11,0,0,1-.78-.33h0a1.09,1.09,0,0,1-.32-.78,1.16,1.16,0,0,1,.08-.42,1.26,1.26,0,0,1-.85-.37,1.33,1.33,0,0,1-.38-.92,1.28,1.28,0,0,1,.38-.91h0a.6.6,0,0,0,.08-.08,1.58,1.58,0,0,1-.29-.22h0a1.43,1.43,0,0,1-.42-1,1.39,1.39,0,0,1,.42-1h0a1.37,1.37,0,0,1,1-.42,1.37,1.37,0,0,1-.14-.61,1.42,1.42,0,0,1,.41-1h0a1.4,1.4,0,0,1,2,0h0l0,0a1.42,1.42,0,0,1,.29-.43h0a1.35,1.35,0,0,1,1-.4,1.32,1.32,0,0,1,1,.4h0a1.44,1.44,0,0,1,.31.46,1.14,1.14,0,0,1,.76-.29,1.18,1.18,0,0,1,.83.34h0a1.35,1.35,0,0,1,.2.27l.47-.12V8h2.52v.87l.48.12a1.05,1.05,0,0,1,.2-.27h0a1.16,1.16,0,0,1,.82-.34,1.18,1.18,0,0,1,.77.29,1.31,1.31,0,0,1,.3-.46,1.35,1.35,0,0,1,1-.4,1.34,1.34,0,0,1,1,.4h0a1.42,1.42,0,0,1,.29.43l0,0h0a1.41,1.41,0,0,1,2,0h0a1.41,1.41,0,0,1,.42,1,1.37,1.37,0,0,1-.14.61,1.4,1.4,0,0,1,1,.42h0a1.42,1.42,0,0,1,.41,1,1.46,1.46,0,0,1-.41,1h0a1.66,1.66,0,0,1-.3.22.6.6,0,0,1,.08.08,1.24,1.24,0,0,1,.38.91,1.28,1.28,0,0,1-.38.92h0a1.23,1.23,0,0,1-.84.37,1.16,1.16,0,0,1,.08.42,1.09,1.09,0,0,1-.32.78h0a1.11,1.11,0,0,1-.78.33l-.18,0a.49.49,0,0,1,0,.12,1,1,0,0,1-1,1,1.07,1.07,0,0,1-.71-.28l0,.1-.48.9v1.14a11.37,11.37,0,0,1,3.28,2.44,10.72,10.72,0,0,1,.92,1.1h.75a1.5,1.5,0,0,1,0-.37,1.82,1.82,0,0,1,.17-.81,2.2,2.2,0,0,1,.52-.72,3.32,3.32,0,0,1,2.24-.82,6.86,6.86,0,0,0,2.67-.63c.9-.41,1.47-.92,1.5-1.21h0s-.11-.07-.24-.09h0a2.85,2.85,0,0,0-.66,0,3.51,3.51,0,0,0-1.18.26l-.14.08a1.14,1.14,0,0,1-.94.1h0a1.48,1.48,0,0,1-.69-.63,1.32,1.32,0,0,1-.12-.2c-.3-.56-.17-.86.14-1a2.1,2.1,0,0,1,.86-.14,1.78,1.78,0,0,0,.56,0c0-.42-.06-.55-.23-.57a2.91,2.91,0,0,0-.54.05,4.77,4.77,0,0,1-.67.06c-.81,0-.93-.55-.93-1.07,0-.09,0-.19,0-.28a.76.76,0,0,0,0-.15c-.48-.86-.29-1.32.15-1.58h0a3.26,3.26,0,0,1,1.6-.21h.24c.4,0,.47-.08.55-.17s.31-.36,1-.4a2.45,2.45,0,0,1,1.24.16.63.63,0,0,0,.37,0,2.13,2.13,0,0,0,.89-.48,3.58,3.58,0,0,1,1.39-.73l.09,0,.08,0a2,2,0,0,1,.77,1.63,1.63,1.63,0,0,0,.06.36,3.21,3.21,0,0,0,.59.75,2.28,2.28,0,0,1,.7,1.07,2.18,2.18,0,0,0,.82,1.23,3.24,3.24,0,0,0,1.66.57l.25,0-.07.24a3.51,3.51,0,0,1-.3.83h0a1.51,1.51,0,0,1-.39.45l.31.67.08.18-.17.09-.78.48.36.84.1.21-.23.08-1,.33v1.17l-.18,0c-1,.19-1,.89-1,1.51a2.64,2.64,0,0,1,0,.8l0,.19-.19,0h0l-.51-.07a5.05,5.05,0,0,0,.75,2.19,4.19,4.19,0,0,1,.47,1.13,6.63,6.63,0,0,0,.17.72,4.37,4.37,0,0,1,.23,1.84,5.4,5.4,0,0,1,1.08,1.58,4.14,4.14,0,0,1,.43,1.7,3.29,3.29,0,0,0,.66.37,1.07,1.07,0,0,0,.65.08h0c.47-.12,1.66-.42,1.66-1.63a1.22,1.22,0,0,0-.28-.79,1.47,1.47,0,0,0-.53-.38,1.79,1.79,0,0,0-.65-.13,1.21,1.21,0,0,0-.79.26l-.21.18-.12-.25a2.93,2.93,0,0,1-.19-.57,1.56,1.56,0,0,1,.1-.94,1.52,1.52,0,0,1,.74-.69h0A6.5,6.5,0,0,1,123,25a3.54,3.54,0,0,1,1-2.51,4,4,0,0,1,2.61-1.25,4.3,4.3,0,0,1,2.19.73,4.9,4.9,0,0,1,1.69-.16,2.72,2.72,0,0,1,1.22.36,2.43,2.43,0,0,0,1.31.34h.21v.21a.92.92,0,0,1-.36.88l-.1.1A.93.93,0,0,1,133,24a1.74,1.74,0,0,1,.06.81v.06l0,.06a1.45,1.45,0,0,1-1,.43,2.69,2.69,0,0,1,.18,1.37,3.36,3.36,0,0,1-.24.69,2,2,0,0,0-.11,1.88l.1.16-.14.12a1.69,1.69,0,0,1-.72.32,1.34,1.34,0,0,1-.81-.11,1.38,1.38,0,0,1-.66-.72,3.07,3.07,0,0,1-.19-1.43,5.25,5.25,0,0,1-1.06-1,7.5,7.5,0,0,1-.76-1.28,1.15,1.15,0,0,1,.12-1.2,1,1,0,0,0,.18-.74.7.7,0,0,0-.38-.38,1.93,1.93,0,0,0-.87-.22,2.59,2.59,0,0,0-1.48.93,2.34,2.34,0,0,0-.59,1.52,3.44,3.44,0,0,0,.45,1.68,4.37,4.37,0,0,0,1.11,1.3c.14-.17.34-.39.61-.66l.21-.21.14.27c.28.56.46,1,.56,1.25a2.27,2.27,0,0,1,.83-.23c.58,0,.44,1.26.41,1.48s.19.73,1,.55l.25-.05v.25c0,.1,0,.23,0,.36.08.88.16,1.85-.47,2.13a1.92,1.92,0,0,0-.71.56,1.82,1.82,0,0,0-.37.81,1.84,1.84,0,0,1-.63.92,5,5,0,0,1-1.29.83,4.45,4.45,0,0,1-1.73.06c-.27,0-.53-.08-.75-.12a3.42,3.42,0,0,0,.87.68c1.49.85,1.45,1.51,1.4,2.3a3.37,3.37,0,0,0,0,.89,5.93,5.93,0,0,0,.24.76,2.82,2.82,0,0,1,.22,2l5.23.07h.4l-.22.32L130.74,46l1.94,2.73.25.35h-.43s-13.11-.24-14.81,0c-.28.63-.46,1-.47,1l-.08.18-.18-.06s-4.41-1.64-16.11-1.64-16.08,1.63-16.1,1.64l-.18.06-.09-.18s-.19-.41-.47-1c-1.7-.28-14.77,0-14.8,0h-.43l.25-.35L71,46l-1.69-2.61-.22-.32h.39s4.45-.05,7-.1a2.49,2.49,0,0,1,.11-.29h0l.08-.2a1,1,0,0,0-.29-.13c-.47-.17-1.12-.42-1.12-1.28a4,4,0,0,1,.11-.78,5.21,5.21,0,0,0,.09-2.1.2.2,0,0,1,0-.07.79.79,0,0,1,.22-.66,1.18,1.18,0,0,1,.66-.33l.14,0a3.42,3.42,0,0,0,1.3-.37,2.3,2.3,0,0,0,.71-.62,1.52,1.52,0,0,0,.27-.78c-3.32.29-3.53-.85-3.74-2,0-.1,0-.2-.06-.32-.25-1.18,1.56-3.49,2.22-4.33l.17-.22a.43.43,0,0,0,.08-.19.25.25,0,0,0-.06-.2.72.72,0,0,0-.23-.17,1.29,1.29,0,0,0-.61-.05l-.36.05.13-.34a1.84,1.84,0,0,1,2.14-1,12.54,12.54,0,0,0,.2-1.41,1.46,1.46,0,0,0-.43-1,1.91,1.91,0,0,0-1.09-.64,1.16,1.16,0,0,0-.76.19.82.82,0,0,0-.4.51,1.27,1.27,0,0,0,0,.58,1.86,1.86,0,0,0,.48.7l.17.17-.2.15a1.32,1.32,0,0,1-.49.24,3.58,3.58,0,0,1-.15,1,4.08,4.08,0,0,1-.85,1.42,2.93,2.93,0,0,0-.54,1,2.42,2.42,0,0,1-1.63,1.68l-.64.27.38-.59c.55-.87.18-1.41-.24-2a3.1,3.1,0,0,1-.72-2.38l-.16,0-.19,0v-.19a2.06,2.06,0,0,1,.59-1.05l.33-.42a1,1,0,0,1-.82-.52L71.07,24,71,23.85l.11-.14a2.73,2.73,0,0,1,1.47-.78h0A16.71,16.71,0,0,1,75,22.55a.77.77,0,0,0,.56-.28c.27-.26.56-.54,1.77-.42a3.32,3.32,0,0,1,2,1.12,4.06,4.06,0,0,1,1.1,2.19,6.92,6.92,0,0,1-.76,2.72,1.32,1.32,0,0,1,.69,1.32,1.77,1.77,0,0,1-.66,1.08,2.36,2.36,0,0,0-.62.82l-.11.25-.22-.17-.15-.1A.91.91,0,0,1,78,30.4l-.31.36c-.55.61-1.28,1.44-1.21,2.07h0s0,.07,0,.1a1,1,0,0,0,.8.76,3.3,3.3,0,0,0,1.2.09.29.29,0,0,1,.24-.17A6.27,6.27,0,0,1,80,30.7a2.51,2.51,0,0,1,1.29-.9,2.78,2.78,0,0,0,1.62-1.31.48.48,0,0,0,0-.2,5.52,5.52,0,0,1,.6-2.31,2.2,2.2,0,0,0-.08-1.4,4.71,4.71,0,0,1-.2-1.07c-.26-.09-.52-.2-.75-.3a1.16,1.16,0,0,1-.2.5.57.57,0,0,1-.57.26,1.24,1.24,0,0,1-.57-.29,6.28,6.28,0,0,1-1.22-1.47,1.27,1.27,0,0,1-.39.19.71.71,0,0,1-.69-.21,1.87,1.87,0,0,1-.41-.68,6,6,0,0,1-.28-2.07c-.88.13-.7-1-.63-1.28A11.65,11.65,0,0,1,77,17.08l-.12-.27.29,0a2.78,2.78,0,0,0,1-.5,9.4,9.4,0,0,0,1.31-1.14.82.82,0,0,1,.29-.22Zm.21-.38.31.2.32-.05h.08a1.1,1.1,0,0,1,0-.18,1.15,1.15,0,0,1,0-.26l-.06,0a3.21,3.21,0,0,1-1.69-1.1h0a.78.78,0,0,1-.15-.45.6.6,0,0,1,.06-.27.53.53,0,0,1,.21-.21,1.23,1.23,0,0,1,.69-.16,3.51,3.51,0,0,1,1.93,1l0,0v0l.1.16h.1a.91.91,0,0,1-.08-.39,1,1,0,0,1,.15-.52h0a2,2,0,0,1,.82-.6,2.8,2.8,0,0,1,1.07-.26h0a.71.71,0,0,1,.31.07.52.52,0,0,1,.27.39,1.27,1.27,0,0,1-.06.46,2.74,2.74,0,0,1-.56.9h0l-.38.4a2.14,2.14,0,0,1-.25.21h0a.56.56,0,0,0,.23,0h.34c.18-.26.59-.85.89-1.36a2.28,2.28,0,0,0,.3-.66,1.1,1.1,0,0,0-.36-.72,1.23,1.23,0,0,0-.77-.34,2.7,2.7,0,0,0-1.62.71l-.17.16-.15-.19L81.48,11l-.13,0-.21.52,0,.13H81s-1.48.06-1.85.06a.73.73,0,0,0-.53.25.91.91,0,0,0-.21.61c0,1,.9,1.57,1.59,2Zm3-2.44a1.59,1.59,0,0,0-.62.44.58.58,0,0,0-.09.3.62.62,0,0,0,.06.26l.67.41.17-.15L83.5,13h0a2.41,2.41,0,0,0,.46-.75A.66.66,0,0,0,84,12s0-.06,0-.07l-.11,0a2.42,2.42,0,0,0-.91.22Zm-3.67.78a2.91,2.91,0,0,0,1.46.92h.05a1.5,1.5,0,0,1,.24-.31,1.21,1.21,0,0,1,.3-.2,2.93,2.93,0,0,0-1.6-.87.81.81,0,0,0-.46.09l-.06.05a.15.15,0,0,0,0,.07.46.46,0,0,0,.08.22Zm-4,14.06a3.32,3.32,0,0,0,.13-.86h-.26v0h0v0h0v0h0v0h0v0h0v0h-.29a1.58,1.58,0,0,1-.45.31.81.81,0,0,1-.46.09h0a.37.37,0,0,1-.25-.12h0a1.08,1.08,0,0,1-.29-.81v0a2,2,0,0,1-1.42.3,2.76,2.76,0,0,0,.66,2,2.08,2.08,0,0,1,.53,1.9,2,2,0,0,0,.84-1.13,3.21,3.21,0,0,1,.62-1.13,3.57,3.57,0,0,0,.76-1.26Zm3.86,7h0V34c0,.19,0,.36,0,.53h0v0h0v0h0v0h0v0h0v.33h0a1.92,1.92,0,0,1-.37,1.07,2.36,2.36,0,0,1-.84.74,3.66,3.66,0,0,1-1.46.43h-.11a.79.79,0,0,0-.43.21.39.39,0,0,0-.11.31.06.06,0,0,1,0,0,5.43,5.43,0,0,1-.09,2.26,4.34,4.34,0,0,0-.1.7c0,.57.49.75.84.88s.47.17.54.37a.68.68,0,0,1-.08.53h0a1,1,0,0,0-.12.38c0,.15.19.28,1,.28a2,2,0,0,0,.88-.13c.15-.09.2-.28.06-.65a1.77,1.77,0,0,0-.95-1,1.61,1.61,0,0,1-1-1.72,1.41,1.41,0,0,1,.29-1,1.45,1.45,0,0,1,1.21-.34h0l.48,0a1.17,1.17,0,0,0,1.43-.62h0V38l-.12.07-.57-.33.66-.07a3.18,3.18,0,0,0,1.57-.56,2,2,0,0,0,.64-1.57,1.09,1.09,0,0,1,.1-.62h0a3.13,3.13,0,0,1,1-1,2.47,2.47,0,0,0,.59-.5,2.94,2.94,0,0,1,1-.81A8.7,8.7,0,0,1,87.11,32a4.7,4.7,0,0,0,2-.88,2.22,2.22,0,0,0,.9-1.4,8.22,8.22,0,0,0,.09-1.12c0-.18,0-.28-.1-.32-.22,0-.46-.05-.71-.06a4.2,4.2,0,0,1-2.83-1l.29-.32a3.54,3.54,0,0,0,2.27.85l.8.06a2.09,2.09,0,0,1,.92.27,1.31,1.31,0,0,1,.44.53h0a1.6,1.6,0,0,1,0,1.18,1.92,1.92,0,0,0-.11.57,2.21,2.21,0,0,1-.19,1,.79.79,0,0,1-.63.48l-.27,0-.28,0c-.22,0-.4.14-.34.54h0l0,.15a2.55,2.55,0,0,0,.17.8h0s.09,0,.23-.09h0a6.71,6.71,0,0,1,1.33-.65,1.73,1.73,0,0,0,.75-.41h0a1.84,1.84,0,0,0,.2-1.34,4,4,0,0,1,0-.86c0-.3.06-.58.1-.85a3.27,3.27,0,0,0,0-1.35,1.44,1.44,0,0,0-.45-.71,6.85,6.85,0,0,0-1.07-.75c-.24.16-.5.09-.8-.13a2.27,2.27,0,0,1-.38-.34,8.89,8.89,0,0,1-.71-.81c-.27-.32-.55-.66-.84-1a3.16,3.16,0,0,0-.85-.63,1.44,1.44,0,0,1-1,.15,3.85,3.85,0,0,1-1.2-.46,1,1,0,0,1-1.22.43,6.25,6.25,0,0,0,.17.84,2.56,2.56,0,0,1,.07,1.68,5.14,5.14,0,0,0-.57,2.15.69.69,0,0,1-.08.41,3.12,3.12,0,0,1-1.83,1.49,2.23,2.23,0,0,0-1.1.74,5.88,5.88,0,0,0-1.17,2.95Zm-.45.3h-.06a3.82,3.82,0,0,1-1.45-.09A1.44,1.44,0,0,1,76.12,33l0-.14h0c-.09-.81.71-1.72,1.32-2.4a3.41,3.41,0,0,0,.53-.68l.28-.72.14.76c.12.67.21.77.34.86a3.42,3.42,0,0,1,.6-.72,1.46,1.46,0,0,0,.54-.83c.1-.66-.64-1-.64-1L79,28.07l.11-.2a7.11,7.11,0,0,0,.8-2.68,3.58,3.58,0,0,0-1-1.93,2.83,2.83,0,0,0-1.67-1c-1-.1-1.22.1-1.42.3A1.2,1.2,0,0,1,75,23a15,15,0,0,0-2.37.37h0a2.74,2.74,0,0,0-1.11.5l.07.1c.17.22.25.33.86.38l.36,0-.19.31c-.18.27-.37.52-.55.74a4.38,4.38,0,0,0-.44.62l.11,0h.18a1.88,1.88,0,0,0,1.37-.32h.1l0,0,.28-.15,0,.32c0,.13,0,.25,0,.35a.79.79,0,0,0,.16.54h0a.43.43,0,0,0,.22-.06.83.83,0,0,0,.32-.23,1.21,1.21,0,0,0,.35-.67l0-.23.22.05h.33a1,1,0,0,0,.31,0l.18-.05a2.06,2.06,0,0,1-.38-.66,1.51,1.51,0,0,1-.06-.78,1.21,1.21,0,0,1,.6-.81,1.63,1.63,0,0,1,1-.26,2.34,2.34,0,0,1,1.37.78A1.82,1.82,0,0,1,79,25.19a9.08,9.08,0,0,1-.26,1.69l0,.21L78.47,27s-1.11-.31-1.66.39a1.36,1.36,0,0,1,.42.1,1,1,0,0,1,.42.31.67.67,0,0,1,.14.49.86.86,0,0,1-.17.41l-.18.23c-.62.79-2.33,3-2.13,4,0,.1,0,.22.07.33.17,1,.35,2,3.33,1.68v0h0v0h0v0h0v0h0v-.08ZM99.94,11.28a.88.88,0,0,1,.27-.64h0a.88.88,0,0,1,.64-.27.9.9,0,0,1,.65.27h0a.92.92,0,0,1,.27.64.94.94,0,0,1-.27.65h0a.9.9,0,0,1-.65.27.88.88,0,0,1-.64-.27h0a.91.91,0,0,1-.27-.65Zm.57-.34a.52.52,0,0,0-.14.34.48.48,0,0,0,.14.34h0a.52.52,0,0,0,.34.14.45.45,0,0,0,.34-.15h0a.48.48,0,0,0,.14-.34.52.52,0,0,0-.14-.34h0a.48.48,0,0,0-.34-.14.52.52,0,0,0-.34.14ZM91.42,24.21v0Zm-2.9-.11a1.91,1.91,0,0,0-.15-1.1,2.65,2.65,0,0,0-1.08-1,6.35,6.35,0,0,0-2.43-.56c-2.35-.29-5.12-.63-5.22-4.06h.43c.09,3.06,2.66,3.37,4.84,3.64a7,7,0,0,1,2.61.62,3.15,3.15,0,0,1,1.24,1.18,2.63,2.63,0,0,1,.13,1.71h0c.11.12.22.25.32.38a7.43,7.43,0,0,0,1,1c.16.12.29.15.38,0A4,4,0,0,0,91,25.2a.79.79,0,0,0,.07-.34c0-2-2.39-3.29-4.57-4.43-1.73-.91-3.34-1.75-3.67-2.94l.41-.12a2,2,0,0,0,.73.86,1.77,1.77,0,0,0,1,.39,2.49,2.49,0,0,1,1.13.14l.06,0,0,.05s.76,1.18,1.2.78a.4.4,0,0,0,.16-.42h0a.63.63,0,0,1,0-.4h0c.11-.23.31-.2.56-.16s.55.08.69-.32a.33.33,0,0,0,0-.32,2,2,0,0,0-.57-.51c-.65-.46-2.87-2.36-2.88-2.36l0,0,0-.05-.1-.26-.59-.48-1.19.12c-.59-.07-.72-.53-1.25-.65a.84.84,0,0,0-1,.26.94.94,0,0,0-.14,1l-.88.19a.87.87,0,0,0-.41.23,9.71,9.71,0,0,1-1.37,1.2,4.7,4.7,0,0,1-.89.51c.22.47.45.89.45.89l0,.08,0,.08s-.27,1,.35.76l.32-.12,0,.34a5.89,5.89,0,0,0,.25,2.19,1.39,1.39,0,0,0,.29.52.3.3,0,0,0,.3.1.86.86,0,0,0,.38-.26l.2-.19.14.24a6.2,6.2,0,0,0,1.26,1.57.88.88,0,0,0,.36.2.19.19,0,0,0,.17-.08,1.32,1.32,0,0,0,.16-.59l0-.3.27.13.15.06c.2.1.45.21.71.31h0l.25.07a1.52,1.52,0,0,0,.71.07h0a.48.48,0,0,0,.37-.37l.08-.27.24.15a3.74,3.74,0,0,0,1.26.52A1,1,0,0,0,87,23.1l.1-.07.1,0,.07,0h0a3.42,3.42,0,0,1,1,.77h0l0,0h0l0,0h0v0h0v0h0l0,0h0l0,0h0l0,0H88v0h-.14v0h-.07l0,0h0l-.17-.11.17.11.85.76ZM84,23.23h0Zm.07,0h0Zm.15,0h0Zm3.11-.08.15.08-.15-.08Zm1,.75.22.22-.22-.22Zm0,0ZM90,33.71c-.36.22-.59.17-.76-.08h0a2.61,2.61,0,0,1-.24-1l0-.15h0c-.11-.74.23-.94.66-1,0-.07,0-.14,0-.21l-.2.18a5.24,5.24,0,0,1-2.22,1,7.33,7.33,0,0,0-2,.63,3,3,0,0,0-.37.22,4.21,4.21,0,0,0,2.22,0,1,1,0,0,1,.32,0h0a2,2,0,0,1,1.31.72,2.46,2.46,0,0,1,.73,1.46c0,.77-.86,1.23-1.67,1.66-.6.33-1.17.63-1.19,1,0,.53,1,.66,1.91.76a5.87,5.87,0,0,1,1,.17.84.84,0,0,1,.46.35h0a.51.51,0,0,0,.19.16,1.3,1.3,0,0,0,.28,0l.26,0a3.73,3.73,0,0,0,.54-1,5.59,5.59,0,0,0,.39-1.31A12.29,12.29,0,0,1,90,33.71Zm.07-2.26.17,0a.4.4,0,0,0,.31-.24,1.86,1.86,0,0,0,.14-.81,2.42,2.42,0,0,1,.12-.68,1.17,1.17,0,0,0,0-.88h0a.87.87,0,0,0-.26-.34v.11a7.68,7.68,0,0,1-.1,1.18A2.3,2.3,0,0,1,90,30.82c0,.21,0,.42,0,.63Zm-5.63,2.18-.09.11a2.87,2.87,0,0,1-.69.6,2.6,2.6,0,0,0-.88.84h0a.73.73,0,0,0,0,.38,2.19,2.19,0,0,1,0,.7c.36.41.95.3,1.42.21a4.09,4.09,0,0,1,.53-.07c.36,0,.58.13.58.57s-.3.62-.62.77h0c-.25.12-.52.24-.52.69s.35.54.91.63A5.41,5.41,0,0,1,87.8,40.3a1.51,1.51,0,0,0,1.16.47,1.2,1.2,0,0,1,.55.06l.08,0,0,.08c.21.42.59.4.94.39h.2c.34,0,.5-.06.54-.17a1.1,1.1,0,0,0-.11-.68c-.14-.39-.57-.45-.88-.49a1.91,1.91,0,0,1-.39-.08.76.76,0,0,1-.38-.31h0a.44.44,0,0,0-.24-.19,4.73,4.73,0,0,0-.91-.15c-1.05-.13-2.34-.28-2.29-1.21,0-.56.71-.92,1.42-1.31S89,36,89,35.45a2.1,2.1,0,0,0-.61-1.17,1.65,1.65,0,0,0-1-.58h0l-.19,0a4.88,4.88,0,0,1-2.71-.11ZM82.51,36.7a3.88,3.88,0,0,1-.52.73,2.73,2.73,0,0,1-1.43.64.22.22,0,0,1,0,.22h0a1.56,1.56,0,0,1-1.89.89l-.46,0h0c-.47,0-.73.05-.87.2a1.07,1.07,0,0,0-.17.73,1.26,1.26,0,0,0,.8,1.34,2.1,2.1,0,0,1,1.15,1.18,3,3,0,0,1,.1.33c2.06,0,4.63.07,6,.68a46.77,46.77,0,0,1,4.61-.85,2.26,2.26,0,0,1-.05-1.11,1,1,0,0,1-.45-.44,1.72,1.72,0,0,0-.32,0,1.79,1.79,0,0,1-1.45-.56,4.87,4.87,0,0,0-2.61-1.14c-.79-.14-1.27-.22-1.27-1.06a1,1,0,0,1,.77-1.08h0c.19-.09.37-.17.37-.38s-.06-.13-.15-.13a2.07,2.07,0,0,0-.45.06,2,2,0,0,1-1.67-.2ZM79.2,43.36a.66.66,0,0,1-.32.41,2.15,2.15,0,0,1-1.11.21c-1,0-1.29-.24-1.37-.55l-6.55.1,1.56,2.4.08.12-.08.12-1.79,2.51c2.16,0,11.87-.19,14.19,0-.49-1.13-1.15-2.69-1.62-4l-.07-.2.2-.08c.62-.21,1.32-.43,2.12-.64a20.38,20.38,0,0,0-5.24-.44Zm11.87-3.63a1,1,0,0,1,.53.6.3.3,0,0,1,0,.1,3.38,3.38,0,0,0,.44-.67,6.07,6.07,0,0,0,.42-1.08l-.1-.14-.21-.33c-.1-.12-.2-.26-.29-.39a7.54,7.54,0,0,1-.33,1,4.55,4.55,0,0,1-.5.93Zm.69,1.18a.87.87,0,0,1-.05.4.36.36,0,0,1,0,.09c.22.18.65.12,1.13.05.84-.11,1.81-.24,2.43.65l.19.1.08,0c.75,0,1.52-.08,2.33-.1a11.29,11.29,0,0,1-4.92-3.07L92.85,39a6.06,6.06,0,0,1-.39,1,3.51,3.51,0,0,1-.66.92l0,0Zm-.43.76a1.49,1.49,0,0,1-.56.09h-.19c-.14,0-.28,0-.42,0a1.82,1.82,0,0,0,0,.8.22.22,0,0,1,.08.14h.11c1.35-.18,2.83-.32,4.45-.42-.49-.59-1.27-.48-2-.39s-1.19.16-1.53-.21Zm34.61-13.08a4.84,4.84,0,0,1-1.27-1.46,3.9,3.9,0,0,1-.5-1.89,2.71,2.71,0,0,1,.7-1.8,3,3,0,0,1,1.8-1.08,2.45,2.45,0,0,1,1.07.27,1.09,1.09,0,0,1,.6.65,1.36,1.36,0,0,1-.22,1,.82.82,0,0,0-.12.81,8.51,8.51,0,0,0,.72,1.21,4.92,4.92,0,0,0,1,1l0,0h0a5.68,5.68,0,0,0,.59-2.33V24.8l.24,0h1a1.42,1.42,0,0,0,1-.24,1.26,1.26,0,0,0-.05-.54.35.35,0,0,0-.2-.24l-.29-.12.2-.23.29-.3h0a.58.58,0,0,0,.22-.36,2.77,2.77,0,0,1-1.28-.38,2.42,2.42,0,0,0-1-.31,3.9,3.9,0,0,0-1.62.17l-.11.05-.1-.07a3.88,3.88,0,0,0-2-.72,3.6,3.6,0,0,0-2.3,1.12,3.09,3.09,0,0,0-.91,2.21,6.07,6.07,0,0,0,2.47,4.66l0-.05a.9.9,0,0,0,0-.18h0v0h0v0h0a1,1,0,0,1,0-.62Zm5.85-1.93a2.49,2.49,0,0,0-.22-1.29l-.48,0h-.28v.11h0v.14h0v0h0v0h0v0h0v0h0v.2h0v.06h0V26h0v0h0v0h0v0h0v.23h0v0h0v0h0v.07h0v.1h0l0,0v0h0v.07h0v.07h0l0,0v.07l0,0V27h0l0,0v0l0,0v0l0,0v0l0,0v0l0,0v0l0,.05v0l0,0,0,0-.09.25L130,28l-.15-.09a2.28,2.28,0,0,0,.17,1,.92.92,0,0,0,.44.5.9.9,0,0,0,.56.07,1.46,1.46,0,0,0,.37-.12,2.44,2.44,0,0,1,.18-2.09,3.71,3.71,0,0,0,.21-.61Zm-8.18,9.63h0v0a4.71,4.71,0,0,1-.29-.48h0v0h0a.71.71,0,0,0-.1-.14c-.09-.12-.36-.34-.23-.5h0c.08-.09.22-.11.39,0a.57.57,0,0,1,.11.11.78.78,0,0,0,.24.09h0c.16,0,.33-.16.37-.81a3.57,3.57,0,0,0-.38-1.6,5.05,5.05,0,0,0-1.07-1.53l-.09-.08,0-.12a3.8,3.8,0,0,0-.21-1.76c-.07-.27-.14-.53-.18-.77a4.07,4.07,0,0,0-.42-1,5.29,5.29,0,0,1-.8-2.53,1.35,1.35,0,0,1-.48-.32,2.41,2.41,0,0,1-.08.25,4.09,4.09,0,0,1-.7,1.17,1.32,1.32,0,0,1-.91.52l-.15,0a1.58,1.58,0,0,1-.74-.73,5.89,5.89,0,0,1-.37-.8,3.7,3.7,0,0,1-1.12.42,1.85,1.85,0,0,1-1.24-.05h0a.71.71,0,0,1-.37-.64,1.11,1.11,0,0,0,0-.17,2.69,2.69,0,0,1-.46.17,4.32,4.32,0,0,0-.08,2.53,11.14,11.14,0,0,0,1.18-.78l.25.35a11.05,11.05,0,0,1-1.28.83h0l-.19.1h0l-.1.05h0L114,28h0l0,0h-.1l0,0h-.21l0,0h-1.47l-.4.19h-.07l0,0h-.12l0,0h0l0,0h-.09l0,0h0l0,0h0l0,0h0l0,0h0l0,0h0l0,0h0l0,0h0l0,0h0l0,0h0l0,0h0l0,0h0l0,0h0l0,0h0l0,0h0l0,0h0l0,0h0l0,0h0l0,0h-.06l0,0h0l0,0h0v0h0v0h0l0,0h0l0,0h0l0,0h0l-.08.1h0l0,0h0a1.47,1.47,0,0,1-.1.13H110a.38.38,0,0,0,.06.32.52.52,0,0,0,.29.14h0l0,0c.19.09.2.26.22.46h0v0h.65l.13,0,.08.12h.21l.42.13h.06a.31.31,0,0,0,.18-.12h.12v0h0v0h0v0h0v0h0v-.07h0v-.23h0v-.08h0v0l0,0v0l0,0v0l0,0v0l0,0h0l0,0v0h0l0,0h0l0,0h0l0,0,0,0h0l0,0,0,0h0l0,0h0l0,0h0l0,0h0l0,0h0l0,0h0l0,0h.08l0,0h.2l0,0h.23a4,4,0,0,0,.68-.29h.7l.22-.07h0c.36-.09.74-.16,1.11-.23.82-.14,1.58-.28,1.68-.61l.42.13c-.18.58-1.07.74-2,.91-.29.05-.59.1-.88.17a2.34,2.34,0,0,0,2,.74c.59,0,1,0,1.18.67a3.49,3.49,0,0,1-.19,1.86,2.56,2.56,0,0,0,.82,3.22,12.82,12.82,0,0,0,2.42,1.75,2.41,2.41,0,0,0,1.36.23,1.48,1.48,0,0,1,1.2.37h0a1.72,1.72,0,0,1,.42.88,1.51,1.51,0,0,1-.27,1.16,2.57,2.57,0,0,1-1,.86,1.11,1.11,0,0,0-.61.66.46.46,0,0,0,0,.2.24.24,0,0,0,.07.12.69.69,0,0,0,.53,0l.17,0,.08.17a1,1,0,0,0,.4.52c.14.07.33,0,.61-.16l.1-.07.11,0a2.14,2.14,0,0,0,.85.22.82.82,0,0,0,.72-.46c.31-.5.07-1.18-.16-1.82a7.41,7.41,0,0,1-.25-.81,3.46,3.46,0,0,1,0-1c0-.65.07-1.18-1.19-1.9a3.64,3.64,0,0,1-1.3-1.19ZM125,35.18a2.42,2.42,0,0,1-.55-.29c-.07.37-.24.79-.66.83l.11.19c.22.05.68.14,1.18.2a3.87,3.87,0,0,0,1.54,0,4.48,4.48,0,0,0,1.15-.74,1.3,1.3,0,0,0,.48-.68,2.32,2.32,0,0,1,.46-1,2.38,2.38,0,0,1,.87-.69c.36-.16.29-1,.22-1.7v-.14a1.11,1.11,0,0,1-1.28-1v-.06s.14-1,0-1a2.46,2.46,0,0,0-.85.29l-.22.13-.08-.25s-.15-.44-.5-1.16c-.55.58-.58.75-.53,1.06l.06.3,0,.22v0a1.64,1.64,0,0,1,0,.23v.19l-.18,0-.24.06h0a1.69,1.69,0,0,0-.27.1h0a1.06,1.06,0,0,0-.53.49,1.14,1.14,0,0,0-.07.67l.06.23a1.7,1.7,0,0,1,.83-.2,2.11,2.11,0,0,1,.82.17,1.88,1.88,0,0,1,.69.5,1.61,1.61,0,0,1,.38,1.06c0,1.55-1.42,1.9-2,2h0a1.54,1.54,0,0,1-.92-.1Zm-8.89-20.94c0-.18.29-.28.59-.23s.53.24.5.42-.29.28-.59.23-.53-.24-.5-.42Zm-2.48,12.11-2.07.08a13,13,0,0,1,.45,1.62h.26l.33,0h.72l.16-.05h.13l.1,0h.12a3.86,3.86,0,0,1-.2-1.27ZM111.4,26l.22,0,2-.08a6.16,6.16,0,0,1,.19-1,2.39,2.39,0,0,1-.47-.13,3.64,3.64,0,0,0-.55-.17l-.11,0,0-.1a2.13,2.13,0,0,1-.17-.8,2.52,2.52,0,0,1-.57.23,1.11,1.11,0,0,1-.93-.07,1.64,1.64,0,0,1-.19-.25h-.37l-.25,0A12.58,12.58,0,0,1,111.4,26Zm10-6.72a.22.22,0,0,1,.25-.17.22.22,0,0,1,.18.25,3,3,0,0,1-1.71,2.22,6.28,6.28,0,0,1-3.54.43c-1.63-.23-1.89,0-2.6.55a11.08,11.08,0,0,1-.93.7l-.07.11s-.17.25,0,.84l.49.15a1.22,1.22,0,0,0,1.28-.15l.22-.13.08.24a1.89,1.89,0,0,1,.12.51.41.41,0,0,0,.18.34h0a1.52,1.52,0,0,0,.91,0,3.17,3.17,0,0,0,1.19-.5l.23-.16.1.26a5.91,5.91,0,0,0,.43,1,1.18,1.18,0,0,0,.52.54h0c.13,0,.34-.14.56-.38a3.49,3.49,0,0,0,.62-1,2.44,2.44,0,0,0,.15-.69l0-.94.37.87a1.28,1.28,0,0,0,1.2.73,4.1,4.1,0,0,0,0-.48c-.06-.76-.12-1.62,1.13-1.93V21.34l.15-.05.92-.3-.36-.8-.07-.18.16-.09.79-.48-.3-.64-.08-.17.15-.1a1.35,1.35,0,0,0,.41-.42h0a1.82,1.82,0,0,0,.2-.48A3.64,3.64,0,0,1,123.2,17a2.61,2.61,0,0,1-1-1.48,2,2,0,0,0-.58-.87,3.33,3.33,0,0,1-.67-.86,1.44,1.44,0,0,1-.1-.51,1.7,1.7,0,0,0-.51-1.25,3.1,3.1,0,0,0-1.14.62,2.45,2.45,0,0,1-1.06.56.91.91,0,0,1-.61-.06,2.27,2.27,0,0,0-1.07-.13c-.53,0-.63.14-.73.25s-.28.32-.87.32h-.25a2.93,2.93,0,0,0-1.37.16h0c-.23.13-.31.43,0,1l0,.05v.06a1.86,1.86,0,0,1,0,.22c0,.08,0,.16,0,.26,0,.31.07.64.5.64a3.94,3.94,0,0,0,.61-.06,3,3,0,0,1,.65,0c.43,0,.69.28.61,1,0,.41-.5.42-1,.43a2.11,2.11,0,0,0-.68.09c-.08.05-.1.17,0,.44a1,1,0,0,0,.1.17,1,1,0,0,0,.48.45h0a.68.68,0,0,0,.59-.07l.11-.06a3.77,3.77,0,0,1,1.37-.33,3.3,3.3,0,0,1,.78,0h0a.68.68,0,0,1,.56.36h0a.51.51,0,0,1,0,.21c0,.43-.72,1.08-1.75,1.56a7.28,7.28,0,0,1-2.84.67,2.92,2.92,0,0,0-2,.7,1.82,1.82,0,0,0-.43.59,1.36,1.36,0,0,0-.13.62,1.15,1.15,0,0,0,.32.77.92.92,0,0,0,.5-.06,2.79,2.79,0,0,0,.84-.4.22.22,0,0,1,.09-.14c.42-.28.72-.52,1-.72.81-.66,1.12-.9,2.92-.65a5.87,5.87,0,0,0,3.3-.38,2.57,2.57,0,0,0,1.47-1.92Zm5.38,24.16a1.16,1.16,0,0,1-.92.44,2.21,2.21,0,0,1-.92-.21.93.93,0,0,1-1,.13,1.12,1.12,0,0,1-.45-.44,24.14,24.14,0,0,0-6.26.42c.81.21,1.51.43,2.12.64l.21.08-.08.2c-.46,1.29-1.12,2.85-1.62,4,2.33-.21,12-.06,14.19,0l-1.78-2.51-.08-.12.08-.12,1.56-2.4-5.1-.07Zm-4.2-.53a.44.44,0,0,1-.06-.16.75.75,0,0,1,0-.42,1.51,1.51,0,0,1,.83-.94,2.2,2.2,0,0,0,.89-.71,1.11,1.11,0,0,0,.2-.83,1.39,1.39,0,0,0-.31-.67,1.1,1.1,0,0,0-.86-.24,2.74,2.74,0,0,1-1.57-.27,13.06,13.06,0,0,1-2.52-1.81,3.81,3.81,0,0,1-.85-1,2.31,2.31,0,0,1-.52,0,1.77,1.77,0,0,1,0,.46,1.93,1.93,0,0,0,0,.34s0,0,.11,0c.31.08.68.16.53,1.17s-1.28.88-2.88.82h-.07a1.75,1.75,0,0,0-1.39.44h0a2.27,2.27,0,0,0-.49.93,1,1,0,0,1-.13.27.7.7,0,0,1-.45.26h0a3.7,3.7,0,0,1,0,1.49,1.62,1.62,0,0,1-.15.42,2.11,2.11,0,0,1-.16.3c1.43.22,2.69.47,3.79.73,1.35-.62,4-.7,6-.68Zm-4.45-7.41a3.45,3.45,0,0,1,.11-2.31,7.05,7.05,0,0,0,.18-.73,3.47,3.47,0,0,1-2.64.1,4,4,0,0,0-1.21-.21c-.53,0-.61.25-.68.48h0a.67.67,0,0,0,0,.55.78.78,0,0,1,.1.5.71.71,0,0,0,0,.43,4.32,4.32,0,0,0,.44.82,3.72,3.72,0,0,0,.73.84c.28.24.43.38.38.76a.73.73,0,0,1-.47.67,2.85,2.85,0,0,1-1.15.09h-.07c-.69,0-2.2-.14-2.73.28-.22.17-.23.48.18,1,.11.12.08.27,0,.45a1.53,1.53,0,0,0-.07.36c0,.16.14.29.64.27H112l.06,0a2,2,0,0,0,.58.3.7.7,0,0,0,.31,0,.27.27,0,0,0,.18-.1.81.81,0,0,0,.06-.13,2.44,2.44,0,0,1,.6-1.11h0a2.15,2.15,0,0,1,1.7-.57h.08c1.37,0,2.35.1,2.43-.46s-.07-.65-.2-.68-.39-.09-.43-.4a2,2,0,0,1,0-.42c0-.21,0-.41-.13-.54l-.16-.06h0l-.16-.08h0c-.07,0,.11-.44.16-.4h0a1.64,1.64,0,0,1,.22.08h0l.14.08a1.93,1.93,0,0,0,.66.06Zm.34-3.53a2,2,0,0,0,0-.42c-.1-.36-.37-.36-.76-.35a2.68,2.68,0,0,1-2.45-1h-.53a3.89,3.89,0,0,1-.77.34c-.48.17-1,.34-1,.75a1.35,1.35,0,0,1-.21.82.67.67,0,0,1-.45.3h-.21a12.34,12.34,0,0,1-1.52,4.24,1.28,1.28,0,0,0,.14.21,2.22,2.22,0,0,0,.31.28,6,6,0,0,1,2.93-.31H114a2.51,2.51,0,0,0,1-.06c.13-.05.18-.16.2-.33s-.07-.23-.23-.38a3.77,3.77,0,0,1-.81-.94,5,5,0,0,1-.49-.89,1.22,1.22,0,0,1,0-.65.35.35,0,0,0-.06-.24,1,1,0,0,1-.06-.86v0h0c.12-.37.25-.77,1.09-.77a4.62,4.62,0,0,1,1.33.22,3.15,3.15,0,0,0,2.57-.17Zm-5.86,8.65h0a2.34,2.34,0,0,1-.65-.33,1.29,1.29,0,0,1-.74-.16,1,1,0,0,1,.2.64c0,1-.4,1.27-.95,1.27a4,4,0,0,1-.79-.12,3.7,3.7,0,0,0-.54-.11,2,2,0,0,0-.89.17l-.33.13-.33.19c1.38.1,2.65.23,3.81.38l.92.12.15-.2a2.12,2.12,0,0,0,.11-.21,1.38,1.38,0,0,0,.12-.34,3.47,3.47,0,0,0,0-1.42ZM111,40a.79.79,0,0,1-.1-.34,1.79,1.79,0,0,1,.08-.49c.09-.32-.64-.85-.28-1.45a1.87,1.87,0,0,1-.32-.3l-.07-.08c-.23.36-.48.71-.74,1a1.73,1.73,0,0,0,1,1.33A4.61,4.61,0,0,1,111,40Zm-4.31,2.29.29-.16a7.57,7.57,0,0,1,1.07-.51,2.53,2.53,0,0,1,1.1-.19,5.41,5.41,0,0,1,.58.12,3.91,3.91,0,0,0,.69.11c.3,0,.51-.17.51-.84,0-.38-.27-.55-.59-.74a2.1,2.1,0,0,1-1.12-1.29,4.12,4.12,0,0,1-.28.31A11.17,11.17,0,0,1,104,42.13c.93,0,1.83.07,2.68.12Zm-24,2.53c.63,1.71,1.36,3.39,2.12,5h0c1-.31,5.66-1.6,16.06-1.6s15.11,1.29,16.06,1.6h0c.75-1.66,1.48-3.33,2.12-5C113.83,43,108,42.62,102.53,42.53h-.17c-1.79,0-3.58,0-5.36.06h-.18a50.63,50.63,0,0,0-14.15,2.18ZM97.19,19.22a10.77,10.77,0,0,1,3.73-.67,10.56,10.56,0,0,1,4,.8l.24,0v-.78a17.33,17.33,0,0,0-4.36-.77,15.69,15.69,0,0,0-3.68.58l-.54.19v.76l.56-.15Zm-2.4-6.48a4.1,4.1,0,0,0,.78,2,8.5,8.5,0,0,0,1.77,1.92,17.28,17.28,0,0,1,2.13-.44l.12,0c-.1-.75-.24-1.94-.37-3.13a2.76,2.76,0,0,0-2.74-1.84,1.91,1.91,0,0,0-1.27.41,1.37,1.37,0,0,0-.42,1.08Zm12.56,0a4.59,4.59,0,0,1-.82,2.28,8.58,8.58,0,0,1-1.63,1.84,9.27,9.27,0,0,1,1.1.44,1.06,1.06,0,0,1,.14-1.3,1,1,0,0,1,.74-.3H107s0-.11,0-.17a1.1,1.1,0,0,1,.32-.78h0a1,1,0,0,1,.6-.3,1.34,1.34,0,0,1-.16-.63,1.28,1.28,0,0,1,.38-.91h0l.2-.17-.16-.13h0a1.43,1.43,0,0,1-.42-1,1.4,1.4,0,0,1,.14-.61,1.42,1.42,0,0,1-1-.41h0a1.43,1.43,0,0,1-.32-.49h0a1.37,1.37,0,0,1-1,.39,1.39,1.39,0,0,1-1-.39l0,0a1.46,1.46,0,0,1-.21.28h0a1.21,1.21,0,0,1-.83.35,1.17,1.17,0,0,1-.82-.35h0l0,0c0,.5-.12,1.12-.19,1.79a3.07,3.07,0,0,1,2.69-1.28,2.3,2.3,0,0,1,1.55.53,1.77,1.77,0,0,1,.57,1.4Zm-10.51,4.1A8.58,8.58,0,0,1,95.21,15a4.51,4.51,0,0,1-.85-2.26,1.8,1.8,0,0,1,.56-1.4,2.34,2.34,0,0,1,1.56-.53A3.1,3.1,0,0,1,99.1,12c-.07-.63-.13-1.22-.18-1.69l0,0h0a1.15,1.15,0,0,1-1.65,0h0a.94.94,0,0,1-.21-.28l0,0h0a1.35,1.35,0,0,1-1,.39,1.39,1.39,0,0,1-1-.39h0a1.43,1.43,0,0,1-.32.49h0a1.39,1.39,0,0,1-1,.41,1.55,1.55,0,0,1,.13.61,1.46,1.46,0,0,1-.41,1h0a1.09,1.09,0,0,1-.17.13,1.12,1.12,0,0,1,.2.17h0a1.24,1.24,0,0,1,.38.91,1.34,1.34,0,0,1-.16.63,1,1,0,0,1,.6.3h0a1.1,1.1,0,0,1,.32.78.91.91,0,0,1,0,.17h.11a1,1,0,0,1,1,1,1,1,0,0,1-.13.49l.15-.06s.4-.15,1-.33Zm4.78-.66c.27-2.27.54-4.55.78-6.83l-.58-.14-.17,0V8.39H100v.78l-.16,0-.58.14.77,6.8a8.79,8.79,0,0,1,1.6,0Zm4.55-1.39a4.14,4.14,0,0,0,.75-2,1.41,1.41,0,0,0-.42-1.08,1.93,1.93,0,0,0-1.27-.41,2.82,2.82,0,0,0-2.83,2.05c-.12,1.11-.25,2.2-.35,2.91h0a13.11,13.11,0,0,1,2.36.5,8.6,8.6,0,0,0,1.75-1.92ZM97.39,9.21a1.75,1.75,0,0,1-.06.33.73.73,0,0,0,.21.49.76.76,0,0,0,.52.21.72.72,0,0,0,.52-.21.71.71,0,0,0,.22-.52A.69.69,0,0,0,98.58,9h0a.69.69,0,0,0-.52-.22.73.73,0,0,0-.52.22h0a.66.66,0,0,0-.15.22Zm-.49.25A.92.92,0,0,1,97,9.13h0a.92.92,0,0,0-.27-.66h0a.93.93,0,0,0-1.58.66v0a1.59,1.59,0,0,1,.06.3.81.81,0,0,0,.21.33.93.93,0,0,0,1.31,0h0a1,1,0,0,0,.21-.32Zm-2.51,6.8,0,0-.06.06a.59.59,0,0,0-.12.37.6.6,0,0,0,.17.43h0a.62.62,0,0,0,.87,0,.63.63,0,0,0,0-.86.63.63,0,0,0-.44-.18.64.64,0,0,0-.37.13Zm-.42-.2L94,16l.06-.05a.68.68,0,0,0,.14-.42.67.67,0,0,0-.19-.47.7.7,0,0,0-.48-.2.66.66,0,0,0-.25.05l-.15.08-.08.07a.69.69,0,0,0,0,1,.7.7,0,0,0,.48.2.64.64,0,0,0,.41-.15Zm-1-1.45.15-.08.12-.1a.87.87,0,0,0,0-1.22h0a.88.88,0,0,0-.41-.23,1.15,1.15,0,0,1-.33,0h-.17a.83.83,0,0,0-.31.2h0a.87.87,0,0,0,0,1.22.83.83,0,0,0,.61.25.77.77,0,0,0,.34-.07Zm-.67-2a1.15,1.15,0,0,1,.33,0h.18a1,1,0,0,0,.39-.24h0a1,1,0,0,0,0-1.4h0l-.06-.05-.24-.15a.9.9,0,0,0-.4-.09,1,1,0,0,0-.7.29h0a1,1,0,0,0,0,1.4h0a1,1,0,0,0,.5.27Zm.83-2.24a1.2,1.2,0,0,1,.24.15,1.06,1.06,0,0,0,.4.08,1,1,0,0,0,.7-.29h0a1,1,0,0,0,.29-.7v0a1.55,1.55,0,0,1-.06-.31,1.05,1.05,0,0,0-.23-.36h0a1,1,0,0,0-1.69.7,1,1,0,0,0,.29.7h0l.06.06Zm11.21-.79a.92.92,0,0,1-.06-.33A.69.69,0,0,0,104.1,9h0a.69.69,0,0,0-.52-.22.71.71,0,0,0-.52.22h0a.72.72,0,0,0-.21.52.76.76,0,0,0,.21.52h0a.75.75,0,0,0,1,0h0a.74.74,0,0,0,.22-.49Zm.37-.41a1.75,1.75,0,0,1,.06.33.85.85,0,0,0,.21.32.9.9,0,0,0,.65.27.92.92,0,0,0,.66-.27.93.93,0,0,0,.21-.33,1.59,1.59,0,0,1,.06-.3v0a1,1,0,0,0-.27-.66.92.92,0,0,0-.66-.27.9.9,0,0,0-.65.27.92.92,0,0,0-.27.66Zm2.67,7.24-.06-.06h0l0,0a.59.59,0,0,0-.37-.13.61.61,0,1,0,.61.61.59.59,0,0,0-.13-.37Zm.19-.42.07.05,0,.06a.69.69,0,0,0,.42.15.67.67,0,0,0,.47-.2h0a.66.66,0,0,0,0-1h0a.27.27,0,0,0-.08-.07l-.14-.08a.74.74,0,0,0-.25-.05.68.68,0,0,0-.48.2h0a.67.67,0,0,0-.2.47.75.75,0,0,0,.14.42Zm1-1.42.14.08a.81.81,0,0,0,.35.07.86.86,0,0,0,.61-.25h0a.87.87,0,0,0,.25-.61.89.89,0,0,0-.25-.61,1,1,0,0,0-.31-.2h-.18a1.24,1.24,0,0,1-.33,0,.9.9,0,0,0-.4.23h0a.85.85,0,0,0,0,1.22.4.4,0,0,0,.12.1Zm.3-2H109a1.24,1.24,0,0,1,.33,0,1,1,0,0,0,.49-.27h0a1,1,0,0,0,0-1.4h0a1,1,0,0,0-.7-.29.9.9,0,0,0-.4.09l-.24.15-.06.05h0a1,1,0,0,0,0,1.4h0a1,1,0,0,0,.39.24Zm-.55-2.06a1.14,1.14,0,0,1,.23-.15l.06-.06h0a1,1,0,0,0,.28-.7,1,1,0,0,0-.28-.7h0a1,1,0,0,0-.7-.29,1,1,0,0,0-.7.29h0a1.05,1.05,0,0,0-.23.36,1.06,1.06,0,0,1,0,.31v0a1,1,0,0,0,.28.7h0a1,1,0,0,0,.69.29,1.11,1.11,0,0,0,.41-.08Z" transform="translate(-8.97 -7.77)"/></svg>