<svg width="1515" height="256" viewBox="0 0 1515 256" fill="none" xmlns="http://www.w3.org/2000/svg">
<path d="M66.6369 255.1C50.3036 255.1 36.1869 250.55 24.2869 241.45C12.6202 232.117 5.15358 220.217 1.88691 205.75C1.65358 204.583 1.42025 203.417 1.18691 202.25C0.953581 200.85 0.720248 199.45 0.486914 198.05C0.486914 196.417 0.486914 194.9 0.486914 193.5V193.15C0.486914 191.517 0.486914 190.583 0.486914 190.35C0.486914 189.883 0.486914 189.067 0.486914 187.9C0.486914 186.5 0.486914 183.817 0.486914 179.85V162C0.486914 158.033 0.486914 155.583 0.486914 154.65C0.486914 153.483 0.486914 152.667 0.486914 152.2C0.486914 151.733 0.486914 150.8 0.486914 149.4V149.05C0.486914 147.417 0.486914 146.483 0.486914 146.25C0.486914 145.783 0.486914 144.967 0.486914 143.8C0.486914 142.4 0.486914 139.833 0.486914 136.1V65.4C0.486914 52.8 3.40358 41.6 9.23691 31.8C15.0702 22 22.8869 14.3 32.6869 8.7C42.7202 3.09998 54.0369 0.299978 66.6369 0.299978H139.437C150.17 0.299978 159.737 2.74998 168.137 7.64999C176.537 12.55 183.187 19.2 188.087 27.6C193.22 36 195.787 45.3333 195.787 55.6H138.387C138.387 38.8 130.454 30.4 114.587 30.4H94.9869C79.1203 30.4 71.1869 38.2167 71.1869 53.85V80.8C71.1869 93.1667 76.5536 99.35 87.2869 99.35C91.0203 99.35 94.4036 98.0667 97.4369 95.5C100.704 92.9333 102.687 86.9833 103.387 77.65H105.837C106.537 86.9833 108.52 92.9333 111.787 95.5C115.054 98.0667 118.554 99.35 122.287 99.35C133.02 99.35 138.387 92.2333 138.387 78H195.787V136.1C195.787 139.833 195.787 142.4 195.787 143.8C195.787 144.967 195.787 145.783 195.787 146.25C195.787 146.483 195.787 147.417 195.787 149.05V149.4C195.787 150.8 195.787 151.733 195.787 152.2C195.787 152.667 195.787 153.483 195.787 154.65C195.787 155.583 195.787 158.033 195.787 162V179.85C195.787 183.583 195.787 186.15 195.787 187.55C195.787 188.717 195.787 189.533 195.787 190C195.787 190.233 195.787 191.167 195.787 192.8V193.15C195.787 194.55 195.67 196.067 195.437 197.7C195.437 199.333 195.32 200.85 195.087 202.25C194.854 203.417 194.62 204.583 194.387 205.75C191.12 220.217 183.537 232.117 171.637 241.45C159.97 250.55 145.97 255.1 129.637 255.1H66.6369ZM282.311 255.1C265.977 255.1 251.861 250.55 239.961 241.45C228.294 232.117 220.827 220.217 217.561 205.75C217.327 204.583 217.094 203.3 216.861 201.9C216.627 200.267 216.394 198.75 216.161 197.35C216.161 195.717 216.161 194.433 216.161 193.5V193.15C216.161 191.517 216.161 190.583 216.161 190.35C216.161 189.883 216.161 189.067 216.161 187.9C216.161 186.5 216.161 183.817 216.161 179.85V162C216.161 158.033 216.161 155.583 216.161 154.65C216.161 153.483 216.161 152.667 216.161 152.2C216.161 151.733 216.161 150.8 216.161 149.4V149.05C216.161 147.417 216.161 146.483 216.161 146.25C216.161 145.783 216.161 144.967 216.161 143.8C216.161 142.4 216.161 139.833 216.161 136.1V65.4C216.161 53.0333 218.961 41.95 224.561 32.15C230.394 22.35 238.327 14.65 248.361 9.04999C258.394 3.21665 269.711 0.299978 282.311 0.299978H351.611C364.444 0.299978 375.761 3.09998 385.561 8.7C395.594 14.3 403.411 22 409.011 31.8C414.844 41.6 417.761 52.8 417.761 65.4V136.1C417.761 139.833 417.761 142.4 417.761 143.8C417.761 144.967 417.761 145.783 417.761 146.25C417.761 146.483 417.761 147.417 417.761 149.05V149.4C417.761 150.8 417.761 151.733 417.761 152.2C417.761 152.667 417.761 153.483 417.761 154.65C417.761 155.583 417.761 158.033 417.761 162V179.85C417.761 183.583 417.761 186.15 417.761 187.55C417.761 188.717 417.761 189.533 417.761 190C417.761 190.233 417.761 191.167 417.761 192.8V193.15C417.761 194.55 417.644 196.067 417.411 197.7C417.411 199.333 417.294 200.85 417.061 202.25C416.827 203.417 416.594 204.583 416.361 205.75C413.094 220.217 405.511 232.117 393.611 241.45C381.944 250.55 367.944 255.1 351.611 255.1H282.311ZM300.511 99.35C303.544 99.35 306.577 98.0667 309.611 95.5C312.877 92.7 314.861 86.75 315.561 77.65H318.361C319.061 86.75 320.927 92.7 323.961 95.5C327.227 98.0667 330.377 99.35 333.411 99.35C338.077 99.35 341.461 97.7167 343.561 94.45C345.894 91.1833 347.061 86.6333 347.061 80.8V53.85C347.061 46.85 345.427 41.25 342.161 37.05C338.894 32.6167 332.827 30.4 323.961 30.4H309.961C301.327 30.4 295.261 32.6167 291.761 37.05C288.494 41.25 286.861 46.85 286.861 53.85V80.8C286.861 86.6333 287.911 91.1833 290.011 94.45C292.344 97.7167 295.844 99.35 300.511 99.35ZM437.987 253V205.75C437.987 201.783 437.987 199.333 437.987 198.4C437.987 197.233 437.987 196.417 437.987 195.95C437.987 195.483 437.987 194.55 437.987 193.15V192.8C437.987 191.167 437.987 190.233 437.987 190C437.987 189.533 437.987 188.717 437.987 187.55C437.987 186.15 437.987 183.583 437.987 179.85V162C437.987 158.033 437.987 155.583 437.987 154.65C437.987 153.483 437.987 152.667 437.987 152.2C437.987 151.733 437.987 150.8 437.987 149.4V149.05C437.987 147.417 437.987 146.483 437.987 146.25C437.987 145.783 437.987 144.967 437.987 143.8C437.987 142.4 437.987 139.833 437.987 136.1V101.1C448.72 101.1 455.487 99.1167 458.287 95.15C461.087 91.1833 462.487 85.4667 462.487 78V54.55C462.487 47.55 460.737 41.8333 457.237 37.4C453.737 32.7333 447.32 30.4 437.987 30.4V2.39999H519.187L582.537 85V53.85C582.537 46.85 580.787 41.25 577.287 37.05C574.02 32.6167 567.954 30.4 559.087 30.4V2.39999H661.287V30.4C652.654 30.4 646.587 32.85 643.087 37.75C639.587 42.65 637.837 48.6 637.837 55.6V78C637.837 85 639.587 90.6 643.087 94.8C646.587 99 652.654 101.1 661.287 101.1V253H559.787V205.75C559.787 201.783 559.787 199.333 559.787 198.4C559.787 197.233 559.787 196.417 559.787 195.95C559.787 195.483 559.787 194.55 559.787 193.15V192.8C559.787 191.167 559.787 190.233 559.787 190C559.787 189.533 559.787 188.717 559.787 187.55C559.787 186.15 559.787 183.583 559.787 179.85V162C559.787 158.033 559.787 155.583 559.787 154.65C559.787 153.483 559.787 152.667 559.787 152.2C559.787 151.733 559.787 150.8 559.787 149.4V149.05C559.787 147.417 559.787 146.483 559.787 146.25C559.787 145.783 559.787 144.967 559.787 143.8C559.787 142.4 559.787 139.833 559.787 136.1V99.35L516.037 42.65V77.65C516.037 92.1167 524.204 99.35 540.537 99.35V253H437.987ZM687.288 253V205.75C687.288 201.783 687.288 199.333 687.288 198.4C687.288 197.233 687.288 196.417 687.288 195.95C687.288 195.483 687.288 194.55 687.288 193.15V192.8C687.288 191.167 687.288 190.233 687.288 190C687.288 189.533 687.288 188.717 687.288 187.55C687.288 186.15 687.288 183.583 687.288 179.85V162C687.288 158.033 687.288 155.583 687.288 154.65C687.288 153.483 687.288 152.667 687.288 152.2C687.288 151.733 687.288 150.8 687.288 149.4V149.05C687.288 147.417 687.288 146.483 687.288 146.25C687.288 145.783 687.288 144.967 687.288 143.8C687.288 142.4 687.288 139.833 687.288 136.1V101.1H717.038C725.905 101.1 731.971 99.35 735.238 95.85C738.738 92.1167 740.488 86.75 740.488 79.75V30.4H731.738C723.105 30.4 717.038 32.85 713.538 37.75C710.038 42.65 708.288 48.6 708.288 55.6V74.15H676.788V2.39999H859.488V74.15H827.988V55.95C827.988 48.95 826.238 43 822.738 38.1C819.471 32.9667 813.405 30.4 804.538 30.4H795.788V78C795.788 85 797.538 90.6 801.038 94.8C804.538 99 810.605 101.1 819.238 101.1H848.988V136.1C848.988 139.833 848.988 142.4 848.988 143.8C848.988 144.967 848.988 145.783 848.988 146.25C848.988 146.483 848.988 147.417 848.988 149.05V149.4C848.988 150.8 848.988 151.733 848.988 152.2C848.988 152.667 848.988 153.483 848.988 154.65C848.988 155.583 848.988 158.033 848.988 162V179.85C848.988 183.583 848.988 186.15 848.988 187.55C848.988 188.717 848.988 189.533 848.988 190C848.988 190.233 848.988 191.167 848.988 192.8V193.15C848.988 194.55 848.988 195.483 848.988 195.95C848.988 196.417 848.988 197.233 848.988 198.4C848.988 199.333 848.988 201.783 848.988 205.75V253H687.288ZM874.803 253V205.75C874.803 201.783 874.803 199.333 874.803 198.4C874.803 197.233 874.803 196.417 874.803 195.95C874.803 195.483 874.803 194.55 874.803 193.15V192.8C874.803 191.167 874.803 190.233 874.803 190C874.803 189.533 874.803 188.717 874.803 187.55C874.803 186.15 874.803 183.583 874.803 179.85V162C874.803 158.033 874.803 155.583 874.803 154.65C874.803 153.483 874.803 152.667 874.803 152.2C874.803 151.733 874.803 150.8 874.803 149.4V149.05C874.803 147.417 874.803 146.483 874.803 146.25C874.803 145.783 874.803 144.967 874.803 143.8C874.803 142.4 874.803 139.833 874.803 136.1V101.1C880.403 101.1 885.07 100.517 888.803 99.35C892.77 97.95 896.503 95.2667 900.003 91.3C903.503 87.1 907.703 81.0333 912.603 73.1L954.953 2.39999H1022.85L1062.05 72.05C1066.49 79.75 1070.1 85.7 1072.9 89.9C1075.94 94.1 1079.32 97.0167 1083.05 98.65C1087.02 100.283 1092.5 101.1 1099.5 101.1V253H985.053V205.75C985.053 201.783 985.053 199.333 985.053 198.4C985.053 197.233 985.053 196.417 985.053 195.95C985.053 195.483 985.053 194.55 985.053 193.15V192.8C985.053 191.167 985.053 190.233 985.053 190C985.053 189.533 985.053 188.717 985.053 187.55C985.053 186.15 985.053 183.583 985.053 179.85V162C985.053 158.033 985.053 155.583 985.053 154.65C985.053 153.483 985.053 152.667 985.053 152.2C985.053 151.733 985.053 150.8 985.053 149.4V149.05C985.053 147.417 985.053 146.483 985.053 146.25C985.053 145.783 985.053 144.967 985.053 143.8C985.053 142.4 985.053 139.833 985.053 136.1V99.35H990.653C994.387 99.35 997.303 98.3 999.403 96.2C1001.5 93.8667 1002.55 90.95 1002.55 87.45C1002.55 84.1833 1001.5 81.5 999.403 79.4C997.303 77.3 994.387 76.25 990.653 76.25H955.653C951.453 76.25 948.42 77.5333 946.553 80.1C944.687 82.4333 943.753 85 943.753 87.8C943.753 91.5333 944.92 94.45 947.253 96.55C949.82 98.4167 952.62 99.35 955.653 99.35H964.753V253H874.803ZM955.653 55.6H989.603L972.803 26.55L955.653 55.6ZM1125.47 253V205.75C1125.47 201.783 1125.47 199.333 1125.47 198.4C1125.47 197.233 1125.47 196.417 1125.47 195.95C1125.47 195.483 1125.47 194.55 1125.47 193.15V192.8C1125.47 191.167 1125.47 190.233 1125.47 190C1125.47 189.533 1125.47 188.717 1125.47 187.55C1125.47 186.15 1125.47 183.583 1125.47 179.85V162C1125.47 158.033 1125.47 155.583 1125.47 154.65C1125.47 153.483 1125.47 152.667 1125.47 152.2C1125.47 151.733 1125.47 150.8 1125.47 149.4V149.05C1125.47 147.417 1125.47 146.483 1125.47 146.25C1125.47 145.783 1125.47 144.967 1125.47 143.8C1125.47 142.4 1125.47 139.833 1125.47 136.1V101.1H1155.22C1164.09 101.1 1170.16 99.35 1173.42 95.85C1176.92 92.1167 1178.67 86.75 1178.67 79.75V30.4H1169.92C1161.29 30.4 1155.22 32.85 1151.72 37.75C1148.22 42.65 1146.47 48.6 1146.47 55.6V74.15H1114.97V2.39999H1297.67V74.15H1266.17V55.95C1266.17 48.95 1264.42 43 1260.92 38.1C1257.66 32.9667 1251.59 30.4 1242.72 30.4H1233.97V78C1233.97 85 1235.72 90.6 1239.22 94.8C1242.72 99 1248.79 101.1 1257.42 101.1H1287.17V136.1C1287.17 139.833 1287.17 142.4 1287.17 143.8C1287.17 144.967 1287.17 145.783 1287.17 146.25C1287.17 146.483 1287.17 147.417 1287.17 149.05V149.4C1287.17 150.8 1287.17 151.733 1287.17 152.2C1287.17 152.667 1287.17 153.483 1287.17 154.65C1287.17 155.583 1287.17 158.033 1287.17 162V179.85C1287.17 183.583 1287.17 186.15 1287.17 187.55C1287.17 188.717 1287.17 189.533 1287.17 190C1287.17 190.233 1287.17 191.167 1287.17 192.8V193.15C1287.17 194.55 1287.17 195.483 1287.17 195.95C1287.17 196.417 1287.17 197.233 1287.17 198.4C1287.17 199.333 1287.17 201.783 1287.17 205.75V253H1125.47ZM1379.14 255.1C1362.8 255.1 1348.69 250.55 1336.79 241.45C1325.12 232.117 1317.65 220.217 1314.39 205.75C1314.15 204.583 1313.92 203.3 1313.69 201.9C1313.45 200.267 1313.22 198.75 1312.99 197.35C1312.99 195.717 1312.99 194.433 1312.99 193.5V193.15C1312.99 191.517 1312.99 190.583 1312.99 190.35C1312.99 189.883 1312.99 189.067 1312.99 187.9C1312.99 186.5 1312.99 183.817 1312.99 179.85V162C1312.99 158.033 1312.99 155.583 1312.99 154.65C1312.99 153.483 1312.99 152.667 1312.99 152.2C1312.99 151.733 1312.99 150.8 1312.99 149.4V149.05C1312.99 147.417 1312.99 146.483 1312.99 146.25C1312.99 145.783 1312.99 144.967 1312.99 143.8C1312.99 142.4 1312.99 139.833 1312.99 136.1V65.4C1312.99 53.0333 1315.79 41.95 1321.39 32.15C1327.22 22.35 1335.15 14.65 1345.19 9.04999C1355.22 3.21665 1366.54 0.299978 1379.14 0.299978H1448.44C1461.27 0.299978 1472.59 3.09998 1482.39 8.7C1492.42 14.3 1500.24 22 1505.84 31.8C1511.67 41.6 1514.59 52.8 1514.59 65.4V136.1C1514.59 139.833 1514.59 142.4 1514.59 143.8C1514.59 144.967 1514.59 145.783 1514.59 146.25C1514.59 146.483 1514.59 147.417 1514.59 149.05V149.4C1514.59 150.8 1514.59 151.733 1514.59 152.2C1514.59 152.667 1514.59 153.483 1514.59 154.65C1514.59 155.583 1514.59 158.033 1514.59 162V179.85C1514.59 183.583 1514.59 186.15 1514.59 187.55C1514.59 188.717 1514.59 189.533 1514.59 190C1514.59 190.233 1514.59 191.167 1514.59 192.8V193.15C1514.59 194.55 1514.47 196.067 1514.24 197.7C1514.24 199.333 1514.12 200.85 1513.89 202.25C1513.65 203.417 1513.42 204.583 1513.19 205.75C1509.92 220.217 1502.34 232.117 1490.44 241.45C1478.77 250.55 1464.77 255.1 1448.44 255.1H1379.14ZM1397.34 99.35C1400.37 99.35 1403.4 98.0667 1406.44 95.5C1409.7 92.7 1411.69 86.75 1412.39 77.65H1415.19C1415.89 86.75 1417.75 92.7 1420.79 95.5C1424.05 98.0667 1427.2 99.35 1430.24 99.35C1434.9 99.35 1438.29 97.7167 1440.39 94.45C1442.72 91.1833 1443.89 86.6333 1443.89 80.8V53.85C1443.89 46.85 1442.25 41.25 1438.99 37.05C1435.72 32.6167 1429.65 30.4 1420.79 30.4H1406.79C1398.15 30.4 1392.09 32.6167 1388.59 37.05C1385.32 41.25 1383.69 46.85 1383.69 53.85V80.8C1383.69 86.6333 1384.74 91.1833 1386.84 94.45C1389.17 97.7167 1392.67 99.35 1397.34 99.35Z" fill="#344696"/>
</svg>
