<svg width="1105" height="241" viewBox="0 0 1105 241" fill="none" xmlns="http://www.w3.org/2000/svg">
<path d="M0.0221488 239V194.45C0.0221488 190.71 0.0221488 188.4 0.0221488 187.52C0.0221488 186.42 0.0221488 185.65 0.0221488 185.21C0.0221488 184.77 0.0221488 183.89 0.0221488 182.57V182.24C0.0221488 180.7 0.0221488 179.82 0.0221488 179.6C0.0221488 179.16 0.0221488 178.39 0.0221488 177.29C0.0221488 175.97 0.0221488 173.55 0.0221488 170.03V153.2C0.0221488 149.46 0.0221488 147.15 0.0221488 146.27C0.0221488 145.17 0.0221488 144.4 0.0221488 143.96C0.0221488 143.52 0.0221488 142.64 0.0221488 141.32V140.99C0.0221488 139.45 0.0221488 138.57 0.0221488 138.35C0.0221488 137.91 0.0221488 137.14 0.0221488 136.04C0.0221488 134.72 0.0221488 132.3 0.0221488 128.78V95.78C8.38215 95.78 14.1021 94.13 17.1821 90.83C20.4821 87.31 22.1321 82.25 22.1321 75.65V52.22C22.1321 45.62 20.4821 40.34 17.1821 36.38C14.1021 32.2 8.38215 30.11 0.0221488 30.11V2.71999H75.2621L117.172 46.28L159.082 2.71999H234.322V30.11C226.182 30.11 220.462 32.2 217.162 36.38C213.862 40.34 212.212 45.62 212.212 52.22V75.65C212.212 82.25 213.862 87.31 217.162 90.83C220.462 94.13 226.182 95.78 234.322 95.78V239H127.072V194.45C127.072 190.71 127.072 188.4 127.072 187.52C127.072 186.42 127.072 185.65 127.072 185.21C127.072 184.77 127.072 183.89 127.072 182.57V182.24C127.072 180.7 127.072 179.82 127.072 179.6C127.072 179.16 127.072 178.39 127.072 177.29C127.072 175.97 127.072 173.55 127.072 170.03V153.2C127.072 149.46 127.072 147.15 127.072 146.27C127.072 145.17 127.072 144.4 127.072 143.96C127.072 143.52 127.072 142.64 127.072 141.32V140.99C127.072 139.45 127.072 138.57 127.072 138.35C127.072 137.91 127.072 137.14 127.072 136.04C127.072 134.72 127.072 132.3 127.072 128.78V94.13H137.962C146.322 94.13 152.042 92.37 155.122 88.85C158.422 85.33 160.072 80.27 160.072 73.67V40.01L117.172 83.24L74.2722 40.01V73.67C74.2722 80.27 75.9222 85.33 79.2222 88.85C82.5222 92.37 88.2422 94.13 96.3822 94.13H107.272V239H0.0221488ZM316.683 240.98C301.283 240.98 287.973 236.69 276.753 228.11C265.753 219.31 258.713 208.09 255.633 194.45C255.413 193.35 255.193 192.14 254.973 190.82C254.753 189.5 254.533 188.18 254.313 186.86C254.313 185.32 254.313 183.89 254.313 182.57V182.24C254.313 180.7 254.313 179.82 254.313 179.6C254.313 179.16 254.313 178.39 254.313 177.29C254.313 175.97 254.313 173.55 254.313 170.03V153.2C254.313 149.46 254.313 147.15 254.313 146.27C254.313 145.17 254.313 144.4 254.313 143.96C254.313 143.52 254.313 142.64 254.313 141.32V140.99C254.313 139.45 254.313 138.57 254.313 138.35C254.313 137.91 254.313 137.14 254.313 136.04C254.313 134.72 254.313 132.3 254.313 128.78V95.78C269.053 95.78 276.423 88.52 276.423 74V52.88C276.423 37.04 269.053 29.12 254.313 29.12V2.71999H349.023V30.77C335.383 30.77 328.563 38.14 328.563 52.88V76.64C328.563 81.92 329.773 86.21 332.193 89.51C334.613 92.59 337.913 94.13 342.093 94.13C345.613 94.13 348.803 92.92 351.663 90.5C354.743 88.08 356.613 82.47 357.273 73.67H359.583C360.243 82.47 362.113 88.08 365.193 90.5C368.273 92.92 371.573 94.13 375.093 94.13C379.273 94.13 382.573 92.59 384.993 89.51C387.413 86.21 388.623 81.92 388.623 76.64V52.88C388.623 38.14 381.803 30.77 368.163 30.77V2.71999H459.573V29.12C444.833 29.12 437.463 37.04 437.463 52.88V74C437.463 88.52 444.833 95.78 459.573 95.78V128.78C459.573 132.3 459.573 134.72 459.573 136.04C459.573 137.14 459.573 137.91 459.573 138.35C459.573 138.57 459.573 139.45 459.573 140.99V141.32C459.573 142.64 459.573 143.52 459.573 143.96C459.573 144.4 459.573 145.17 459.573 146.27C459.573 147.15 459.573 149.46 459.573 153.2V239H431.853L425.583 201.05C424.483 194.01 422.393 189.06 419.313 186.2C416.453 183.12 412.053 181.58 406.113 181.58V192.47C406.113 209.41 401.933 221.73 393.573 229.43C385.433 237.13 372.123 240.98 353.643 240.98H316.683ZM478.587 239V194.45C478.587 190.71 478.587 188.4 478.587 187.52C478.587 186.42 478.587 185.65 478.587 185.21C478.587 184.77 478.587 183.89 478.587 182.57V182.24C478.587 180.7 478.587 179.82 478.587 179.6C478.587 179.16 478.587 178.39 478.587 177.29C478.587 175.97 478.587 173.55 478.587 170.03V153.2C478.587 149.46 478.587 147.15 478.587 146.27C478.587 145.17 478.587 144.4 478.587 143.96C478.587 143.52 478.587 142.64 478.587 141.32V140.99C478.587 139.45 478.587 138.57 478.587 138.35C478.587 137.91 478.587 137.14 478.587 136.04C478.587 134.72 478.587 132.3 478.587 128.78V95.78C488.707 95.78 495.087 93.91 497.727 90.17C500.367 86.43 501.687 81.04 501.687 74V51.89C501.687 45.29 500.037 39.9 496.737 35.72C493.437 31.32 487.387 29.12 478.587 29.12V2.71999H555.147L614.877 80.6V51.23C614.877 44.63 613.227 39.35 609.927 35.39C606.847 31.21 601.127 29.12 592.767 29.12V2.71999H689.127V29.12C680.987 29.12 675.267 31.43 671.967 36.05C668.667 40.67 667.017 46.28 667.017 52.88V74C667.017 80.6 668.667 85.88 671.967 89.84C675.267 93.8 680.987 95.78 689.127 95.78V239H593.427V194.45C593.427 190.71 593.427 188.4 593.427 187.52C593.427 186.42 593.427 185.65 593.427 185.21C593.427 184.77 593.427 183.89 593.427 182.57V182.24C593.427 180.7 593.427 179.82 593.427 179.6C593.427 179.16 593.427 178.39 593.427 177.29C593.427 175.97 593.427 173.55 593.427 170.03V153.2C593.427 149.46 593.427 147.15 593.427 146.27C593.427 145.17 593.427 144.4 593.427 143.96C593.427 143.52 593.427 142.64 593.427 141.32V140.99C593.427 139.45 593.427 138.57 593.427 138.35C593.427 137.91 593.427 137.14 593.427 136.04C593.427 134.72 593.427 132.3 593.427 128.78V94.13L552.177 40.67V73.67C552.177 87.31 559.877 94.13 575.277 94.13V239H478.587ZM708.362 239V194.45C708.362 190.71 708.362 188.4 708.362 187.52C708.362 186.42 708.362 185.65 708.362 185.21C708.362 184.77 708.362 183.89 708.362 182.57V182.24C708.362 180.7 708.362 179.82 708.362 179.6C708.362 179.16 708.362 178.39 708.362 177.29C708.362 175.97 708.362 173.55 708.362 170.03V153.2C708.362 149.46 708.362 147.15 708.362 146.27C708.362 145.17 708.362 144.4 708.362 143.96C708.362 143.52 708.362 142.64 708.362 141.32V140.99C708.362 139.45 708.362 138.57 708.362 138.35C708.362 137.91 708.362 137.14 708.362 136.04C708.362 134.72 708.362 132.3 708.362 128.78V95.78C716.722 95.78 722.442 94.13 725.522 90.83C728.822 87.31 730.472 82.25 730.472 75.65V51.23C730.472 44.63 728.822 39.35 725.522 35.39C722.442 31.21 716.722 29.12 708.362 29.12V2.71999H832.442C844.542 2.71999 855.212 5.35999 864.452 10.64C873.912 15.92 881.282 23.18 886.562 32.42C892.062 41.66 894.812 52.22 894.812 64.1V128.78C894.812 132.3 894.812 134.72 894.812 136.04C894.812 137.14 894.812 137.91 894.812 138.35C894.812 138.57 894.812 139.45 894.812 140.99V141.32C894.812 142.64 894.812 143.52 894.812 143.96C894.812 144.4 894.812 145.17 894.812 146.27C894.812 147.15 894.812 149.46 894.812 153.2V170.03C894.812 173.55 894.812 175.97 894.812 177.29C894.812 178.39 894.812 179.16 894.812 179.6C894.812 179.82 894.812 180.7 894.812 182.24V182.57C894.812 183.89 894.702 185.32 894.482 186.86C894.482 188.4 894.372 189.83 894.152 191.15C893.932 192.25 893.712 193.35 893.492 194.45C890.412 208.09 883.262 218.98 872.042 227.12C861.042 235.04 847.842 239 832.442 239H708.362ZM785.912 94.13H809.012C817.372 94.13 823.202 92.48 826.502 89.18C829.802 85.88 831.452 80.16 831.452 72.02V51.23C831.452 42.87 829.802 37.15 826.502 34.07C823.202 30.77 817.372 29.12 809.012 29.12H785.912V94.13ZM976.337 240.98C960.937 240.98 947.627 236.69 936.407 228.11C925.407 219.31 918.367 208.09 915.287 194.45C915.067 193.35 914.847 192.14 914.627 190.82C914.407 189.28 914.187 187.85 913.967 186.53C913.967 184.99 913.967 183.78 913.967 182.9V182.57C913.967 181.03 913.967 180.15 913.967 179.93C913.967 179.49 913.967 178.72 913.967 177.62C913.967 176.3 913.967 173.77 913.967 170.03V153.2C913.967 149.46 913.967 147.15 913.967 146.27C913.967 145.17 913.967 144.4 913.967 143.96C913.967 143.52 913.967 142.64 913.967 141.32V140.99C913.967 139.45 913.967 138.57 913.967 138.35C913.967 137.91 913.967 137.14 913.967 136.04C913.967 134.72 913.967 132.3 913.967 128.78V62.12C913.967 50.46 916.607 40.01 921.887 30.77C927.387 21.53 934.867 14.27 944.327 8.98999C953.787 3.48998 964.457 0.739979 976.337 0.739979H1041.68C1053.78 0.739979 1064.45 3.37998 1073.69 8.66C1083.15 13.94 1090.52 21.2 1095.8 30.44C1101.3 39.68 1104.05 50.24 1104.05 62.12V128.78C1104.05 132.3 1104.05 134.72 1104.05 136.04C1104.05 137.14 1104.05 137.91 1104.05 138.35C1104.05 138.57 1104.05 139.45 1104.05 140.99V141.32C1104.05 142.64 1104.05 143.52 1104.05 143.96C1104.05 144.4 1104.05 145.17 1104.05 146.27C1104.05 147.15 1104.05 149.46 1104.05 153.2V170.03C1104.05 173.55 1104.05 175.97 1104.05 177.29C1104.05 178.39 1104.05 179.16 1104.05 179.6C1104.05 179.82 1104.05 180.7 1104.05 182.24V182.57C1104.05 183.89 1103.94 185.32 1103.72 186.86C1103.72 188.4 1103.61 189.83 1103.39 191.15C1103.17 192.25 1102.95 193.35 1102.73 194.45C1099.65 208.09 1092.5 219.31 1081.28 228.11C1070.28 236.69 1057.08 240.98 1041.68 240.98H976.337ZM993.497 94.13C996.357 94.13 999.217 92.92 1002.08 90.5C1005.16 87.86 1007.03 82.25 1007.69 73.67H1010.33C1010.99 82.25 1012.75 87.86 1015.61 90.5C1018.69 92.92 1021.66 94.13 1024.52 94.13C1028.92 94.13 1032.11 92.59 1034.09 89.51C1036.29 86.43 1037.39 82.14 1037.39 76.64V51.23C1037.39 44.63 1035.85 39.35 1032.77 35.39C1029.69 31.21 1023.97 29.12 1015.61 29.12H1002.41C994.267 29.12 988.547 31.21 985.247 35.39C982.167 39.35 980.627 44.63 980.627 51.23V76.64C980.627 82.14 981.617 86.43 983.597 89.51C985.797 92.59 989.097 94.13 993.497 94.13Z" fill="#15D8F2"/>
</svg>
