<svg width="1172" height="176" viewBox="0 0 1172 176" fill="none" xmlns="http://www.w3.org/2000/svg">
<path d="M0.342813 174V141.6C0.342813 138.88 0.342813 137.2 0.342813 136.56C0.342813 135.76 0.342813 135.2 0.342813 134.88C0.342813 134.56 0.342813 133.92 0.342813 132.96V132.72C0.342813 131.6 0.342813 130.96 0.342813 130.8C0.342813 130.48 0.342813 129.92 0.342813 129.12C0.342813 128.16 0.342813 126.4 0.342813 123.84V111.6C0.342813 108.88 0.342813 107.2 0.342813 106.56C0.342813 105.76 0.342813 105.2 0.342813 104.88C0.342813 104.56 0.342813 103.92 0.342813 102.96V102.72C0.342813 101.6 0.342813 100.96 0.342813 100.8C0.342813 100.48 0.342813 99.92 0.342813 99.12C0.342813 98.16 0.342813 96.4 0.342813 93.84V69.84C6.42281 69.84 10.5828 68.64 12.8228 66.24C15.2228 63.68 16.4228 60 16.4228 55.2V37.44C16.4228 32.64 15.2228 28.8 12.8228 25.92C10.5828 22.88 6.42281 21.36 0.342813 21.36V2.16H103.783C106.183 2.16 109.063 2.39999 112.423 2.87999C115.943 3.19999 119.383 4.23999 122.743 5.99999C126.263 7.59999 129.143 10.24 131.383 13.92C133.623 17.44 134.743 22.4 134.743 28.8C134.743 35.68 133.063 41.04 129.703 44.88C126.343 48.56 122.503 51.12 118.183 52.56C113.863 54 110.183 54.72 107.143 54.72H56.7428C56.7428 59.2 57.9428 62.88 60.3428 65.76C62.7428 68.48 66.9028 69.84 72.8228 69.84H105.943V174H0.342813ZM56.7428 38.88H81.7028C88.4228 38.88 91.7828 35.92 91.7828 30C91.7828 27.6 90.9828 25.6 89.3828 24C87.7828 22.24 85.3028 21.36 81.9428 21.36H56.7428V38.88ZM266.415 175.44C255.855 175.44 247.775 174.16 242.175 171.6C236.735 169.04 232.975 165.52 230.895 161.04C228.975 156.4 228.015 151.2 228.015 145.44V141.6C228.015 138.88 228.015 137.2 228.015 136.56C228.015 135.76 228.015 135.2 228.015 134.88C228.015 134.56 228.015 133.92 228.015 132.96V132.72C228.015 131.6 228.015 130.96 228.015 130.8C228.015 130.48 228.015 129.92 228.015 129.12C228.015 128.16 228.015 126.4 228.015 123.84V111.6C228.015 108.88 228.015 107.2 228.015 106.56C228.015 105.76 228.015 105.2 228.015 104.88C228.015 104.56 228.015 103.92 228.015 102.96V102.72C228.015 101.6 228.015 100.96 228.015 100.8C228.015 100.48 228.015 99.92 228.015 99.12C228.015 98.16 228.015 96.4 228.015 93.84V69.84C228.015 64.56 226.735 60.32 224.175 57.12C221.775 53.92 217.855 52.32 212.415 52.32H198.015C198.015 57.92 199.215 62.08 201.615 64.8C204.015 67.36 208.255 68.64 214.335 68.64V174H144.015V141.6C144.015 138.88 144.015 137.2 144.015 136.56C144.015 135.76 144.015 135.2 144.015 134.88C144.015 134.56 144.015 133.92 144.015 132.96V132.72C144.015 131.6 144.015 130.96 144.015 130.8C144.015 130.48 144.015 129.92 144.015 129.12C144.015 128.16 144.015 126.4 144.015 123.84V111.6C144.015 108.88 144.015 107.2 144.015 106.56C144.015 105.76 144.015 105.2 144.015 104.88C144.015 104.56 144.015 103.92 144.015 102.96V102.72C144.015 101.6 144.015 100.96 144.015 100.8C144.015 100.48 144.015 99.92 144.015 99.12C144.015 98.16 144.015 96.4 144.015 93.84V69.84C150.095 69.84 154.255 68.64 156.495 66.24C158.895 63.68 160.095 60 160.095 55.2V37.44C160.095 32.64 158.895 28.8 156.495 25.92C154.255 22.88 150.095 21.36 144.015 21.36V2.16H247.455C249.855 2.16 252.735 2.31999 256.095 2.63999C259.615 2.95999 263.055 3.84 266.415 5.28C269.935 6.55999 272.815 8.63999 275.055 11.52C277.295 14.24 278.415 18.16 278.415 23.28C278.415 28.72 276.975 32.88 274.095 35.76C271.375 38.48 267.855 40.4 263.535 41.52C259.375 42.48 255.135 42.96 250.815 42.96H248.895V45.36C256.095 45.36 261.375 46.24 264.735 48C268.095 49.6 270.495 51.6 271.935 54C273.535 56.4 275.055 58.8 276.495 61.2C278.095 63.6 280.415 65.68 283.455 67.44C286.495 69.04 291.375 69.84 298.095 69.84V174C295.695 174.32 291.455 174.64 285.375 174.96C279.455 175.28 273.135 175.44 266.415 175.44ZM198.015 36.96H223.215C226.255 36.96 228.655 36.32 230.415 35.04C232.175 33.6 233.055 31.6 233.055 29.04C233.055 26.8 232.255 24.96 230.655 23.52C229.055 22.08 226.575 21.36 223.215 21.36H198.015V36.96ZM357.187 175.44C345.987 175.44 336.307 172.32 328.147 166.08C320.147 159.68 315.027 151.52 312.787 141.6C312.627 140.8 312.467 139.92 312.307 138.96C312.147 137.84 311.987 136.8 311.827 135.84C311.827 134.72 311.827 133.84 311.827 133.2V132.96C311.827 131.84 311.827 131.2 311.827 131.04C311.827 130.72 311.827 130.16 311.827 129.36C311.827 128.4 311.827 126.56 311.827 123.84V111.6C311.827 108.88 311.827 107.2 311.827 106.56C311.827 105.76 311.827 105.2 311.827 104.88C311.827 104.56 311.827 103.92 311.827 102.96V102.72C311.827 101.6 311.827 100.96 311.827 100.8C311.827 100.48 311.827 99.92 311.827 99.12C311.827 98.16 311.827 96.4 311.827 93.84V45.36C311.827 36.88 313.747 29.28 317.587 22.56C321.587 15.84 327.027 10.56 333.907 6.71999C340.787 2.71999 348.547 0.719985 357.187 0.719985H404.707C413.507 0.719985 421.267 2.63999 427.987 6.48C434.867 10.32 440.227 15.6 444.067 22.32C448.067 29.04 450.067 36.72 450.067 45.36V93.84C450.067 96.4 450.067 98.16 450.067 99.12C450.067 99.92 450.067 100.48 450.067 100.8C450.067 100.96 450.067 101.6 450.067 102.72V102.96C450.067 103.92 450.067 104.56 450.067 104.88C450.067 105.2 450.067 105.76 450.067 106.56C450.067 107.2 450.067 108.88 450.067 111.6V123.84C450.067 126.4 450.067 128.16 450.067 129.12C450.067 129.92 450.067 130.48 450.067 130.8C450.067 130.96 450.067 131.6 450.067 132.72V132.96C450.067 133.92 449.987 134.96 449.827 136.08C449.827 137.2 449.747 138.24 449.587 139.2C449.427 140 449.267 140.8 449.107 141.6C446.867 151.52 441.667 159.68 433.507 166.08C425.507 172.32 415.907 175.44 404.707 175.44H357.187ZM369.667 68.64C371.747 68.64 373.827 67.76 375.907 66C378.147 64.08 379.507 60 379.987 53.76H381.907C382.387 60 383.667 64.08 385.747 66C387.987 67.76 390.147 68.64 392.227 68.64C395.427 68.64 397.747 67.52 399.187 65.28C400.787 63.04 401.587 59.92 401.587 55.92V37.44C401.587 32.64 400.467 28.8 398.227 25.92C395.987 22.88 391.827 21.36 385.747 21.36H376.147C370.227 21.36 366.067 22.88 363.667 25.92C361.427 28.8 360.307 32.64 360.307 37.44V55.92C360.307 59.92 361.027 63.04 362.467 65.28C364.067 67.52 366.467 68.64 369.667 68.64ZM509.777 175.44C498.577 175.44 488.897 172.32 480.737 166.08C472.737 159.68 467.617 151.52 465.377 141.6C465.217 140.8 465.057 140 464.897 139.2C464.737 138.24 464.577 137.28 464.417 136.32C464.417 135.2 464.417 134.16 464.417 133.2V132.96C464.417 131.84 464.417 131.2 464.417 131.04C464.417 130.72 464.417 130.16 464.417 129.36C464.417 128.4 464.417 126.56 464.417 123.84V111.6C464.417 108.88 464.417 107.2 464.417 106.56C464.417 105.76 464.417 105.2 464.417 104.88C464.417 104.56 464.417 103.92 464.417 102.96V102.72C464.417 101.6 464.417 100.96 464.417 100.8C464.417 100.48 464.417 99.92 464.417 99.12C464.417 98.16 464.417 96.4 464.417 93.84V43.44H487.217V54C487.217 58.8 488.417 62.48 490.817 65.04C493.217 67.44 497.377 68.64 503.297 68.64H527.057C533.137 68.64 537.297 67.44 539.537 65.04C541.937 62.48 543.137 58.8 543.137 54V37.44C543.137 32.64 541.937 28.8 539.537 25.92C537.297 22.88 533.137 21.36 527.057 21.36V2.16H597.137V21.36C591.217 21.36 587.057 23.04 584.657 26.4C582.257 29.76 581.057 33.84 581.057 38.64V54C581.057 58.8 582.257 62.64 584.657 65.52C587.057 68.4 591.217 69.84 597.137 69.84V93.84C597.137 96.4 597.137 98.16 597.137 99.12C597.137 99.92 597.137 100.48 597.137 100.8C597.137 100.96 597.137 101.6 597.137 102.72V102.96C597.137 103.92 597.137 104.56 597.137 104.88C597.137 105.2 597.137 105.76 597.137 106.56C597.137 107.2 597.137 108.88 597.137 111.6V123.84C597.137 126.4 597.137 128.16 597.137 129.12C597.137 129.92 597.137 130.48 597.137 130.8C597.137 130.96 597.137 131.6 597.137 132.72V132.96C597.137 133.92 597.057 134.96 596.897 136.08C596.897 137.2 596.817 138.24 596.657 139.2C596.497 140 596.337 140.8 596.177 141.6C593.937 151.52 588.737 159.68 580.577 166.08C572.577 172.32 562.977 175.44 551.777 175.44H509.777ZM613.005 174V141.6C613.005 138.88 613.005 137.2 613.005 136.56C613.005 135.76 613.005 135.2 613.005 134.88C613.005 134.56 613.005 133.92 613.005 132.96V132.72C613.005 131.6 613.005 130.96 613.005 130.8C613.005 130.48 613.005 129.92 613.005 129.12C613.005 128.16 613.005 126.4 613.005 123.84V111.6C613.005 108.88 613.005 107.2 613.005 106.56C613.005 105.76 613.005 105.2 613.005 104.88C613.005 104.56 613.005 103.92 613.005 102.96V102.72C613.005 101.6 613.005 100.88 613.005 100.56C613.005 100.24 613.005 99.68 613.005 98.88C613.005 98.08 613.005 96.4 613.005 93.84V69.84C619.085 69.84 623.245 68.4 625.485 65.52C627.885 62.64 629.085 58.8 629.085 54V38.64C629.085 33.84 627.885 29.76 625.485 26.4C623.085 23.04 618.845 21.36 612.765 21.36V2.16H735.645V37.44H714.045C714.045 32.64 712.845 28.8 710.445 25.92C708.205 22.88 704.045 21.36 697.965 21.36H668.925V36H697.005V52.8H668.925V68.64H699.405C705.485 68.64 709.645 67.44 711.885 65.04C714.285 62.48 715.485 58.8 715.485 54H737.085V93.84C737.085 96.4 737.085 98.16 737.085 99.12C737.085 99.92 737.085 100.48 737.085 100.8C737.085 100.96 737.085 101.6 737.085 102.72V102.96C737.085 103.92 737.085 104.56 737.085 104.88C737.085 105.2 737.085 105.76 737.085 106.56C737.085 107.2 737.085 108.88 737.085 111.6V123.84C737.085 126.4 737.085 128.16 737.085 129.12C737.085 129.92 737.085 130.48 737.085 130.8C737.085 130.96 737.085 131.6 737.085 132.72V132.96C737.085 133.92 737.085 134.56 737.085 134.88C737.085 135.2 737.085 135.76 737.085 136.56C737.085 137.2 737.085 138.88 737.085 141.6V174H613.005ZM754.886 174V141.6C754.886 138.88 754.886 137.2 754.886 136.56C754.886 135.76 754.886 135.2 754.886 134.88C754.886 134.56 754.886 133.92 754.886 132.96V132.72C754.886 131.6 754.886 130.96 754.886 130.8C754.886 130.48 754.886 129.92 754.886 129.12C754.886 128.16 754.886 126.4 754.886 123.84V111.6C754.886 108.88 754.886 107.2 754.886 106.56C754.886 105.76 754.886 105.2 754.886 104.88C754.886 104.56 754.886 103.92 754.886 102.96V102.72C754.886 101.6 754.886 100.96 754.886 100.8C754.886 100.48 754.886 99.92 754.886 99.12C754.886 98.16 754.886 96.4 754.886 93.84V69.84H775.286C781.366 69.84 785.526 68.64 787.766 66.24C790.166 63.68 791.366 60 791.366 55.2V21.36H785.366C779.446 21.36 775.286 23.04 772.886 26.4C770.486 29.76 769.286 33.84 769.286 38.64V51.36H747.686V2.16H872.966V51.36H851.366V38.88C851.366 34.08 850.166 30 847.766 26.64C845.526 23.12 841.366 21.36 835.286 21.36H829.286V54C829.286 58.8 830.486 62.64 832.886 65.52C835.286 68.4 839.446 69.84 845.366 69.84H865.766V93.84C865.766 96.4 865.766 98.16 865.766 99.12C865.766 99.92 865.766 100.48 865.766 100.8C865.766 100.96 865.766 101.6 865.766 102.72V102.96C865.766 103.92 865.766 104.56 865.766 104.88C865.766 105.2 865.766 105.76 865.766 106.56C865.766 107.2 865.766 108.88 865.766 111.6V123.84C865.766 126.4 865.766 128.16 865.766 129.12C865.766 129.92 865.766 130.48 865.766 130.8C865.766 130.96 865.766 131.6 865.766 132.72V132.96C865.766 133.92 865.766 134.56 865.766 134.88C865.766 135.2 865.766 135.76 865.766 136.56C865.766 137.2 865.766 138.88 865.766 141.6V174H754.886ZM928.828 175.44C917.628 175.44 907.948 172.32 899.788 166.08C891.788 159.68 886.668 151.52 884.428 141.6C884.268 140.8 884.108 139.92 883.948 138.96C883.788 137.84 883.628 136.8 883.468 135.84C883.468 134.72 883.468 133.84 883.468 133.2V132.96C883.468 131.84 883.468 131.2 883.468 131.04C883.468 130.72 883.468 130.16 883.468 129.36C883.468 128.4 883.468 126.56 883.468 123.84V111.6C883.468 108.88 883.468 107.2 883.468 106.56C883.468 105.76 883.468 105.2 883.468 104.88C883.468 104.56 883.468 103.92 883.468 102.96V102.72C883.468 101.6 883.468 100.96 883.468 100.8C883.468 100.48 883.468 99.92 883.468 99.12C883.468 98.16 883.468 96.4 883.468 93.84V45.36C883.468 36.88 885.388 29.28 889.228 22.56C893.228 15.84 898.668 10.56 905.548 6.71999C912.428 2.71999 920.188 0.719985 928.828 0.719985H976.348C985.148 0.719985 992.908 2.63999 999.628 6.48C1006.51 10.32 1011.87 15.6 1015.71 22.32C1019.71 29.04 1021.71 36.72 1021.71 45.36V93.84C1021.71 96.4 1021.71 98.16 1021.71 99.12C1021.71 99.92 1021.71 100.48 1021.71 100.8C1021.71 100.96 1021.71 101.6 1021.71 102.72V102.96C1021.71 103.92 1021.71 104.56 1021.71 104.88C1021.71 105.2 1021.71 105.76 1021.71 106.56C1021.71 107.2 1021.71 108.88 1021.71 111.6V123.84C1021.71 126.4 1021.71 128.16 1021.71 129.12C1021.71 129.92 1021.71 130.48 1021.71 130.8C1021.71 130.96 1021.71 131.6 1021.71 132.72V132.96C1021.71 133.92 1021.63 134.96 1021.47 136.08C1021.47 137.2 1021.39 138.24 1021.23 139.2C1021.07 140 1020.91 140.8 1020.75 141.6C1018.51 151.52 1013.31 159.68 1005.15 166.08C997.148 172.32 987.548 175.44 976.348 175.44H928.828ZM941.308 68.64C943.388 68.64 945.468 67.76 947.548 66C949.788 64.08 951.148 60 951.628 53.76H953.548C954.028 60 955.308 64.08 957.388 66C959.628 67.76 961.788 68.64 963.868 68.64C967.068 68.64 969.388 67.52 970.828 65.28C972.428 63.04 973.228 59.92 973.228 55.92V37.44C973.228 32.64 972.108 28.8 969.868 25.92C967.628 22.88 963.468 21.36 957.388 21.36H947.788C941.868 21.36 937.708 22.88 935.308 25.92C933.068 28.8 931.948 32.64 931.948 37.44V55.92C931.948 59.92 932.668 63.04 934.108 65.28C935.708 67.52 938.108 68.64 941.308 68.64ZM1081.18 175.44C1069.98 175.44 1060.38 172.32 1052.38 166.08C1044.38 159.84 1039.26 151.68 1037.02 141.6C1036.86 140.48 1036.62 139.36 1036.3 138.24C1036.14 136.96 1035.98 135.68 1035.82 134.4C1035.82 133.12 1035.82 132.08 1035.82 131.28V130.8C1035.82 130.32 1035.82 129.84 1035.82 129.36C1035.82 128.88 1035.82 128.24 1035.82 127.44C1035.82 126.48 1035.82 125.28 1035.82 123.84V111.6C1035.82 108.88 1035.82 107.2 1035.82 106.56C1035.82 105.76 1035.82 105.2 1035.82 104.88C1035.82 104.56 1035.82 103.92 1035.82 102.96V102.72C1035.82 101.6 1035.82 100.96 1035.82 100.8C1035.82 100.48 1035.82 99.92 1035.82 99.12C1035.82 98.16 1035.82 96.4 1035.82 93.84V62.64H1082.62C1082.62 66.16 1083.34 68.64 1084.78 70.08C1086.22 71.36 1088.7 72 1092.22 72H1113.1C1117.26 72 1120.22 71.52 1121.98 70.56C1123.74 69.44 1124.62 67.6 1124.62 65.04C1124.62 63.28 1123.82 61.84 1122.22 60.72C1120.62 59.44 1117.42 58.32 1112.62 57.36C1107.98 56.4 1100.94 55.44 1091.5 54.48C1077.74 53.04 1066.94 51.2 1059.1 48.96C1051.42 46.72 1045.98 43.76 1042.78 40.08C1039.58 36.4 1037.98 31.76 1037.98 26.16C1037.98 9.19999 1051.18 0.719985 1077.58 0.719985H1128.22C1139.42 0.719985 1148.22 3.43999 1154.62 8.87999C1161.18 14.16 1164.46 21.44 1164.46 30.72H1122.7C1122.7 27.2 1121.26 24.4 1118.38 22.32C1115.66 20.08 1111.74 18.96 1106.62 18.96H1095.58C1091.1 18.96 1087.74 19.68 1085.5 21.12C1083.26 22.56 1082.14 24.24 1082.14 26.16C1082.14 28.24 1083.02 30 1084.78 31.44C1086.54 32.88 1089.9 34.08 1094.86 35.04C1099.82 36 1107.02 36.96 1116.46 37.92C1129.74 39.04 1140.38 41.28 1148.38 44.64C1156.38 48 1162.22 52.88 1165.9 59.28C1169.58 65.68 1171.42 74.08 1171.42 84.48V93.84C1171.42 96.4 1171.42 98.16 1171.42 99.12C1171.42 99.92 1171.42 100.48 1171.42 100.8C1171.42 100.96 1171.42 101.6 1171.42 102.72V102.96C1171.42 103.92 1171.42 104.56 1171.42 104.88C1171.42 105.2 1171.42 105.76 1171.42 106.56C1171.42 107.2 1171.42 108.88 1171.42 111.6V123.84C1171.42 125.28 1171.42 126.48 1171.42 127.44C1171.42 128.24 1171.42 128.88 1171.42 129.36C1171.42 129.84 1171.42 130.32 1171.42 130.8V131.28C1171.42 132.08 1171.34 133.12 1171.18 134.4C1171.18 135.68 1171.1 136.96 1170.94 138.24C1170.78 139.36 1170.62 140.48 1170.46 141.6C1169.34 148 1166.62 153.76 1162.3 158.88C1158.14 164 1152.86 168.08 1146.46 171.12C1140.22 174 1133.42 175.44 1126.06 175.44H1081.18Z" fill="black"/>
</svg>
