<svg width="1168" height="176" viewBox="0 0 1168 176" fill="none" xmlns="http://www.w3.org/2000/svg">
<path d="M0.452188 174V141.6C0.452188 138.88 0.452188 137.2 0.452188 136.56C0.452188 135.76 0.452188 135.2 0.452188 134.88C0.452188 134.56 0.452188 133.92 0.452188 132.96V132.72C0.452188 131.6 0.452188 130.96 0.452188 130.8C0.452188 130.48 0.452188 129.92 0.452188 129.12C0.452188 128.16 0.452188 126.4 0.452188 123.84V111.6C0.452188 108.88 0.452188 107.2 0.452188 106.56C0.452188 105.76 0.452188 105.2 0.452188 104.88C0.452188 104.56 0.452188 103.92 0.452188 102.96V102.72C0.452188 101.6 0.452188 100.96 0.452188 100.8C0.452188 100.48 0.452188 99.92 0.452188 99.12C0.452188 98.16 0.452188 96.4 0.452188 93.84V69.84C6.53219 69.84 10.6922 68.64 12.9322 66.24C15.3322 63.68 16.5322 60 16.5322 55.2V37.44C16.5322 32.64 15.3322 28.8 12.9322 25.92C10.6922 22.88 6.53219 21.36 0.452188 21.36V2.16H103.892C106.292 2.16 109.172 2.39999 112.532 2.87999C116.052 3.19999 119.492 4.23999 122.852 5.99999C126.372 7.59999 129.252 10.24 131.492 13.92C133.732 17.44 134.852 22.4 134.852 28.8C134.852 35.68 133.172 41.04 129.812 44.88C126.452 48.56 122.612 51.12 118.292 52.56C113.972 54 110.292 54.72 107.252 54.72H56.8522C56.8522 59.2 58.0522 62.88 60.4522 65.76C62.8522 68.48 67.0122 69.84 72.9322 69.84H106.052V174H0.452188ZM56.8522 38.88H81.8122C88.5322 38.88 91.8922 35.92 91.8922 30C91.8922 27.6 91.0922 25.6 89.4922 24C87.8922 22.24 85.4122 21.36 82.0522 21.36H56.8522V38.88ZM266.524 175.44C255.964 175.44 247.884 174.16 242.284 171.6C236.844 169.04 233.084 165.52 231.004 161.04C229.084 156.4 228.124 151.2 228.124 145.44V141.6C228.124 138.88 228.124 137.2 228.124 136.56C228.124 135.76 228.124 135.2 228.124 134.88C228.124 134.56 228.124 133.92 228.124 132.96V132.72C228.124 131.6 228.124 130.96 228.124 130.8C228.124 130.48 228.124 129.92 228.124 129.12C228.124 128.16 228.124 126.4 228.124 123.84V111.6C228.124 108.88 228.124 107.2 228.124 106.56C228.124 105.76 228.124 105.2 228.124 104.88C228.124 104.56 228.124 103.92 228.124 102.96V102.72C228.124 101.6 228.124 100.96 228.124 100.8C228.124 100.48 228.124 99.92 228.124 99.12C228.124 98.16 228.124 96.4 228.124 93.84V69.84C228.124 64.56 226.844 60.32 224.284 57.12C221.884 53.92 217.964 52.32 212.524 52.32H198.124C198.124 57.92 199.324 62.08 201.724 64.8C204.124 67.36 208.364 68.64 214.444 68.64V174H144.124V141.6C144.124 138.88 144.124 137.2 144.124 136.56C144.124 135.76 144.124 135.2 144.124 134.88C144.124 134.56 144.124 133.92 144.124 132.96V132.72C144.124 131.6 144.124 130.96 144.124 130.8C144.124 130.48 144.124 129.92 144.124 129.12C144.124 128.16 144.124 126.4 144.124 123.84V111.6C144.124 108.88 144.124 107.2 144.124 106.56C144.124 105.76 144.124 105.2 144.124 104.88C144.124 104.56 144.124 103.92 144.124 102.96V102.72C144.124 101.6 144.124 100.96 144.124 100.8C144.124 100.48 144.124 99.92 144.124 99.12C144.124 98.16 144.124 96.4 144.124 93.84V69.84C150.204 69.84 154.364 68.64 156.604 66.24C159.004 63.68 160.204 60 160.204 55.2V37.44C160.204 32.64 159.004 28.8 156.604 25.92C154.364 22.88 150.204 21.36 144.124 21.36V2.16H247.564C249.964 2.16 252.844 2.31999 256.204 2.63999C259.724 2.95999 263.164 3.84 266.524 5.28C270.044 6.55999 272.924 8.63999 275.164 11.52C277.404 14.24 278.524 18.16 278.524 23.28C278.524 28.72 277.084 32.88 274.204 35.76C271.484 38.48 267.964 40.4 263.644 41.52C259.484 42.48 255.244 42.96 250.924 42.96H249.004V45.36C256.204 45.36 261.484 46.24 264.844 48C268.204 49.6 270.604 51.6 272.044 54C273.644 56.4 275.164 58.8 276.604 61.2C278.204 63.6 280.524 65.68 283.564 67.44C286.604 69.04 291.484 69.84 298.204 69.84V174C295.804 174.32 291.564 174.64 285.484 174.96C279.564 175.28 273.244 175.44 266.524 175.44ZM198.124 36.96H223.324C226.364 36.96 228.764 36.32 230.524 35.04C232.284 33.6 233.164 31.6 233.164 29.04C233.164 26.8 232.364 24.96 230.764 23.52C229.164 22.08 226.684 21.36 223.324 21.36H198.124V36.96ZM357.297 175.44C346.097 175.44 336.417 172.32 328.257 166.08C320.257 159.68 315.137 151.52 312.897 141.6C312.737 140.8 312.577 139.92 312.417 138.96C312.257 137.84 312.097 136.8 311.937 135.84C311.937 134.72 311.937 133.84 311.937 133.2V132.96C311.937 131.84 311.937 131.2 311.937 131.04C311.937 130.72 311.937 130.16 311.937 129.36C311.937 128.4 311.937 126.56 311.937 123.84V111.6C311.937 108.88 311.937 107.2 311.937 106.56C311.937 105.76 311.937 105.2 311.937 104.88C311.937 104.56 311.937 103.92 311.937 102.96V102.72C311.937 101.6 311.937 100.96 311.937 100.8C311.937 100.48 311.937 99.92 311.937 99.12C311.937 98.16 311.937 96.4 311.937 93.84V45.36C311.937 36.88 313.857 29.28 317.697 22.56C321.697 15.84 327.137 10.56 334.017 6.71999C340.897 2.71999 348.657 0.719985 357.297 0.719985H404.817C413.617 0.719985 421.377 2.63999 428.097 6.48C434.977 10.32 440.337 15.6 444.177 22.32C448.177 29.04 450.177 36.72 450.177 45.36V93.84C450.177 96.4 450.177 98.16 450.177 99.12C450.177 99.92 450.177 100.48 450.177 100.8C450.177 100.96 450.177 101.6 450.177 102.72V102.96C450.177 103.92 450.177 104.56 450.177 104.88C450.177 105.2 450.177 105.76 450.177 106.56C450.177 107.2 450.177 108.88 450.177 111.6V123.84C450.177 126.4 450.177 128.16 450.177 129.12C450.177 129.92 450.177 130.48 450.177 130.8C450.177 130.96 450.177 131.6 450.177 132.72V132.96C450.177 133.92 450.097 134.96 449.937 136.08C449.937 137.2 449.857 138.24 449.697 139.2C449.537 140 449.377 140.8 449.217 141.6C446.977 151.52 441.777 159.68 433.617 166.08C425.617 172.32 416.017 175.44 404.817 175.44H357.297ZM369.777 68.64C371.857 68.64 373.937 67.76 376.017 66C378.257 64.08 379.617 60 380.097 53.76H382.017C382.497 60 383.777 64.08 385.857 66C388.097 67.76 390.257 68.64 392.337 68.64C395.537 68.64 397.857 67.52 399.297 65.28C400.897 63.04 401.697 59.92 401.697 55.92V37.44C401.697 32.64 400.577 28.8 398.337 25.92C396.097 22.88 391.937 21.36 385.857 21.36H376.257C370.337 21.36 366.177 22.88 363.777 25.92C361.537 28.8 360.417 32.64 360.417 37.44V55.92C360.417 59.92 361.137 63.04 362.577 65.28C364.177 67.52 366.577 68.64 369.777 68.64ZM509.886 175.44C498.686 175.44 489.006 172.32 480.846 166.08C472.846 159.68 467.726 151.52 465.486 141.6C465.326 140.8 465.166 140 465.006 139.2C464.846 138.24 464.686 137.28 464.526 136.32C464.526 135.2 464.526 134.16 464.526 133.2V132.96C464.526 131.84 464.526 131.2 464.526 131.04C464.526 130.72 464.526 130.16 464.526 129.36C464.526 128.4 464.526 126.56 464.526 123.84V111.6C464.526 108.88 464.526 107.2 464.526 106.56C464.526 105.76 464.526 105.2 464.526 104.88C464.526 104.56 464.526 103.92 464.526 102.96V102.72C464.526 101.6 464.526 100.96 464.526 100.8C464.526 100.48 464.526 99.92 464.526 99.12C464.526 98.16 464.526 96.4 464.526 93.84V43.44H487.326V54C487.326 58.8 488.526 62.48 490.926 65.04C493.326 67.44 497.486 68.64 503.406 68.64H527.166C533.246 68.64 537.406 67.44 539.646 65.04C542.046 62.48 543.246 58.8 543.246 54V37.44C543.246 32.64 542.046 28.8 539.646 25.92C537.406 22.88 533.246 21.36 527.166 21.36V2.16H597.246V21.36C591.326 21.36 587.166 23.04 584.766 26.4C582.366 29.76 581.166 33.84 581.166 38.64V54C581.166 58.8 582.366 62.64 584.766 65.52C587.166 68.4 591.326 69.84 597.246 69.84V93.84C597.246 96.4 597.246 98.16 597.246 99.12C597.246 99.92 597.246 100.48 597.246 100.8C597.246 100.96 597.246 101.6 597.246 102.72V102.96C597.246 103.92 597.246 104.56 597.246 104.88C597.246 105.2 597.246 105.76 597.246 106.56C597.246 107.2 597.246 108.88 597.246 111.6V123.84C597.246 126.4 597.246 128.16 597.246 129.12C597.246 129.92 597.246 130.48 597.246 130.8C597.246 130.96 597.246 131.6 597.246 132.72V132.96C597.246 133.92 597.166 134.96 597.006 136.08C597.006 137.2 596.926 138.24 596.766 139.2C596.606 140 596.446 140.8 596.286 141.6C594.046 151.52 588.846 159.68 580.686 166.08C572.686 172.32 563.086 175.44 551.886 175.44H509.886ZM613.114 174V141.6C613.114 138.88 613.114 137.2 613.114 136.56C613.114 135.76 613.114 135.2 613.114 134.88C613.114 134.56 613.114 133.92 613.114 132.96V132.72C613.114 131.6 613.114 130.96 613.114 130.8C613.114 130.48 613.114 129.92 613.114 129.12C613.114 128.16 613.114 126.4 613.114 123.84V111.6C613.114 108.88 613.114 107.2 613.114 106.56C613.114 105.76 613.114 105.2 613.114 104.88C613.114 104.56 613.114 103.92 613.114 102.96V102.72C613.114 101.6 613.114 100.88 613.114 100.56C613.114 100.24 613.114 99.68 613.114 98.88C613.114 98.08 613.114 96.4 613.114 93.84V69.84C619.194 69.84 623.354 68.4 625.594 65.52C627.994 62.64 629.194 58.8 629.194 54V38.64C629.194 33.84 627.994 29.76 625.594 26.4C623.194 23.04 618.954 21.36 612.874 21.36V2.16H735.754V37.44H714.154C714.154 32.64 712.954 28.8 710.554 25.92C708.314 22.88 704.154 21.36 698.074 21.36H669.034V36H697.114V52.8H669.034V68.64H699.514C705.594 68.64 709.754 67.44 711.994 65.04C714.394 62.48 715.594 58.8 715.594 54H737.194V93.84C737.194 96.4 737.194 98.16 737.194 99.12C737.194 99.92 737.194 100.48 737.194 100.8C737.194 100.96 737.194 101.6 737.194 102.72V102.96C737.194 103.92 737.194 104.56 737.194 104.88C737.194 105.2 737.194 105.76 737.194 106.56C737.194 107.2 737.194 108.88 737.194 111.6V123.84C737.194 126.4 737.194 128.16 737.194 129.12C737.194 129.92 737.194 130.48 737.194 130.8C737.194 130.96 737.194 131.6 737.194 132.72V132.96C737.194 133.92 737.194 134.56 737.194 134.88C737.194 135.2 737.194 135.76 737.194 136.56C737.194 137.2 737.194 138.88 737.194 141.6V174H613.114ZM796.515 175.44C785.315 175.44 775.635 172.32 767.475 166.08C759.475 159.68 754.355 151.52 752.115 141.6C751.955 140.8 751.795 140 751.635 139.2C751.475 138.24 751.315 137.28 751.155 136.32C751.155 135.2 751.155 134.16 751.155 133.2V132.96C751.155 131.84 751.155 131.2 751.155 131.04C751.155 130.72 751.155 130.16 751.155 129.36C751.155 128.4 751.155 126.56 751.155 123.84V111.6C751.155 108.88 751.155 107.2 751.155 106.56C751.155 105.76 751.155 105.2 751.155 104.88C751.155 104.56 751.155 103.92 751.155 102.96V102.72C751.155 101.6 751.155 100.96 751.155 100.8C751.155 100.48 751.155 99.92 751.155 99.12C751.155 98.16 751.155 96.4 751.155 93.84V45.36C751.155 36.72 753.155 29.04 757.155 22.32C761.155 15.6 766.515 10.32 773.235 6.48C780.115 2.63999 787.875 0.719985 796.515 0.719985H846.435C853.795 0.719985 860.355 2.39999 866.115 5.75999C871.875 9.12 876.435 13.68 879.795 19.44C883.315 25.2 885.075 31.6 885.075 38.64H845.715C845.715 27.12 840.275 21.36 829.395 21.36H815.955C805.075 21.36 799.635 26.72 799.635 37.44V55.92C799.635 64.4 803.315 68.64 810.675 68.64C813.235 68.64 815.555 67.76 817.635 66C819.875 64.24 821.235 60.16 821.715 53.76H823.395C823.875 60.16 825.235 64.24 827.475 66C829.715 67.76 832.115 68.64 834.675 68.64C842.035 68.64 845.715 63.76 845.715 54H885.075V93.84C885.075 96.4 885.075 98.16 885.075 99.12C885.075 99.92 885.075 100.48 885.075 100.8C885.075 100.96 885.075 101.6 885.075 102.72V102.96C885.075 103.92 885.075 104.56 885.075 104.88C885.075 105.2 885.075 105.76 885.075 106.56C885.075 107.2 885.075 108.88 885.075 111.6V123.84C885.075 126.4 885.075 128.16 885.075 129.12C885.075 129.92 885.075 130.48 885.075 130.8C885.075 130.96 885.075 131.6 885.075 132.72V132.96C885.075 133.92 884.995 134.96 884.835 136.08C884.835 137.2 884.755 138.24 884.595 139.2C884.435 140 884.275 140.8 884.115 141.6C881.875 151.52 876.675 159.68 868.515 166.08C860.515 172.32 850.915 175.44 839.715 175.44H796.515ZM902.886 174V141.6C902.886 138.88 902.886 137.2 902.886 136.56C902.886 135.76 902.886 135.2 902.886 134.88C902.886 134.56 902.886 133.92 902.886 132.96V132.72C902.886 131.6 902.886 130.96 902.886 130.8C902.886 130.48 902.886 129.92 902.886 129.12C902.886 128.16 902.886 126.4 902.886 123.84V111.6C902.886 108.88 902.886 107.2 902.886 106.56C902.886 105.76 902.886 105.2 902.886 104.88C902.886 104.56 902.886 103.92 902.886 102.96V102.72C902.886 101.6 902.886 100.96 902.886 100.8C902.886 100.48 902.886 99.92 902.886 99.12C902.886 98.16 902.886 96.4 902.886 93.84V69.84H923.286C929.366 69.84 933.526 68.64 935.766 66.24C938.166 63.68 939.366 60 939.366 55.2V21.36H933.366C927.446 21.36 923.286 23.04 920.886 26.4C918.486 29.76 917.286 33.84 917.286 38.64V51.36H895.686V2.16H1020.97V51.36H999.366V38.88C999.366 34.08 998.166 30 995.766 26.64C993.526 23.12 989.366 21.36 983.286 21.36H977.286V54C977.286 58.8 978.486 62.64 980.886 65.52C983.286 68.4 987.446 69.84 993.366 69.84H1013.77V93.84C1013.77 96.4 1013.77 98.16 1013.77 99.12C1013.77 99.92 1013.77 100.48 1013.77 100.8C1013.77 100.96 1013.77 101.6 1013.77 102.72V102.96C1013.77 103.92 1013.77 104.56 1013.77 104.88C1013.77 105.2 1013.77 105.76 1013.77 106.56C1013.77 107.2 1013.77 108.88 1013.77 111.6V123.84C1013.77 126.4 1013.77 128.16 1013.77 129.12C1013.77 129.92 1013.77 130.48 1013.77 130.8C1013.77 130.96 1013.77 131.6 1013.77 132.72V132.96C1013.77 133.92 1013.77 134.56 1013.77 134.88C1013.77 135.2 1013.77 135.76 1013.77 136.56C1013.77 137.2 1013.77 138.88 1013.77 141.6V174H902.886ZM1077.07 175.44C1065.87 175.44 1056.27 172.32 1048.27 166.08C1040.27 159.84 1035.15 151.68 1032.91 141.6C1032.75 140.48 1032.51 139.36 1032.19 138.24C1032.03 136.96 1031.87 135.68 1031.71 134.4C1031.71 133.12 1031.71 132.08 1031.71 131.28V130.8C1031.71 130.32 1031.71 129.84 1031.71 129.36C1031.71 128.88 1031.71 128.24 1031.71 127.44C1031.71 126.48 1031.71 125.28 1031.71 123.84V111.6C1031.71 108.88 1031.71 107.2 1031.71 106.56C1031.71 105.76 1031.71 105.2 1031.71 104.88C1031.71 104.56 1031.71 103.92 1031.71 102.96V102.72C1031.71 101.6 1031.71 100.96 1031.71 100.8C1031.71 100.48 1031.71 99.92 1031.71 99.12C1031.71 98.16 1031.71 96.4 1031.71 93.84V62.64H1078.51C1078.51 66.16 1079.23 68.64 1080.67 70.08C1082.11 71.36 1084.59 72 1088.11 72H1108.99C1113.15 72 1116.11 71.52 1117.87 70.56C1119.63 69.44 1120.51 67.6 1120.51 65.04C1120.51 63.28 1119.71 61.84 1118.11 60.72C1116.51 59.44 1113.31 58.32 1108.51 57.36C1103.87 56.4 1096.83 55.44 1087.39 54.48C1073.63 53.04 1062.83 51.2 1054.99 48.96C1047.31 46.72 1041.87 43.76 1038.67 40.08C1035.47 36.4 1033.87 31.76 1033.87 26.16C1033.87 9.19999 1047.07 0.719985 1073.47 0.719985H1124.11C1135.31 0.719985 1144.11 3.43999 1150.51 8.87999C1157.07 14.16 1160.35 21.44 1160.35 30.72H1118.59C1118.59 27.2 1117.15 24.4 1114.27 22.32C1111.55 20.08 1107.63 18.96 1102.51 18.96H1091.47C1086.99 18.96 1083.63 19.68 1081.39 21.12C1079.15 22.56 1078.03 24.24 1078.03 26.16C1078.03 28.24 1078.91 30 1080.67 31.44C1082.43 32.88 1085.79 34.08 1090.75 35.04C1095.71 36 1102.91 36.96 1112.35 37.92C1125.63 39.04 1136.27 41.28 1144.27 44.64C1152.27 48 1158.11 52.88 1161.79 59.28C1165.47 65.68 1167.31 74.08 1167.31 84.48V93.84C1167.31 96.4 1167.31 98.16 1167.31 99.12C1167.31 99.92 1167.31 100.48 1167.31 100.8C1167.31 100.96 1167.31 101.6 1167.31 102.72V102.96C1167.31 103.92 1167.31 104.56 1167.31 104.88C1167.31 105.2 1167.31 105.76 1167.31 106.56C1167.31 107.2 1167.31 108.88 1167.31 111.6V123.84C1167.31 125.28 1167.31 126.48 1167.31 127.44C1167.31 128.24 1167.31 128.88 1167.31 129.36C1167.31 129.84 1167.31 130.32 1167.31 130.8V131.28C1167.31 132.08 1167.23 133.12 1167.07 134.4C1167.07 135.68 1166.99 136.96 1166.83 138.24C1166.67 139.36 1166.51 140.48 1166.35 141.6C1165.23 148 1162.51 153.76 1158.19 158.88C1154.03 164 1148.75 168.08 1142.35 171.12C1136.11 174 1129.31 175.44 1121.95 175.44H1077.07Z" fill="black"/>
</svg>
