<svg width="1101" height="256" viewBox="0 0 1101 256" fill="none" xmlns="http://www.w3.org/2000/svg">
<path d="M11.4502 253V205.75C11.4502 201.783 11.4502 199.333 11.4502 198.4C11.4502 197.233 11.4502 196.417 11.4502 195.95C11.4502 195.483 11.4502 194.55 11.4502 193.15V192.8C11.4502 191.167 11.4502 190.233 11.4502 190C11.4502 189.533 11.4502 188.717 11.4502 187.55C11.4502 186.15 11.4502 183.583 11.4502 179.85V162C11.4502 158.033 11.4502 155.583 11.4502 154.65C11.4502 153.483 11.4502 152.667 11.4502 152.2C11.4502 151.733 11.4502 150.8 11.4502 149.4V149.05C11.4502 147.417 11.4502 146.483 11.4502 146.25C11.4502 145.783 11.4502 144.967 11.4502 143.8C11.4502 142.4 11.4502 139.833 11.4502 136.1V101.1H41.2002C50.0669 101.1 56.1335 99.35 59.4002 95.85C62.9002 92.1167 64.6502 86.75 64.6502 79.75V30.4H55.9002C47.2669 30.4 41.2002 32.85 37.7002 37.75C34.2002 42.65 32.4502 48.6 32.4502 55.6V74.15H0.950196V2.39999H183.65V74.15H152.15V55.95C152.15 48.95 150.4 43 146.9 38.1C143.634 32.9667 137.567 30.4 128.7 30.4H119.95V78C119.95 85 121.7 90.6 125.2 94.8C128.7 99 134.767 101.1 143.4 101.1H173.15V136.1C173.15 139.833 173.15 142.4 173.15 143.8C173.15 144.967 173.15 145.783 173.15 146.25C173.15 146.483 173.15 147.417 173.15 149.05V149.4C173.15 150.8 173.15 151.733 173.15 152.2C173.15 152.667 173.15 153.483 173.15 154.65C173.15 155.583 173.15 158.033 173.15 162V179.85C173.15 183.583 173.15 186.15 173.15 187.55C173.15 188.717 173.15 189.533 173.15 190C173.15 190.233 173.15 191.167 173.15 192.8V193.15C173.15 194.55 173.15 195.483 173.15 195.95C173.15 196.417 173.15 197.233 173.15 198.4C173.15 199.333 173.15 201.783 173.15 205.75V253H11.4502ZM265.115 255.1C248.782 255.1 234.665 250.55 222.765 241.45C211.099 232.117 203.632 220.217 200.365 205.75C200.132 204.583 199.899 203.3 199.665 201.9C199.432 200.267 199.199 198.75 198.965 197.35C198.965 195.717 198.965 194.433 198.965 193.5V193.15C198.965 191.517 198.965 190.583 198.965 190.35C198.965 189.883 198.965 189.067 198.965 187.9C198.965 186.5 198.965 183.817 198.965 179.85V162C198.965 158.033 198.965 155.583 198.965 154.65C198.965 153.483 198.965 152.667 198.965 152.2C198.965 151.733 198.965 150.8 198.965 149.4V149.05C198.965 147.417 198.965 146.483 198.965 146.25C198.965 145.783 198.965 144.967 198.965 143.8C198.965 142.4 198.965 139.833 198.965 136.1V65.4C198.965 53.0333 201.765 41.95 207.365 32.15C213.199 22.35 221.132 14.65 231.165 9.04999C241.199 3.21665 252.515 0.299978 265.115 0.299978H334.415C347.249 0.299978 358.565 3.09998 368.365 8.7C378.399 14.3 386.215 22 391.815 31.8C397.649 41.6 400.565 52.8 400.565 65.4V136.1C400.565 139.833 400.565 142.4 400.565 143.8C400.565 144.967 400.565 145.783 400.565 146.25C400.565 146.483 400.565 147.417 400.565 149.05V149.4C400.565 150.8 400.565 151.733 400.565 152.2C400.565 152.667 400.565 153.483 400.565 154.65C400.565 155.583 400.565 158.033 400.565 162V179.85C400.565 183.583 400.565 186.15 400.565 187.55C400.565 188.717 400.565 189.533 400.565 190C400.565 190.233 400.565 191.167 400.565 192.8V193.15C400.565 194.55 400.449 196.067 400.215 197.7C400.215 199.333 400.099 200.85 399.865 202.25C399.632 203.417 399.399 204.583 399.165 205.75C395.899 220.217 388.315 232.117 376.415 241.45C364.749 250.55 350.749 255.1 334.415 255.1H265.115ZM283.315 99.35C286.349 99.35 289.382 98.0667 292.415 95.5C295.682 92.7 297.665 86.75 298.365 77.65H301.165C301.865 86.75 303.732 92.7 306.765 95.5C310.032 98.0667 313.182 99.35 316.215 99.35C320.882 99.35 324.265 97.7167 326.365 94.45C328.699 91.1833 329.865 86.6333 329.865 80.8V53.85C329.865 46.85 328.232 41.25 324.965 37.05C321.699 32.6167 315.632 30.4 306.765 30.4H292.765C284.132 30.4 278.065 32.6167 274.565 37.05C271.299 41.25 269.665 46.85 269.665 53.85V80.8C269.665 86.6333 270.715 91.1833 272.815 94.45C275.149 97.7167 278.649 99.35 283.315 99.35ZM487.992 255.1C471.658 255.1 457.542 250.55 445.642 241.45C433.975 232.117 426.508 220.217 423.242 205.75C423.008 204.583 422.775 203.3 422.542 201.9C422.308 200.5 422.075 199.1 421.842 197.7C421.842 196.067 421.842 194.55 421.842 193.15V192.8C421.842 191.167 421.842 190.233 421.842 190C421.842 189.533 421.842 188.717 421.842 187.55C421.842 186.15 421.842 183.583 421.842 179.85V162C421.842 158.033 421.842 155.583 421.842 154.65C421.842 153.483 421.842 152.667 421.842 152.2C421.842 151.733 421.842 150.8 421.842 149.4V149.05C421.842 147.417 421.842 146.483 421.842 146.25C421.842 145.783 421.842 144.967 421.842 143.8C421.842 142.4 421.842 139.833 421.842 136.1V101.1C437.475 101.1 445.292 93.4 445.292 78V55.6C445.292 38.8 437.475 30.4 421.842 30.4V2.39999H522.292V32.15C507.825 32.15 500.592 39.9667 500.592 55.6V80.8C500.592 86.4 501.875 90.95 504.442 94.45C507.008 97.7167 510.508 99.35 514.942 99.35C518.675 99.35 522.058 98.0667 525.092 95.5C528.358 92.9333 530.342 86.9833 531.042 77.65H533.492C534.192 86.9833 536.175 92.9333 539.442 95.5C542.708 98.0667 546.208 99.35 549.942 99.35C554.375 99.35 557.875 97.7167 560.442 94.45C563.008 90.95 564.292 86.4 564.292 80.8V55.6C564.292 39.9667 557.058 32.15 542.592 32.15V2.39999H639.542V30.4C623.908 30.4 616.092 38.8 616.092 55.6V78C616.092 93.4 623.908 101.1 639.542 101.1V136.1C639.542 139.833 639.542 142.4 639.542 143.8C639.542 144.967 639.542 145.783 639.542 146.25C639.542 146.483 639.542 147.417 639.542 149.05V149.4C639.542 150.8 639.542 151.733 639.542 152.2C639.542 152.667 639.542 153.483 639.542 154.65C639.542 155.583 639.542 158.033 639.542 162V253H610.142L603.492 212.75C602.325 205.283 600.108 200.033 596.842 197C593.808 193.733 589.142 192.1 582.842 192.1V203.65C582.842 221.617 578.408 234.683 569.542 242.85C560.908 251.017 546.792 255.1 527.192 255.1H487.992ZM725.858 255.1C709.524 255.1 695.408 250.55 683.508 241.45C671.841 232.117 664.374 220.217 661.108 205.75C660.874 204.583 660.641 203.417 660.408 202.25C660.174 200.85 659.941 199.45 659.708 198.05C659.708 196.417 659.708 194.9 659.708 193.5V193.15C659.708 191.517 659.708 190.583 659.708 190.35C659.708 189.883 659.708 189.067 659.708 187.9C659.708 186.5 659.708 183.817 659.708 179.85V162C659.708 158.033 659.708 155.583 659.708 154.65C659.708 153.483 659.708 152.667 659.708 152.2C659.708 151.733 659.708 150.8 659.708 149.4V149.05C659.708 147.417 659.708 146.483 659.708 146.25C659.708 145.783 659.708 144.967 659.708 143.8C659.708 142.4 659.708 139.833 659.708 136.1V65.4C659.708 52.8 662.624 41.6 668.458 31.8C674.291 22 682.108 14.3 691.908 8.7C701.941 3.09998 713.258 0.299978 725.858 0.299978H798.658C809.391 0.299978 818.958 2.74998 827.358 7.64999C835.758 12.55 842.408 19.2 847.308 27.6C852.441 36 855.008 45.3333 855.008 55.6H797.608C797.608 38.8 789.674 30.4 773.808 30.4H754.208C738.341 30.4 730.408 38.2167 730.408 53.85V80.8C730.408 93.1667 735.774 99.35 746.508 99.35C750.241 99.35 753.624 98.0667 756.658 95.5C759.924 92.9333 761.908 86.9833 762.608 77.65H765.058C765.758 86.9833 767.741 92.9333 771.008 95.5C774.274 98.0667 777.774 99.35 781.508 99.35C792.241 99.35 797.608 92.2333 797.608 78H855.008V136.1C855.008 139.833 855.008 142.4 855.008 143.8C855.008 144.967 855.008 145.783 855.008 146.25C855.008 146.483 855.008 147.417 855.008 149.05V149.4C855.008 150.8 855.008 151.733 855.008 152.2C855.008 152.667 855.008 153.483 855.008 154.65C855.008 155.583 855.008 158.033 855.008 162V179.85C855.008 183.583 855.008 186.15 855.008 187.55C855.008 188.717 855.008 189.533 855.008 190C855.008 190.233 855.008 191.167 855.008 192.8V193.15C855.008 194.55 854.891 196.067 854.658 197.7C854.658 199.333 854.541 200.85 854.308 202.25C854.074 203.417 853.841 204.583 853.608 205.75C850.341 220.217 842.758 232.117 830.858 241.45C819.191 250.55 805.191 255.1 788.858 255.1H725.858ZM875.381 253V205.75C875.381 201.783 875.381 199.333 875.381 198.4C875.381 197.233 875.381 196.417 875.381 195.95C875.381 195.483 875.381 194.55 875.381 193.15V192.8C875.381 191.167 875.381 190.233 875.381 190C875.381 189.533 875.381 188.717 875.381 187.55C875.381 186.15 875.381 183.583 875.381 179.85V162C875.381 158.033 875.381 155.583 875.381 154.65C875.381 153.483 875.381 152.667 875.381 152.2C875.381 151.733 875.381 150.8 875.381 149.4V149.05C875.381 147.417 875.381 146.483 875.381 146.25C875.381 145.783 875.381 144.967 875.381 143.8C875.381 142.4 875.381 139.833 875.381 136.1V101.1C884.248 101.1 890.315 99 893.581 94.8C897.081 90.6 898.831 85 898.831 78V55.6C898.831 48.6 897.081 42.65 893.581 37.75C890.315 32.85 884.248 30.4 875.381 30.4V2.39999H977.581V32.15C969.648 32.15 963.698 33.9 959.731 37.4C955.998 40.9 954.131 45.6833 954.131 51.75H1021.33C1021.33 45.6833 1019.35 40.9 1015.38 37.4C1011.65 33.9 1005.81 32.15 997.881 32.15V2.39999H1100.08V30.4C1091.45 30.4 1085.38 32.85 1081.88 37.75C1078.38 42.65 1076.63 48.6 1076.63 55.6V78C1076.63 85 1078.38 90.6 1081.88 94.8C1085.38 99 1091.45 101.1 1100.08 101.1V253H997.881V205.75C997.881 201.783 997.881 199.333 997.881 198.4C997.881 197.233 997.881 196.417 997.881 195.95C997.881 195.483 997.881 194.55 997.881 193.15V192.8C997.881 191.167 997.881 190.233 997.881 190C997.881 189.533 997.881 188.717 997.881 187.55C997.881 186.15 997.881 183.583 997.881 179.85V162C997.881 158.033 997.881 155.583 997.881 154.65C997.881 153.483 997.881 152.667 997.881 152.2C997.881 151.733 997.881 150.8 997.881 149.4V149.05C997.881 147.417 997.881 146.483 997.881 146.25C997.881 145.783 997.881 144.967 997.881 143.8C997.881 142.4 997.881 139.833 997.881 136.1V99.35C1006.75 99.35 1012.81 97.25 1016.08 93.05C1019.58 88.85 1021.33 83.25 1021.33 76.25H954.131C954.131 83.25 955.881 88.85 959.381 93.05C962.881 97.25 968.948 99.35 977.581 99.35V253H875.381Z" fill="#344696"/>
</svg>
