<svg width="1121" height="241" viewBox="0 0 1121 241" fill="none" xmlns="http://www.w3.org/2000/svg">
<path d="M37.0372 239L29.1172 194.45C28.8972 193.13 28.6772 191.81 28.4572 190.49C28.2372 189.17 28.0172 187.96 27.7972 186.86C27.5772 185.54 27.3572 184.22 27.1372 182.9L26.8072 181.25C26.5872 179.93 26.3672 178.72 26.1472 177.62C25.9272 176.3 25.7072 174.98 25.4872 173.66C25.2672 172.34 25.0472 171.13 24.8272 170.03L21.8572 153.2C21.6372 151.88 21.4172 150.56 21.1972 149.24C20.9772 147.92 20.7572 146.71 20.5372 145.61C20.3172 144.29 20.0972 142.97 19.8772 141.65L19.5472 140C19.3272 138.68 19.1072 137.47 18.8872 136.37C18.6672 135.05 18.4472 133.73 18.2272 132.41C18.0072 131.09 17.7872 129.88 17.5672 128.78L11.6272 95.78C20.6472 95.78 27.5772 93.91 32.4172 90.17C37.4772 86.43 40.0072 81.48 40.0072 75.32C40.0072 70.7 38.9072 66.08 36.7072 61.46L31.7572 50.24C28.4572 42.76 24.8272 37.37 20.8672 34.07C16.9072 30.77 12.2872 29.12 7.00723 29.12H0.407227V2.71999H93.4672V30.77C84.6672 30.77 80.2672 34.4 80.2672 41.66C80.2672 44.74 81.4772 48.48 83.8972 52.88L100.397 81.26H101.057L117.557 52.88C120.417 48.04 121.847 43.75 121.847 40.01C121.847 33.85 117.117 30.77 107.657 30.77V2.71999H206.987V30.77C202.807 30.77 199.617 31.76 197.417 33.74C195.437 35.72 194.447 38.25 194.447 41.33C194.447 44.63 195.767 48.48 198.407 52.88L215.237 82.58H215.897L232.397 52.88C235.037 47.82 236.357 43.64 236.357 40.34C236.357 33.96 231.297 30.77 221.177 30.77V2.71999H292.457V29.12H286.187C277.167 29.12 269.797 35.06 264.077 46.94L256.817 61.46C254.837 65.64 253.847 69.6 253.847 73.34C253.847 79.72 256.377 85.11 261.437 89.51C266.717 93.91 273.647 96.11 282.227 96.11L261.107 239H166.397L162.437 194.45C162.217 192.69 161.997 190.93 161.777 189.17C161.777 187.41 161.667 185.76 161.447 184.22L161.117 180.59C161.117 179.49 161.007 178.39 160.787 177.29C160.787 175.97 160.677 174.76 160.457 173.66C160.457 172.34 160.347 171.13 160.127 170.03L158.477 153.2C158.477 152.1 158.367 151 158.147 149.9C158.147 148.8 158.037 147.7 157.817 146.6C157.817 145.5 157.707 144.4 157.487 143.3L157.157 139.67C157.157 138.35 157.047 137.14 156.827 136.04C156.827 134.72 156.717 133.51 156.497 132.41C156.497 131.31 156.387 130.1 156.167 128.78L152.867 94.13C160.347 94.13 164.087 91.49 164.087 86.21C164.087 83.79 163.317 80.71 161.777 76.97C160.237 73.23 157.927 68.61 154.847 63.11L149.237 52.88H148.577L144.947 59.81C138.127 73.23 134.717 82.25 134.717 86.87C134.717 89.73 135.597 91.71 137.357 92.81C139.337 93.69 142.307 94.13 146.267 94.13L133.397 239H37.0372ZM364.32 240.98C348.92 240.98 335.61 236.69 324.39 228.11C313.39 219.31 306.35 208.09 303.27 194.45C303.05 193.35 302.83 192.14 302.61 190.82C302.39 189.28 302.17 187.85 301.95 186.53C301.95 184.99 301.95 183.78 301.95 182.9V182.57C301.95 181.03 301.95 180.15 301.95 179.93C301.95 179.49 301.95 178.72 301.95 177.62C301.95 176.3 301.95 173.77 301.95 170.03V153.2C301.95 149.46 301.95 147.15 301.95 146.27C301.95 145.17 301.95 144.4 301.95 143.96C301.95 143.52 301.95 142.64 301.95 141.32V140.99C301.95 139.45 301.95 138.57 301.95 138.35C301.95 137.91 301.95 137.14 301.95 136.04C301.95 134.72 301.95 132.3 301.95 128.78V62.12C301.95 50.46 304.59 40.01 309.87 30.77C315.37 21.53 322.85 14.27 332.31 8.98999C341.77 3.48998 352.44 0.739979 364.32 0.739979H429.66C441.76 0.739979 452.43 3.37998 461.67 8.66C471.13 13.94 478.5 21.2 483.78 30.44C489.28 39.68 492.03 50.24 492.03 62.12V128.78C492.03 132.3 492.03 134.72 492.03 136.04C492.03 137.14 492.03 137.91 492.03 138.35C492.03 138.57 492.03 139.45 492.03 140.99V141.32C492.03 142.64 492.03 143.52 492.03 143.96C492.03 144.4 492.03 145.17 492.03 146.27C492.03 147.15 492.03 149.46 492.03 153.2V170.03C492.03 173.55 492.03 175.97 492.03 177.29C492.03 178.39 492.03 179.16 492.03 179.6C492.03 179.82 492.03 180.7 492.03 182.24V182.57C492.03 183.89 491.92 185.32 491.7 186.86C491.7 188.4 491.59 189.83 491.37 191.15C491.15 192.25 490.93 193.35 490.71 194.45C487.63 208.09 480.48 219.31 469.26 228.11C458.26 236.69 445.06 240.98 429.66 240.98H364.32ZM381.48 94.13C384.34 94.13 387.2 92.92 390.06 90.5C393.14 87.86 395.01 82.25 395.67 73.67H398.31C398.97 82.25 400.73 87.86 403.59 90.5C406.67 92.92 409.64 94.13 412.5 94.13C416.9 94.13 420.09 92.59 422.07 89.51C424.27 86.43 425.37 82.14 425.37 76.64V51.23C425.37 44.63 423.83 39.35 420.75 35.39C417.67 31.21 411.95 29.12 403.59 29.12H390.39C382.25 29.12 376.53 31.21 373.23 35.39C370.15 39.35 368.61 44.63 368.61 51.23V76.64C368.61 82.14 369.6 86.43 371.58 89.51C373.78 92.59 377.08 94.13 381.48 94.13ZM679.4 240.98C664.88 240.98 653.77 239.22 646.07 235.7C638.59 232.18 633.42 227.34 630.56 221.18C627.92 214.8 626.6 207.65 626.6 199.73V194.45C626.6 190.71 626.6 188.4 626.6 187.52C626.6 186.42 626.6 185.65 626.6 185.21C626.6 184.77 626.6 183.89 626.6 182.57V182.24C626.6 180.7 626.6 179.82 626.6 179.6C626.6 179.16 626.6 178.39 626.6 177.29C626.6 175.97 626.6 173.55 626.6 170.03V153.2C626.6 149.46 626.6 147.15 626.6 146.27C626.6 145.17 626.6 144.4 626.6 143.96C626.6 143.52 626.6 142.64 626.6 141.32V140.99C626.6 139.45 626.6 138.57 626.6 138.35C626.6 137.91 626.6 137.14 626.6 136.04C626.6 134.72 626.6 132.3 626.6 128.78V95.78C626.6 88.52 624.84 82.69 621.32 78.29C618.02 73.89 612.63 71.69 605.15 71.69H585.35C585.35 79.39 587 85.11 590.3 88.85C593.6 92.37 599.43 94.13 607.79 94.13V239H511.1V194.45C511.1 190.71 511.1 188.4 511.1 187.52C511.1 186.42 511.1 185.65 511.1 185.21C511.1 184.77 511.1 183.89 511.1 182.57V182.24C511.1 180.7 511.1 179.82 511.1 179.6C511.1 179.16 511.1 178.39 511.1 177.29C511.1 175.97 511.1 173.55 511.1 170.03V153.2C511.1 149.46 511.1 147.15 511.1 146.27C511.1 145.17 511.1 144.4 511.1 143.96C511.1 143.52 511.1 142.64 511.1 141.32V140.99C511.1 139.45 511.1 138.57 511.1 138.35C511.1 137.91 511.1 137.14 511.1 136.04C511.1 134.72 511.1 132.3 511.1 128.78V95.78C519.46 95.78 525.18 94.13 528.26 90.83C531.56 87.31 533.21 82.25 533.21 75.65V51.23C533.21 44.63 531.56 39.35 528.26 35.39C525.18 31.21 519.46 29.12 511.1 29.12V2.71999H653.33C656.63 2.71999 660.59 2.93999 665.21 3.37998C670.05 3.81999 674.78 5.03 679.4 7.01C684.24 8.76999 688.2 11.63 691.28 15.59C694.36 19.33 695.9 24.72 695.9 31.76C695.9 39.24 693.92 44.96 689.96 48.92C686.22 52.66 681.38 55.3 675.44 56.84C669.72 58.16 663.89 58.82 657.95 58.82H655.31V62.12C665.21 62.12 672.47 63.33 677.09 65.75C681.71 67.95 685.01 70.7 686.99 74C689.19 77.3 691.28 80.6 693.26 83.9C695.46 87.2 698.65 90.06 702.83 92.48C707.01 94.68 713.72 95.78 722.96 95.78V239C719.66 239.44 713.83 239.88 705.47 240.32C697.33 240.76 688.64 240.98 679.4 240.98ZM585.35 50.57H620C624.18 50.57 627.48 49.69 629.9 47.93C632.32 45.95 633.53 43.2 633.53 39.68C633.53 36.6 632.43 34.07 630.23 32.09C628.03 30.11 624.62 29.12 620 29.12H585.35V50.57ZM741.842 239V194.45C741.842 190.71 741.842 188.4 741.842 187.52C741.842 186.42 741.842 185.65 741.842 185.21C741.842 184.77 741.842 183.89 741.842 182.57V182.24C741.842 180.7 741.842 179.82 741.842 179.6C741.842 179.16 741.842 178.39 741.842 177.29C741.842 175.97 741.842 173.55 741.842 170.03V153.2C741.842 149.46 741.842 147.15 741.842 146.27C741.842 145.17 741.842 144.4 741.842 143.96C741.842 143.52 741.842 142.64 741.842 141.32V140.99C741.842 139.45 741.842 138.57 741.842 138.35C741.842 137.91 741.842 137.14 741.842 136.04C741.842 134.72 741.842 132.3 741.842 128.78V95.78C750.202 95.78 756.032 93.8 759.332 89.84C762.632 85.88 764.282 80.6 764.282 74V52.88C764.282 46.28 762.632 40.67 759.332 36.05C756.032 31.43 750.202 29.12 741.842 29.12V2.71999H838.532V29.12C830.392 29.12 824.672 31.43 821.372 36.05C818.072 40.67 816.422 46.28 816.422 52.88V94.13H861.302C869.662 94.13 875.382 92.48 878.462 89.18C881.762 85.66 883.412 80.6 883.412 74V59.48H914.762V128.78C914.762 132.3 914.762 134.72 914.762 136.04C914.762 137.14 914.762 137.91 914.762 138.35C914.762 138.57 914.762 139.45 914.762 140.99V141.32C914.762 142.64 914.762 143.52 914.762 143.96C914.762 144.4 914.762 145.17 914.762 146.27C914.762 147.15 914.762 149.46 914.762 153.2V170.03C914.762 173.55 914.762 175.97 914.762 177.29C914.762 178.39 914.762 179.16 914.762 179.6C914.762 179.82 914.762 180.7 914.762 182.24V182.57C914.762 183.89 914.762 184.77 914.762 185.21C914.762 185.65 914.762 186.42 914.762 187.52C914.762 188.4 914.762 190.71 914.762 194.45V239H741.842ZM934.557 239V194.45C934.557 190.71 934.557 188.4 934.557 187.52C934.557 186.42 934.557 185.65 934.557 185.21C934.557 184.77 934.557 183.89 934.557 182.57V182.24C934.557 180.7 934.557 179.82 934.557 179.6C934.557 179.16 934.557 178.39 934.557 177.29C934.557 175.97 934.557 173.55 934.557 170.03V153.2C934.557 149.46 934.557 147.15 934.557 146.27C934.557 145.17 934.557 144.4 934.557 143.96C934.557 143.52 934.557 142.64 934.557 141.32V140.99C934.557 139.45 934.557 138.57 934.557 138.35C934.557 137.91 934.557 137.14 934.557 136.04C934.557 134.72 934.557 132.3 934.557 128.78V95.78C942.917 95.78 948.637 94.13 951.717 90.83C955.017 87.31 956.667 82.25 956.667 75.65V51.23C956.667 44.63 955.017 39.35 951.717 35.39C948.637 31.21 942.917 29.12 934.557 29.12V2.71999H1058.64C1070.74 2.71999 1081.41 5.35999 1090.65 10.64C1100.11 15.92 1107.48 23.18 1112.76 32.42C1118.26 41.66 1121.01 52.22 1121.01 64.1V128.78C1121.01 132.3 1121.01 134.72 1121.01 136.04C1121.01 137.14 1121.01 137.91 1121.01 138.35C1121.01 138.57 1121.01 139.45 1121.01 140.99V141.32C1121.01 142.64 1121.01 143.52 1121.01 143.96C1121.01 144.4 1121.01 145.17 1121.01 146.27C1121.01 147.15 1121.01 149.46 1121.01 153.2V170.03C1121.01 173.55 1121.01 175.97 1121.01 177.29C1121.01 178.39 1121.01 179.16 1121.01 179.6C1121.01 179.82 1121.01 180.7 1121.01 182.24V182.57C1121.01 183.89 1120.9 185.32 1120.68 186.86C1120.68 188.4 1120.57 189.83 1120.35 191.15C1120.13 192.25 1119.91 193.35 1119.69 194.45C1116.61 208.09 1109.46 218.98 1098.24 227.12C1087.24 235.04 1074.04 239 1058.64 239H934.557ZM1012.11 94.13H1035.21C1043.57 94.13 1049.4 92.48 1052.7 89.18C1056 85.88 1057.65 80.16 1057.65 72.02V51.23C1057.65 42.87 1056 37.15 1052.7 34.07C1049.4 30.77 1043.57 29.12 1035.21 29.12H1012.11V94.13Z" fill="#15D8F2"/>
</svg>
