<svg xmlns="http://www.w3.org/2000/svg" viewBox="0 0 1745.32 658.39"><defs><style>.cls-1{fill:none;stroke:#bfa85f;stroke-miterlimit:10;stroke-width:2px;}.cls-2{fill:#bfa85f;}</style></defs><g id="Layer_2" data-name="Layer 2"><path class="cls-1" d="M-3,459.13c155.91,3.26,303.3,95.88,460.44,73.75,151.64-21.35,285.18-127.58,441-127.22,150.32.34,271.77,112.26,417.11,134.57,69.16,10.61,126.22-10,185.49-40.26,75.73-38.7,144.21-53.61,231.4-40.84" transform="translate(3.06 114.34)"/><path class="cls-1" d="M-3,448.28c155.22,3.09,300.9,94.15,457.3,74.2,153.58-19.6,287.55-128.25,444.89-127.38,152.32.84,273.18,115.49,421.89,133.11,64.29,7.61,120.78-13.08,177.29-38.68,77.27-35,146.94-52.15,234.06-41.25" transform="translate(3.06 114.34)"/><path class="cls-1" d="M-3,437.44c155.79,2.91,301.76,94.06,458.74,74.25,153.77-19.39,287.66-128,445.18-127.06,147.46.85,263.9,110.17,407.87,126.71,65,7.47,125-12.49,184-35.06,79.47-30.39,152.55-48.18,239.6-38.84" transform="translate(3.06 114.34)"/><path class="cls-1" d="M-3,426.6c156.6,2.77,303.21,94.12,461,74.43,154-19.2,287.53-127.28,445.25-126.74,140.88.49,251.26,103.31,388.83,118,66.24,7.08,130.46-11.24,192.45-30.64,82.3-25.75,160.14-43.15,247.88-35.08" transform="translate(3.06 114.34)"/><path class="cls-1" d="M-3,415.76c157.65,2.7,305.3,94.47,464.14,74.81C615.22,471.5,748.12,364.06,905.9,364c133.49,0,237.11,95.84,367.5,108.29,68.21,6.51,136.25-9.64,201.6-25.83,85.53-21.19,168.21-37.63,257.42-30.72" transform="translate(3.06 114.34)"/><path class="cls-1" d="M-3,404.91c158.89,2.75,308,95.26,468.08,75.46,153.89-19,285.86-126,443.42-126.64,126.16-.55,223.39,88.24,346.63,98.76,70.46,6,142-7.9,210.59-21.1,88.62-17.05,175.71-32.1,266.71-26.48" transform="translate(3.06 114.34)"/><path class="cls-1" d="M-3,394.07c160.3,2.92,311.42,96.63,472.84,76.44,153.22-19.16,283.93-126,440.86-127.15,119.88-.88,211.85,81.57,328.93,90.69,72.65,5.67,147-6.26,218.56-16.89,91.11-13.54,181.62-27,274.24-23.09" transform="translate(3.06 114.34)"/><path class="cls-1" d="M-3,383.23C158.81,386.5,312.52,482,475.38,461.07c151.94-19.5,281-127,436.8-128.22,115.59-.92,204.26,76.72,317.14,85.32,74.3,5.66,151-5.05,224.57-13.65,92.57-10.81,185-22.84,278.53-21.29" transform="translate(3.06 114.34)"/><path class="cls-1" d="M-3,372.38c164.16,3.23,321.2,99.67,486.29,78.41C633,431.52,759,322.4,912.67,322c114.28-.34,202.65,74.68,314.26,83.74,74.75,6.07,152.78-4.73,227.08-12.11,92.61-9.21,185.17-20,278.41-21.2" transform="translate(3.06 114.34)"/><path class="cls-1" d="M-3,361.54c92.8,1.23,181.52,27.27,270.51,49.08,74,18.14,153.68,37.55,230.77,27.89,146.28-18.35,265.36-130.78,415.92-130.32,115.24.35,206.63,73.37,319.45,82.57,73.8,6,151.11-4.31,224.63-10.66,91.26-7.88,182.44-16.83,274.15-18.56" transform="translate(3.06 114.34)"/><path class="cls-1" d="M-3,350.7c96.34,1.1,189.13,27.56,281.83,49.27,75.83,17.77,158.74,38.4,237.45,27.88,142.59-19.06,253.52-136.49,401-136.2C1034.77,291.88,1131,363,1246.38,372c72.29,5.64,147.62-2.93,219.83-7.63,88.68-5.78,177.3-12.21,266.21-13.64" transform="translate(3.06 114.34)"/><path class="cls-1" d="M-3,339.85c100.2,1.29,197.27,28.4,293.94,50.31,77.49,17.57,164.45,40.22,244.68,28.2,139-20.83,240.95-144.4,385.64-145,120.67-.47,222.85,68.78,341.6,77.4,70.42,5.1,143.08-1,213.58-3.63,85.32-3.16,170.6-6.64,256-7.31" transform="translate(3.06 114.34)"/><path class="cls-1" d="M-3,329c104,1.67,205.26,29.56,305.81,51.83,78.88,17.46,170.33,42.61,251.79,28.75,135.75-23.1,228.51-153.4,371-155.1,124.22-1.48,232.61,66.08,355.14,74.21,68.38,4.54,138.22,1,206.77.75,81.64-.3,163.28-.67,244.91-.44" transform="translate(3.06 114.34)"/><path class="cls-1" d="M-3,318.17C104.46,320.3,209.37,349,313.38,371.66c79.93,17.42,175.79,45.07,258.15,29.42C704.76,375.77,788.61,238.75,929.71,236c127.62-2.48,241.89,63.39,368,71.19,66.46,4.11,133.72,2.77,200.33,4.9,78.12,2.49,156.21,5.11,234.37,6.08" transform="translate(3.06 114.34)"/><path class="cls-1" d="M-3,307.33c110.13,2.53,218,31.94,324.67,54.94,80.68,17.4,180.08,47.06,263.08,30.11C716.44,365.48,792.37,222.35,933,219c130.43-3.1,249.42,61.19,378.52,68.73,65,3.8,130.12,3.94,195.12,8.2,75.24,4.93,150.36,10.1,225.8,11.4" transform="translate(3.06 114.34)"/><path class="cls-1" d="M-3,296.48c111.66,2.73,221.34,32.72,329.59,55.87,81.23,17.37,182.41,48,266,30.68C724,355.72,793.69,207.68,934.83,204.55c132.13-2.92,254,59.66,384.92,67.27,64.13,3.72,128,4.19,192.07,10.05,73.51,6.72,146.67,13.64,220.6,14.61" transform="translate(3.06 114.34)"/><path class="cls-1" d="M-3,285.64c111.12,4.21,220.07,32.29,328.15,54.63,48.18,10,96.52,19.67,145.34,26.57,39,5.52,80.46,11.94,119.48,3.55,130.95-28.15,205.79-173.56,346-177.31,132.1-3.53,254.73,59.29,385.63,67,64,3.78,127.63,3.81,191.58,10.26,73.08,7.36,145.64,14.84,219.26,15.26" transform="translate(3.06 114.34)"/><path class="cls-1" d="M-3,274.8c106.28,4.9,210.54,27.59,314.65,46.57,45.91,8.38,91.94,16.49,138.32,22.39,39,5,79.59,11.07,118.52,3,135.18-27.93,230.85-161.16,373.3-165.69,131.43-4.18,253.54,59.61,383.76,67.33,63.62,3.76,126.67,3.78,190.16,10.56,72.24,7.73,143.87,15.45,216.72,15.82" transform="translate(3.06 114.34)"/><path class="cls-1" d="M-3,264c98.32,3.57,195.3,19.51,292.39,33.31,77.31,11,166.28,30.89,244.1,17.58,76.4-13.06,146.68-51,215.54-82.7C811.59,203.34,880.2,170,951.53,168.2c130.83-3.23,251.34,60.11,380.91,67.89,62.79,3.77,124.85,3.89,187.46,11.15,70.85,8.21,141,16.29,212.52,16.71" transform="translate(3.06 114.34)"/><path class="cls-1" d="M-3,253.11c88.66,1.31,176.8,9.62,265.05,17,74.49,6.23,154.12,17.32,228.58,8,84.78-10.66,166-42.89,245.89-69.8,72.19-24.3,149.26-52.58,227.06-53.48,130.14-1.51,248.62,60.85,377.47,68.61,61.74,3.72,122.53,4.07,184,11.89,69.15,8.8,137.4,17.3,207.37,17.83" transform="translate(3.06 114.34)"/><path class="cls-1" d="M-3,242.27c78.76-1,157.51-.5,236.28-.17,70.33.3,142.23,3.68,212.3-2.18,179.38-15,349.54-99,530.68-98.71,129.27.24,245.89,61.5,373.87,69.38,60.62,3.73,120.08,4.25,180.36,12.68,67.35,9.41,133.63,18.35,201.94,19" transform="translate(3.06 114.34)"/><path class="cls-1" d="M-3,231.43c70.22-2.48,139.89-9.29,209.75-16,65.8-6.31,131.29-8.09,197.23-11.52,196-10.19,387-78.34,583.95-76,128.37,1.5,243.45,62.11,370.53,70.08,59.62,3.75,117.85,4.37,177,13.39,65.7,10,130.13,19.35,196.94,20.09" transform="translate(3.06 114.34)"/><path class="cls-1" d="M-3,220.58c64.71-2.83,126.2-15.2,189.12-28.29,62-12.89,122.06-16.57,185.38-18.76C580.67,166.29,787.29,112,997,115.14c127.62,1.93,241.54,62.58,367.86,70.6,58.88,3.74,116.2,4.38,174.56,13.92,64.42,10.54,127.37,20.16,193.05,20.92" transform="translate(3.06 114.34)"/><path class="cls-1" d="M-3,209.74c63.26-1.67,118.67-16.86,178.07-34.89s116.63-20.41,178.73-22.6c216.14-7.62,431.41-50.75,647.88-48.84,127.19,1.12,240.45,62.83,366.28,70.81,58.6,3.71,115.49,4.21,173.5,14.15,63.76,10.92,125.84,20.69,191,21.37" transform="translate(3.06 114.34)"/><path class="cls-1" d="M-3,198.9c63.22-.86,119.48-13.72,179-31.79S296.05,143,357.51,133.52c115.28-17.77,232.65-25.3,349.21-31.73,98.43-5.43,197.45-10.33,296.08-9.62,126,.91,236.21,64.4,360.74,71.91,57.33,3.45,113.78,4.19,170.77,12,66.1,9.06,131.51,17.75,198.35,21" transform="translate(3.06 114.34)"/><path class="cls-1" d="M-3,188.05c63-.63,121.76-10,181.82-26.86,23.71-6.66,47.37-13.44,71.42-19,16-3.68,32.32-6.07,48.34-9.62,22.87-5.07,44.38-13.56,67-20C571.17,54.4,794.19,77.07,1005.73,79.9c121.15,1.62,222.2,68.32,341.5,75.84,56.84,3.58,114,2.9,171,6.38,71.9,4.41,143.66,10.88,215.45,16.53" transform="translate(3.06 114.34)"/><path class="cls-1" d="M-3,177.21c63.08-.44,124.2-6.31,185-22,24-6.2,47.69-13.27,71.52-19.93,15.61-4.36,31.7-7.88,47.13-12.73,25.51-8,48.6-21.27,73.63-31,207.18-80.19,421.4-29.34,635.87-24.69,55.9,1.22,105.28,13.55,155.83,35,50.9,21.59,100,42.6,156.75,46.74,57.78,4.21,116.56.19,174.41-1.4,79.69-2.2,158.69,1.59,238,8.87" transform="translate(3.06 114.34)"/><path class="cls-1" d="M-3,166.37c62.93-.25,125.82-2.55,187.09-16.93,24-5.64,47.59-12.84,70.94-20.54,15.1-5,30.6-9.69,45.31-15.58,31.31-12.54,58.89-32.18,89.67-46.24C499.26,17.19,621.2,6.38,741.13,17.56c91.94,8.57,181.9,32.15,274.29,35.92,53.77,2.2,97.12,14.19,143.47,39.64,40,21.94,78.64,42.26,125.49,48.07,62.89,7.8,128.16-2.5,190.62-9.58,87.74-9.94,174-8.83,262-.31" transform="translate(3.06 114.34)"/><path class="cls-1" d="M-3,155.53c63.45-.08,128.2,1.09,190.45-12.17A484.74,484.74,0,0,0,258.62,122C310.37,102.29,351.3,70.56,399.73,45,509.4-12.75,632.68-29.56,756.56-11,845.42,2.22,930.69,35.19,1020.84,40c50.13,2.67,87.71,13.87,127.32,42.92,33.08,24.28,64.45,45.46,107.23,51.79,64.9,9.61,132.36-6.75,195.63-18.73,96.14-18.21,190.15-19.58,287.79-9.79" transform="translate(3.06 114.34)"/><path class="cls-1" d="M-3,144.68c64.1.12,130.42,4.79,193.68-7.37A343.72,343.72,0,0,0,262,115.07c54.48-23.56,96.65-62.35,147.16-92C519.13-41.44,644-66.29,771.57-39.49c85.74,18,165.75,60.55,254.09,66.3,47.53,3.1,80,13.24,113,45.83,26.72,26.38,50.75,48.3,90.77,55.14,66.51,11.39,136.08-10.91,199.48-27.06,103.47-26.37,204.9-29.37,311.52-18" transform="translate(3.06 114.34)"/><path class="cls-1" d="M-3,133.84c64.41.32,131.45,8.4,195.32-2.29,90.16-15.08,145.38-77.42,217.3-124.74C526.38-70,659.17-106,798.09-63.89,875-40.58,946.87,9.52,1028.92,14.25c43.13,2.49,75.24,11.43,100.79,44.85,23.35,30.52,40.62,54.11,83.18,61.21,67.82,11.32,136.89-15.29,199.89-34.58,108.47-33.21,215.74-36.42,328.86-23.07" transform="translate(3.06 114.34)"/><path class="cls-1" d="M-3,123c64.8.55,132,11.79,196.53,2.84,90.7-12.58,146.34-84,214.56-133.32,114.54-82.8,253.1-137.36,395-85.71C879.31-65.45,947-4,1030.56,2.74c44.81,3.6,75.22,9.47,98.2,47.42,19.53,32.26,35,54.78,78,61.09,68.63,10.07,133.6-17.71,196.18-39.37,111.25-38.49,222.3-40,339.14-23.81" transform="translate(3.06 114.34)"/><path class="cls-2" d="M743.85,76.63a4.5,4.5,0,1,0-4.5-4.5,4.55,4.55,0,0,0,4.5,4.5Z" transform="translate(3.06 114.34)"/><path class="cls-2" d="M984.65,147.63a4.5,4.5,0,1,0-4.5-4.5,4.55,4.55,0,0,0,4.5,4.5Z" transform="translate(3.06 114.34)"/><path class="cls-2" d="M1149.77,282.39a4.5,4.5,0,1,0-4.5-4.5,4.56,4.56,0,0,0,4.5,4.5Z" transform="translate(3.06 114.34)"/><path class="cls-2" d="M1360.75,278a4.5,4.5,0,1,0-4.5-4.5,4.55,4.55,0,0,0,4.5,4.5Z" transform="translate(3.06 114.34)"/><path class="cls-2" d="M1429.55,443.23a4.5,4.5,0,1,0-4.5-4.5,4.55,4.55,0,0,0,4.5,4.5Z" transform="translate(3.06 114.34)"/><path class="cls-2" d="M1534.45,302.65a4.5,4.5,0,1,0-4.5-4.5,4.55,4.55,0,0,0,4.5,4.5Z" transform="translate(3.06 114.34)"/><path class="cls-2" d="M583.08,263.55h2.54a3.33,3.33,0,0,0,1.73-.38,3.47,3.47,0,0,0,1.45-.94,3.32,3.32,0,0,0,.93-1.44,3.47,3.47,0,0,0,.39-1.74l-.16-1.19a4.5,4.5,0,0,0-1.16-2l-.91-.7a4.53,4.53,0,0,0-2.27-.62h-2.54a3.44,3.44,0,0,0-1.73.39,4,4,0,0,0-2.38,2.38,3.44,3.44,0,0,0-.39,1.73l.16,1.2a4.52,4.52,0,0,0,1.16,2l.91.71a4.42,4.42,0,0,0,2.27.61Z" transform="translate(3.06 114.34)"/><path class="cls-2" d="M1000.79,321.36V323a3.22,3.22,0,0,0,.39,1.73,4.05,4.05,0,0,0,2.37,2.38,3.47,3.47,0,0,0,1.74.39l1.19-.16a4.41,4.41,0,0,0,2-1.16l.7-.91a4.43,4.43,0,0,0,.62-2.27v-1.59a3.41,3.41,0,0,0-.39-1.73,3.3,3.3,0,0,0-.93-1.45,3.36,3.36,0,0,0-1.45-.93,3.31,3.31,0,0,0-1.73-.39l-1.2.16a4.43,4.43,0,0,0-2,1.16l-.71.91a4.52,4.52,0,0,0-.61,2.27Z" transform="translate(3.06 114.34)"/><path class="cls-2" d="M1686.57,210.93a4.5,4.5,0,1,0-4.5-4.5,4.55,4.55,0,0,0,4.5,4.5Z" transform="translate(3.06 114.34)"/><path class="cls-2" d="M301.25,396.81a3,3,0,1,0-3-3,3,3,0,0,0,3,3Z" transform="translate(3.06 114.34)"/><path class="cls-2" d="M506.14,432.19a3,3,0,1,0-3-3,3,3,0,0,0,3,3Z" transform="translate(3.06 114.34)"/><path class="cls-2" d="M239.09,243.22h2.53a2.3,2.3,0,0,0,1.16-.26,2.34,2.34,0,0,0,1-.62,2.38,2.38,0,0,0,.62-1,2.28,2.28,0,0,0,.25-1.15l-.1-.8a3.13,3.13,0,0,0-.77-1.33l-.61-.46a2.89,2.89,0,0,0-1.52-.41h-2.53a2.26,2.26,0,0,0-1.15.25,2.31,2.31,0,0,0-1,.62,2.34,2.34,0,0,0-.62,1,2.3,2.3,0,0,0-.26,1.16l.11.79a3,3,0,0,0,.77,1.33l.61.47a3.05,3.05,0,0,0,1.51.41Z" transform="translate(3.06 114.34)"/><path class="cls-2" d="M200.34,397.36h2.54a2.26,2.26,0,0,0,1.15-.26,2.68,2.68,0,0,0,1.59-1.59,2.26,2.26,0,0,0,.26-1.15l-.11-.8a2.94,2.94,0,0,0-.77-1.32l-.61-.47a3,3,0,0,0-1.51-.41h-2.54a2.19,2.19,0,0,0-1.15.26,2.7,2.7,0,0,0-1.59,1.58,2.44,2.44,0,0,0-.26,1.16l.11.8a3,3,0,0,0,.77,1.32l.61.47a3,3,0,0,0,1.51.41Z" transform="translate(3.06 114.34)"/><path class="cls-2" d="M996.12,402.6a3,3,0,1,0-3-3,3,3,0,0,0,3,3Z" transform="translate(3.06 114.34)"/><path class="cls-2" d="M1196.86,460.12a3,3,0,1,0-3-3,3,3,0,0,0,3,3Z" transform="translate(3.06 114.34)"/></g></svg>